%TF.GenerationSoftware,KiCad,Pcbnew,(5.1.6)-1*%
%TF.CreationDate,2020-10-02T15:44:05+02:00*%
%TF.ProjectId,PTnglieder,50546e67-6c69-4656-9465-722e6b696361,rev?*%
%TF.SameCoordinates,Original*%
%TF.FileFunction,Paste,Bot*%
%TF.FilePolarity,Positive*%
%FSLAX46Y46*%
G04 Gerber Fmt 4.6, Leading zero omitted, Abs format (unit mm)*
G04 Created by KiCad (PCBNEW (5.1.6)-1) date 2020-10-02 15:44:05*
%MOMM*%
%LPD*%
G01*
G04 APERTURE LIST*
%ADD10R,2.400000X0.740000*%
%ADD11R,1.000000X2.510000*%
%ADD12R,2.200000X0.600000*%
%ADD13R,2.450000X0.600000*%
%ADD14R,2.450000X0.300000*%
%ADD15R,1.500000X3.000000*%
%ADD16R,3.800000X3.000000*%
%ADD17R,1.900000X0.800000*%
%ADD18R,2.800000X0.800000*%
%ADD19R,0.740000X2.400000*%
G04 APERTURE END LIST*
D10*
%TO.C,J7*%
X81960000Y-124206000D03*
X78060000Y-124206000D03*
X81960000Y-125476000D03*
X78060000Y-125476000D03*
X81960000Y-126746000D03*
X78060000Y-126746000D03*
X81960000Y-128016000D03*
X78060000Y-128016000D03*
X81960000Y-129286000D03*
X78060000Y-129286000D03*
%TD*%
%TO.C,R15*%
G36*
G01*
X61410000Y-89096001D02*
X61410000Y-88195999D01*
G75*
G02*
X61659999Y-87946000I249999J0D01*
G01*
X62310001Y-87946000D01*
G75*
G02*
X62560000Y-88195999I0J-249999D01*
G01*
X62560000Y-89096001D01*
G75*
G02*
X62310001Y-89346000I-249999J0D01*
G01*
X61659999Y-89346000D01*
G75*
G02*
X61410000Y-89096001I0J249999D01*
G01*
G37*
G36*
G01*
X59360000Y-89096001D02*
X59360000Y-88195999D01*
G75*
G02*
X59609999Y-87946000I249999J0D01*
G01*
X60260001Y-87946000D01*
G75*
G02*
X60510000Y-88195999I0J-249999D01*
G01*
X60510000Y-89096001D01*
G75*
G02*
X60260001Y-89346000I-249999J0D01*
G01*
X59609999Y-89346000D01*
G75*
G02*
X59360000Y-89096001I0J249999D01*
G01*
G37*
%TD*%
D11*
%TO.C,U4*%
X112430000Y-98310000D03*
X107350000Y-98310000D03*
X102270000Y-98310000D03*
X97190000Y-98310000D03*
X92110000Y-98310000D03*
X109890000Y-95000000D03*
X104810000Y-95000000D03*
X99730000Y-95000000D03*
X94650000Y-95000000D03*
X89570000Y-95000000D03*
%TD*%
%TO.C,R14*%
G36*
G01*
X98102000Y-135693999D02*
X98102000Y-136594001D01*
G75*
G02*
X97852001Y-136844000I-249999J0D01*
G01*
X97201999Y-136844000D01*
G75*
G02*
X96952000Y-136594001I0J249999D01*
G01*
X96952000Y-135693999D01*
G75*
G02*
X97201999Y-135444000I249999J0D01*
G01*
X97852001Y-135444000D01*
G75*
G02*
X98102000Y-135693999I0J-249999D01*
G01*
G37*
G36*
G01*
X100152000Y-135693999D02*
X100152000Y-136594001D01*
G75*
G02*
X99902001Y-136844000I-249999J0D01*
G01*
X99251999Y-136844000D01*
G75*
G02*
X99002000Y-136594001I0J249999D01*
G01*
X99002000Y-135693999D01*
G75*
G02*
X99251999Y-135444000I249999J0D01*
G01*
X99902001Y-135444000D01*
G75*
G02*
X100152000Y-135693999I0J-249999D01*
G01*
G37*
%TD*%
%TO.C,C12*%
G36*
G01*
X103066000Y-136594001D02*
X103066000Y-135693999D01*
G75*
G02*
X103315999Y-135444000I249999J0D01*
G01*
X103966001Y-135444000D01*
G75*
G02*
X104216000Y-135693999I0J-249999D01*
G01*
X104216000Y-136594001D01*
G75*
G02*
X103966001Y-136844000I-249999J0D01*
G01*
X103315999Y-136844000D01*
G75*
G02*
X103066000Y-136594001I0J249999D01*
G01*
G37*
G36*
G01*
X101016000Y-136594001D02*
X101016000Y-135693999D01*
G75*
G02*
X101265999Y-135444000I249999J0D01*
G01*
X101916001Y-135444000D01*
G75*
G02*
X102166000Y-135693999I0J-249999D01*
G01*
X102166000Y-136594001D01*
G75*
G02*
X101916001Y-136844000I-249999J0D01*
G01*
X101265999Y-136844000D01*
G75*
G02*
X101016000Y-136594001I0J249999D01*
G01*
G37*
%TD*%
%TO.C,C11*%
G36*
G01*
X102883000Y-139055000D02*
X102883000Y-137805000D01*
G75*
G02*
X103133000Y-137555000I250000J0D01*
G01*
X104058000Y-137555000D01*
G75*
G02*
X104308000Y-137805000I0J-250000D01*
G01*
X104308000Y-139055000D01*
G75*
G02*
X104058000Y-139305000I-250000J0D01*
G01*
X103133000Y-139305000D01*
G75*
G02*
X102883000Y-139055000I0J250000D01*
G01*
G37*
G36*
G01*
X99908000Y-139055000D02*
X99908000Y-137805000D01*
G75*
G02*
X100158000Y-137555000I250000J0D01*
G01*
X101083000Y-137555000D01*
G75*
G02*
X101333000Y-137805000I0J-250000D01*
G01*
X101333000Y-139055000D01*
G75*
G02*
X101083000Y-139305000I-250000J0D01*
G01*
X100158000Y-139305000D01*
G75*
G02*
X99908000Y-139055000I0J250000D01*
G01*
G37*
%TD*%
%TO.C,C10*%
G36*
G01*
X94292000Y-135693999D02*
X94292000Y-136594001D01*
G75*
G02*
X94042001Y-136844000I-249999J0D01*
G01*
X93391999Y-136844000D01*
G75*
G02*
X93142000Y-136594001I0J249999D01*
G01*
X93142000Y-135693999D01*
G75*
G02*
X93391999Y-135444000I249999J0D01*
G01*
X94042001Y-135444000D01*
G75*
G02*
X94292000Y-135693999I0J-249999D01*
G01*
G37*
G36*
G01*
X96342000Y-135693999D02*
X96342000Y-136594001D01*
G75*
G02*
X96092001Y-136844000I-249999J0D01*
G01*
X95441999Y-136844000D01*
G75*
G02*
X95192000Y-136594001I0J249999D01*
G01*
X95192000Y-135693999D01*
G75*
G02*
X95441999Y-135444000I249999J0D01*
G01*
X96092001Y-135444000D01*
G75*
G02*
X96342000Y-135693999I0J-249999D01*
G01*
G37*
%TD*%
D12*
%TO.C,U5*%
X138128000Y-87503000D03*
X138128000Y-86233000D03*
X138128000Y-84963000D03*
X138128000Y-83693000D03*
X132128000Y-83693000D03*
X132128000Y-84963000D03*
X132128000Y-86233000D03*
X132128000Y-87503000D03*
%TD*%
%TO.C,U6*%
G36*
G01*
X103575000Y-112865000D02*
X104025000Y-112865000D01*
G75*
G02*
X104250000Y-113090000I0J-225000D01*
G01*
X104250000Y-115640000D01*
G75*
G02*
X104025000Y-115865000I-225000J0D01*
G01*
X103575000Y-115865000D01*
G75*
G02*
X103350000Y-115640000I0J225000D01*
G01*
X103350000Y-113090000D01*
G75*
G02*
X103575000Y-112865000I225000J0D01*
G01*
G37*
G36*
G01*
X102305000Y-112865000D02*
X102755000Y-112865000D01*
G75*
G02*
X102980000Y-113090000I0J-225000D01*
G01*
X102980000Y-115640000D01*
G75*
G02*
X102755000Y-115865000I-225000J0D01*
G01*
X102305000Y-115865000D01*
G75*
G02*
X102080000Y-115640000I0J225000D01*
G01*
X102080000Y-113090000D01*
G75*
G02*
X102305000Y-112865000I225000J0D01*
G01*
G37*
G36*
G01*
X101035000Y-112865000D02*
X101485000Y-112865000D01*
G75*
G02*
X101710000Y-113090000I0J-225000D01*
G01*
X101710000Y-115640000D01*
G75*
G02*
X101485000Y-115865000I-225000J0D01*
G01*
X101035000Y-115865000D01*
G75*
G02*
X100810000Y-115640000I0J225000D01*
G01*
X100810000Y-113090000D01*
G75*
G02*
X101035000Y-112865000I225000J0D01*
G01*
G37*
G36*
G01*
X99765000Y-112865000D02*
X100215000Y-112865000D01*
G75*
G02*
X100440000Y-113090000I0J-225000D01*
G01*
X100440000Y-115640000D01*
G75*
G02*
X100215000Y-115865000I-225000J0D01*
G01*
X99765000Y-115865000D01*
G75*
G02*
X99540000Y-115640000I0J225000D01*
G01*
X99540000Y-113090000D01*
G75*
G02*
X99765000Y-112865000I225000J0D01*
G01*
G37*
G36*
G01*
X98495000Y-112865000D02*
X98945000Y-112865000D01*
G75*
G02*
X99170000Y-113090000I0J-225000D01*
G01*
X99170000Y-115640000D01*
G75*
G02*
X98945000Y-115865000I-225000J0D01*
G01*
X98495000Y-115865000D01*
G75*
G02*
X98270000Y-115640000I0J225000D01*
G01*
X98270000Y-113090000D01*
G75*
G02*
X98495000Y-112865000I225000J0D01*
G01*
G37*
G36*
G01*
X97225000Y-112865000D02*
X97675000Y-112865000D01*
G75*
G02*
X97900000Y-113090000I0J-225000D01*
G01*
X97900000Y-115640000D01*
G75*
G02*
X97675000Y-115865000I-225000J0D01*
G01*
X97225000Y-115865000D01*
G75*
G02*
X97000000Y-115640000I0J225000D01*
G01*
X97000000Y-113090000D01*
G75*
G02*
X97225000Y-112865000I225000J0D01*
G01*
G37*
G36*
G01*
X95955000Y-112865000D02*
X96405000Y-112865000D01*
G75*
G02*
X96630000Y-113090000I0J-225000D01*
G01*
X96630000Y-115640000D01*
G75*
G02*
X96405000Y-115865000I-225000J0D01*
G01*
X95955000Y-115865000D01*
G75*
G02*
X95730000Y-115640000I0J225000D01*
G01*
X95730000Y-113090000D01*
G75*
G02*
X95955000Y-112865000I225000J0D01*
G01*
G37*
G36*
G01*
X94685000Y-112865000D02*
X95135000Y-112865000D01*
G75*
G02*
X95360000Y-113090000I0J-225000D01*
G01*
X95360000Y-115640000D01*
G75*
G02*
X95135000Y-115865000I-225000J0D01*
G01*
X94685000Y-115865000D01*
G75*
G02*
X94460000Y-115640000I0J225000D01*
G01*
X94460000Y-113090000D01*
G75*
G02*
X94685000Y-112865000I225000J0D01*
G01*
G37*
G36*
G01*
X93415000Y-112865000D02*
X93865000Y-112865000D01*
G75*
G02*
X94090000Y-113090000I0J-225000D01*
G01*
X94090000Y-115640000D01*
G75*
G02*
X93865000Y-115865000I-225000J0D01*
G01*
X93415000Y-115865000D01*
G75*
G02*
X93190000Y-115640000I0J225000D01*
G01*
X93190000Y-113090000D01*
G75*
G02*
X93415000Y-112865000I225000J0D01*
G01*
G37*
G36*
G01*
X92145000Y-112865000D02*
X92595000Y-112865000D01*
G75*
G02*
X92820000Y-113090000I0J-225000D01*
G01*
X92820000Y-115640000D01*
G75*
G02*
X92595000Y-115865000I-225000J0D01*
G01*
X92145000Y-115865000D01*
G75*
G02*
X91920000Y-115640000I0J225000D01*
G01*
X91920000Y-113090000D01*
G75*
G02*
X92145000Y-112865000I225000J0D01*
G01*
G37*
G36*
G01*
X90875000Y-112865000D02*
X91325000Y-112865000D01*
G75*
G02*
X91550000Y-113090000I0J-225000D01*
G01*
X91550000Y-115640000D01*
G75*
G02*
X91325000Y-115865000I-225000J0D01*
G01*
X90875000Y-115865000D01*
G75*
G02*
X90650000Y-115640000I0J225000D01*
G01*
X90650000Y-113090000D01*
G75*
G02*
X90875000Y-112865000I225000J0D01*
G01*
G37*
G36*
G01*
X89605000Y-112865000D02*
X90055000Y-112865000D01*
G75*
G02*
X90280000Y-113090000I0J-225000D01*
G01*
X90280000Y-115640000D01*
G75*
G02*
X90055000Y-115865000I-225000J0D01*
G01*
X89605000Y-115865000D01*
G75*
G02*
X89380000Y-115640000I0J225000D01*
G01*
X89380000Y-113090000D01*
G75*
G02*
X89605000Y-112865000I225000J0D01*
G01*
G37*
G36*
G01*
X88335000Y-112865000D02*
X88785000Y-112865000D01*
G75*
G02*
X89010000Y-113090000I0J-225000D01*
G01*
X89010000Y-115640000D01*
G75*
G02*
X88785000Y-115865000I-225000J0D01*
G01*
X88335000Y-115865000D01*
G75*
G02*
X88110000Y-115640000I0J225000D01*
G01*
X88110000Y-113090000D01*
G75*
G02*
X88335000Y-112865000I225000J0D01*
G01*
G37*
G36*
G01*
X87065000Y-112865000D02*
X87515000Y-112865000D01*
G75*
G02*
X87740000Y-113090000I0J-225000D01*
G01*
X87740000Y-115640000D01*
G75*
G02*
X87515000Y-115865000I-225000J0D01*
G01*
X87065000Y-115865000D01*
G75*
G02*
X86840000Y-115640000I0J225000D01*
G01*
X86840000Y-113090000D01*
G75*
G02*
X87065000Y-112865000I225000J0D01*
G01*
G37*
G36*
G01*
X84290000Y-117875000D02*
X84290000Y-117425000D01*
G75*
G02*
X84515000Y-117200000I225000J0D01*
G01*
X87065000Y-117200000D01*
G75*
G02*
X87290000Y-117425000I0J-225000D01*
G01*
X87290000Y-117875000D01*
G75*
G02*
X87065000Y-118100000I-225000J0D01*
G01*
X84515000Y-118100000D01*
G75*
G02*
X84290000Y-117875000I0J225000D01*
G01*
G37*
G36*
G01*
X84290000Y-119145000D02*
X84290000Y-118695000D01*
G75*
G02*
X84515000Y-118470000I225000J0D01*
G01*
X87065000Y-118470000D01*
G75*
G02*
X87290000Y-118695000I0J-225000D01*
G01*
X87290000Y-119145000D01*
G75*
G02*
X87065000Y-119370000I-225000J0D01*
G01*
X84515000Y-119370000D01*
G75*
G02*
X84290000Y-119145000I0J225000D01*
G01*
G37*
G36*
G01*
X84290000Y-120415000D02*
X84290000Y-119965000D01*
G75*
G02*
X84515000Y-119740000I225000J0D01*
G01*
X87065000Y-119740000D01*
G75*
G02*
X87290000Y-119965000I0J-225000D01*
G01*
X87290000Y-120415000D01*
G75*
G02*
X87065000Y-120640000I-225000J0D01*
G01*
X84515000Y-120640000D01*
G75*
G02*
X84290000Y-120415000I0J225000D01*
G01*
G37*
G36*
G01*
X84290000Y-121685000D02*
X84290000Y-121235000D01*
G75*
G02*
X84515000Y-121010000I225000J0D01*
G01*
X87065000Y-121010000D01*
G75*
G02*
X87290000Y-121235000I0J-225000D01*
G01*
X87290000Y-121685000D01*
G75*
G02*
X87065000Y-121910000I-225000J0D01*
G01*
X84515000Y-121910000D01*
G75*
G02*
X84290000Y-121685000I0J225000D01*
G01*
G37*
G36*
G01*
X84290000Y-122955000D02*
X84290000Y-122505000D01*
G75*
G02*
X84515000Y-122280000I225000J0D01*
G01*
X87065000Y-122280000D01*
G75*
G02*
X87290000Y-122505000I0J-225000D01*
G01*
X87290000Y-122955000D01*
G75*
G02*
X87065000Y-123180000I-225000J0D01*
G01*
X84515000Y-123180000D01*
G75*
G02*
X84290000Y-122955000I0J225000D01*
G01*
G37*
G36*
G01*
X84290000Y-124225000D02*
X84290000Y-123775000D01*
G75*
G02*
X84515000Y-123550000I225000J0D01*
G01*
X87065000Y-123550000D01*
G75*
G02*
X87290000Y-123775000I0J-225000D01*
G01*
X87290000Y-124225000D01*
G75*
G02*
X87065000Y-124450000I-225000J0D01*
G01*
X84515000Y-124450000D01*
G75*
G02*
X84290000Y-124225000I0J225000D01*
G01*
G37*
G36*
G01*
X84290000Y-125495000D02*
X84290000Y-125045000D01*
G75*
G02*
X84515000Y-124820000I225000J0D01*
G01*
X87065000Y-124820000D01*
G75*
G02*
X87290000Y-125045000I0J-225000D01*
G01*
X87290000Y-125495000D01*
G75*
G02*
X87065000Y-125720000I-225000J0D01*
G01*
X84515000Y-125720000D01*
G75*
G02*
X84290000Y-125495000I0J225000D01*
G01*
G37*
G36*
G01*
X84290000Y-126765000D02*
X84290000Y-126315000D01*
G75*
G02*
X84515000Y-126090000I225000J0D01*
G01*
X87065000Y-126090000D01*
G75*
G02*
X87290000Y-126315000I0J-225000D01*
G01*
X87290000Y-126765000D01*
G75*
G02*
X87065000Y-126990000I-225000J0D01*
G01*
X84515000Y-126990000D01*
G75*
G02*
X84290000Y-126765000I0J225000D01*
G01*
G37*
G36*
G01*
X84290000Y-128035000D02*
X84290000Y-127585000D01*
G75*
G02*
X84515000Y-127360000I225000J0D01*
G01*
X87065000Y-127360000D01*
G75*
G02*
X87290000Y-127585000I0J-225000D01*
G01*
X87290000Y-128035000D01*
G75*
G02*
X87065000Y-128260000I-225000J0D01*
G01*
X84515000Y-128260000D01*
G75*
G02*
X84290000Y-128035000I0J225000D01*
G01*
G37*
G36*
G01*
X84290000Y-129305000D02*
X84290000Y-128855000D01*
G75*
G02*
X84515000Y-128630000I225000J0D01*
G01*
X87065000Y-128630000D01*
G75*
G02*
X87290000Y-128855000I0J-225000D01*
G01*
X87290000Y-129305000D01*
G75*
G02*
X87065000Y-129530000I-225000J0D01*
G01*
X84515000Y-129530000D01*
G75*
G02*
X84290000Y-129305000I0J225000D01*
G01*
G37*
G36*
G01*
X87515000Y-133865000D02*
X87065000Y-133865000D01*
G75*
G02*
X86840000Y-133640000I0J225000D01*
G01*
X86840000Y-131090000D01*
G75*
G02*
X87065000Y-130865000I225000J0D01*
G01*
X87515000Y-130865000D01*
G75*
G02*
X87740000Y-131090000I0J-225000D01*
G01*
X87740000Y-133640000D01*
G75*
G02*
X87515000Y-133865000I-225000J0D01*
G01*
G37*
G36*
G01*
X88785000Y-133865000D02*
X88335000Y-133865000D01*
G75*
G02*
X88110000Y-133640000I0J225000D01*
G01*
X88110000Y-131090000D01*
G75*
G02*
X88335000Y-130865000I225000J0D01*
G01*
X88785000Y-130865000D01*
G75*
G02*
X89010000Y-131090000I0J-225000D01*
G01*
X89010000Y-133640000D01*
G75*
G02*
X88785000Y-133865000I-225000J0D01*
G01*
G37*
G36*
G01*
X90055000Y-133865000D02*
X89605000Y-133865000D01*
G75*
G02*
X89380000Y-133640000I0J225000D01*
G01*
X89380000Y-131090000D01*
G75*
G02*
X89605000Y-130865000I225000J0D01*
G01*
X90055000Y-130865000D01*
G75*
G02*
X90280000Y-131090000I0J-225000D01*
G01*
X90280000Y-133640000D01*
G75*
G02*
X90055000Y-133865000I-225000J0D01*
G01*
G37*
G36*
G01*
X91325000Y-133865000D02*
X90875000Y-133865000D01*
G75*
G02*
X90650000Y-133640000I0J225000D01*
G01*
X90650000Y-131090000D01*
G75*
G02*
X90875000Y-130865000I225000J0D01*
G01*
X91325000Y-130865000D01*
G75*
G02*
X91550000Y-131090000I0J-225000D01*
G01*
X91550000Y-133640000D01*
G75*
G02*
X91325000Y-133865000I-225000J0D01*
G01*
G37*
G36*
G01*
X92595000Y-133865000D02*
X92145000Y-133865000D01*
G75*
G02*
X91920000Y-133640000I0J225000D01*
G01*
X91920000Y-131090000D01*
G75*
G02*
X92145000Y-130865000I225000J0D01*
G01*
X92595000Y-130865000D01*
G75*
G02*
X92820000Y-131090000I0J-225000D01*
G01*
X92820000Y-133640000D01*
G75*
G02*
X92595000Y-133865000I-225000J0D01*
G01*
G37*
G36*
G01*
X93865000Y-133865000D02*
X93415000Y-133865000D01*
G75*
G02*
X93190000Y-133640000I0J225000D01*
G01*
X93190000Y-131090000D01*
G75*
G02*
X93415000Y-130865000I225000J0D01*
G01*
X93865000Y-130865000D01*
G75*
G02*
X94090000Y-131090000I0J-225000D01*
G01*
X94090000Y-133640000D01*
G75*
G02*
X93865000Y-133865000I-225000J0D01*
G01*
G37*
G36*
G01*
X95135000Y-133865000D02*
X94685000Y-133865000D01*
G75*
G02*
X94460000Y-133640000I0J225000D01*
G01*
X94460000Y-131090000D01*
G75*
G02*
X94685000Y-130865000I225000J0D01*
G01*
X95135000Y-130865000D01*
G75*
G02*
X95360000Y-131090000I0J-225000D01*
G01*
X95360000Y-133640000D01*
G75*
G02*
X95135000Y-133865000I-225000J0D01*
G01*
G37*
G36*
G01*
X96405000Y-133865000D02*
X95955000Y-133865000D01*
G75*
G02*
X95730000Y-133640000I0J225000D01*
G01*
X95730000Y-131090000D01*
G75*
G02*
X95955000Y-130865000I225000J0D01*
G01*
X96405000Y-130865000D01*
G75*
G02*
X96630000Y-131090000I0J-225000D01*
G01*
X96630000Y-133640000D01*
G75*
G02*
X96405000Y-133865000I-225000J0D01*
G01*
G37*
G36*
G01*
X97675000Y-133865000D02*
X97225000Y-133865000D01*
G75*
G02*
X97000000Y-133640000I0J225000D01*
G01*
X97000000Y-131090000D01*
G75*
G02*
X97225000Y-130865000I225000J0D01*
G01*
X97675000Y-130865000D01*
G75*
G02*
X97900000Y-131090000I0J-225000D01*
G01*
X97900000Y-133640000D01*
G75*
G02*
X97675000Y-133865000I-225000J0D01*
G01*
G37*
G36*
G01*
X98945000Y-133865000D02*
X98495000Y-133865000D01*
G75*
G02*
X98270000Y-133640000I0J225000D01*
G01*
X98270000Y-131090000D01*
G75*
G02*
X98495000Y-130865000I225000J0D01*
G01*
X98945000Y-130865000D01*
G75*
G02*
X99170000Y-131090000I0J-225000D01*
G01*
X99170000Y-133640000D01*
G75*
G02*
X98945000Y-133865000I-225000J0D01*
G01*
G37*
G36*
G01*
X100215000Y-133865000D02*
X99765000Y-133865000D01*
G75*
G02*
X99540000Y-133640000I0J225000D01*
G01*
X99540000Y-131090000D01*
G75*
G02*
X99765000Y-130865000I225000J0D01*
G01*
X100215000Y-130865000D01*
G75*
G02*
X100440000Y-131090000I0J-225000D01*
G01*
X100440000Y-133640000D01*
G75*
G02*
X100215000Y-133865000I-225000J0D01*
G01*
G37*
G36*
G01*
X101485000Y-133865000D02*
X101035000Y-133865000D01*
G75*
G02*
X100810000Y-133640000I0J225000D01*
G01*
X100810000Y-131090000D01*
G75*
G02*
X101035000Y-130865000I225000J0D01*
G01*
X101485000Y-130865000D01*
G75*
G02*
X101710000Y-131090000I0J-225000D01*
G01*
X101710000Y-133640000D01*
G75*
G02*
X101485000Y-133865000I-225000J0D01*
G01*
G37*
G36*
G01*
X102755000Y-133865000D02*
X102305000Y-133865000D01*
G75*
G02*
X102080000Y-133640000I0J225000D01*
G01*
X102080000Y-131090000D01*
G75*
G02*
X102305000Y-130865000I225000J0D01*
G01*
X102755000Y-130865000D01*
G75*
G02*
X102980000Y-131090000I0J-225000D01*
G01*
X102980000Y-133640000D01*
G75*
G02*
X102755000Y-133865000I-225000J0D01*
G01*
G37*
G36*
G01*
X104025000Y-133865000D02*
X103575000Y-133865000D01*
G75*
G02*
X103350000Y-133640000I0J225000D01*
G01*
X103350000Y-131090000D01*
G75*
G02*
X103575000Y-130865000I225000J0D01*
G01*
X104025000Y-130865000D01*
G75*
G02*
X104250000Y-131090000I0J-225000D01*
G01*
X104250000Y-133640000D01*
G75*
G02*
X104025000Y-133865000I-225000J0D01*
G01*
G37*
%TD*%
D13*
%TO.C,J5*%
X59000000Y-111000000D03*
X59000000Y-111800000D03*
X59000000Y-116700000D03*
X59000000Y-117500000D03*
X59000000Y-117500000D03*
X59000000Y-116700000D03*
X59000000Y-111800000D03*
X59000000Y-111000000D03*
D14*
X59000000Y-116000000D03*
X59000000Y-115500000D03*
X59000000Y-115000000D03*
X59000000Y-114000000D03*
X59000000Y-113500000D03*
X59000000Y-113000000D03*
X59000000Y-112500000D03*
X59000000Y-114500000D03*
%TD*%
%TO.C,J4*%
G36*
G01*
X141500000Y-103750000D02*
X141500000Y-105250000D01*
G75*
G02*
X140750000Y-106000000I-750000J0D01*
G01*
X137250000Y-106000000D01*
G75*
G02*
X136500000Y-105250000I0J750000D01*
G01*
X136500000Y-103750000D01*
G75*
G02*
X137250000Y-103000000I750000J0D01*
G01*
X140750000Y-103000000D01*
G75*
G02*
X141500000Y-103750000I0J-750000D01*
G01*
G37*
%TD*%
%TO.C,J3*%
G36*
G01*
X141500000Y-77750000D02*
X141500000Y-79250000D01*
G75*
G02*
X140750000Y-80000000I-750000J0D01*
G01*
X137250000Y-80000000D01*
G75*
G02*
X136500000Y-79250000I0J750000D01*
G01*
X136500000Y-77750000D01*
G75*
G02*
X137250000Y-77000000I750000J0D01*
G01*
X140750000Y-77000000D01*
G75*
G02*
X141500000Y-77750000I0J-750000D01*
G01*
G37*
%TD*%
%TO.C,J2*%
G36*
G01*
X115500000Y-77750000D02*
X115500000Y-79250000D01*
G75*
G02*
X114750000Y-80000000I-750000J0D01*
G01*
X111250000Y-80000000D01*
G75*
G02*
X110500000Y-79250000I0J750000D01*
G01*
X110500000Y-77750000D01*
G75*
G02*
X111250000Y-77000000I750000J0D01*
G01*
X114750000Y-77000000D01*
G75*
G02*
X115500000Y-77750000I0J-750000D01*
G01*
G37*
%TD*%
%TO.C,J1*%
G36*
G01*
X89500000Y-77750000D02*
X89500000Y-79250000D01*
G75*
G02*
X88750000Y-80000000I-750000J0D01*
G01*
X85250000Y-80000000D01*
G75*
G02*
X84500000Y-79250000I0J750000D01*
G01*
X84500000Y-77750000D01*
G75*
G02*
X85250000Y-77000000I750000J0D01*
G01*
X88750000Y-77000000D01*
G75*
G02*
X89500000Y-77750000I0J-750000D01*
G01*
G37*
%TD*%
%TO.C,C5*%
G36*
G01*
X127000000Y-70000000D02*
X125000000Y-70000000D01*
G75*
G02*
X124750000Y-69750000I0J250000D01*
G01*
X124750000Y-66250000D01*
G75*
G02*
X125000000Y-66000000I250000J0D01*
G01*
X127000000Y-66000000D01*
G75*
G02*
X127250000Y-66250000I0J-250000D01*
G01*
X127250000Y-69750000D01*
G75*
G02*
X127000000Y-70000000I-250000J0D01*
G01*
G37*
G36*
G01*
X127000000Y-78000000D02*
X125000000Y-78000000D01*
G75*
G02*
X124750000Y-77750000I0J250000D01*
G01*
X124750000Y-74250000D01*
G75*
G02*
X125000000Y-74000000I250000J0D01*
G01*
X127000000Y-74000000D01*
G75*
G02*
X127250000Y-74250000I0J-250000D01*
G01*
X127250000Y-77750000D01*
G75*
G02*
X127000000Y-78000000I-250000J0D01*
G01*
G37*
%TD*%
D15*
%TO.C,U3*%
X68848000Y-122268000D03*
X64248000Y-122268000D03*
X66548000Y-122268000D03*
D16*
X66548000Y-114968000D03*
%TD*%
D11*
%TO.C,U2*%
X69342000Y-98298000D03*
X64262000Y-98298000D03*
X71882000Y-94988000D03*
X66802000Y-94988000D03*
X61722000Y-94988000D03*
%TD*%
%TO.C,R13*%
G36*
G01*
X74872000Y-56076001D02*
X74872000Y-55175999D01*
G75*
G02*
X75121999Y-54926000I249999J0D01*
G01*
X75772001Y-54926000D01*
G75*
G02*
X76022000Y-55175999I0J-249999D01*
G01*
X76022000Y-56076001D01*
G75*
G02*
X75772001Y-56326000I-249999J0D01*
G01*
X75121999Y-56326000D01*
G75*
G02*
X74872000Y-56076001I0J249999D01*
G01*
G37*
G36*
G01*
X72822000Y-56076001D02*
X72822000Y-55175999D01*
G75*
G02*
X73071999Y-54926000I249999J0D01*
G01*
X73722001Y-54926000D01*
G75*
G02*
X73972000Y-55175999I0J-249999D01*
G01*
X73972000Y-56076001D01*
G75*
G02*
X73722001Y-56326000I-249999J0D01*
G01*
X73071999Y-56326000D01*
G75*
G02*
X72822000Y-56076001I0J249999D01*
G01*
G37*
%TD*%
%TO.C,R12*%
G36*
G01*
X71062000Y-56076001D02*
X71062000Y-55175999D01*
G75*
G02*
X71311999Y-54926000I249999J0D01*
G01*
X71962001Y-54926000D01*
G75*
G02*
X72212000Y-55175999I0J-249999D01*
G01*
X72212000Y-56076001D01*
G75*
G02*
X71962001Y-56326000I-249999J0D01*
G01*
X71311999Y-56326000D01*
G75*
G02*
X71062000Y-56076001I0J249999D01*
G01*
G37*
G36*
G01*
X69012000Y-56076001D02*
X69012000Y-55175999D01*
G75*
G02*
X69261999Y-54926000I249999J0D01*
G01*
X69912001Y-54926000D01*
G75*
G02*
X70162000Y-55175999I0J-249999D01*
G01*
X70162000Y-56076001D01*
G75*
G02*
X69912001Y-56326000I-249999J0D01*
G01*
X69261999Y-56326000D01*
G75*
G02*
X69012000Y-56076001I0J249999D01*
G01*
G37*
%TD*%
%TO.C,R11*%
G36*
G01*
X67252000Y-56076001D02*
X67252000Y-55175999D01*
G75*
G02*
X67501999Y-54926000I249999J0D01*
G01*
X68152001Y-54926000D01*
G75*
G02*
X68402000Y-55175999I0J-249999D01*
G01*
X68402000Y-56076001D01*
G75*
G02*
X68152001Y-56326000I-249999J0D01*
G01*
X67501999Y-56326000D01*
G75*
G02*
X67252000Y-56076001I0J249999D01*
G01*
G37*
G36*
G01*
X65202000Y-56076001D02*
X65202000Y-55175999D01*
G75*
G02*
X65451999Y-54926000I249999J0D01*
G01*
X66102001Y-54926000D01*
G75*
G02*
X66352000Y-55175999I0J-249999D01*
G01*
X66352000Y-56076001D01*
G75*
G02*
X66102001Y-56326000I-249999J0D01*
G01*
X65451999Y-56326000D01*
G75*
G02*
X65202000Y-56076001I0J249999D01*
G01*
G37*
%TD*%
%TO.C,R10*%
G36*
G01*
X63451000Y-56076001D02*
X63451000Y-55175999D01*
G75*
G02*
X63700999Y-54926000I249999J0D01*
G01*
X64351001Y-54926000D01*
G75*
G02*
X64601000Y-55175999I0J-249999D01*
G01*
X64601000Y-56076001D01*
G75*
G02*
X64351001Y-56326000I-249999J0D01*
G01*
X63700999Y-56326000D01*
G75*
G02*
X63451000Y-56076001I0J249999D01*
G01*
G37*
G36*
G01*
X61401000Y-56076001D02*
X61401000Y-55175999D01*
G75*
G02*
X61650999Y-54926000I249999J0D01*
G01*
X62301001Y-54926000D01*
G75*
G02*
X62551000Y-55175999I0J-249999D01*
G01*
X62551000Y-56076001D01*
G75*
G02*
X62301001Y-56326000I-249999J0D01*
G01*
X61650999Y-56326000D01*
G75*
G02*
X61401000Y-56076001I0J249999D01*
G01*
G37*
%TD*%
%TO.C,R9*%
G36*
G01*
X54668000Y-120199999D02*
X54668000Y-121100001D01*
G75*
G02*
X54418001Y-121350000I-249999J0D01*
G01*
X53767999Y-121350000D01*
G75*
G02*
X53518000Y-121100001I0J249999D01*
G01*
X53518000Y-120199999D01*
G75*
G02*
X53767999Y-119950000I249999J0D01*
G01*
X54418001Y-119950000D01*
G75*
G02*
X54668000Y-120199999I0J-249999D01*
G01*
G37*
G36*
G01*
X56718000Y-120199999D02*
X56718000Y-121100001D01*
G75*
G02*
X56468001Y-121350000I-249999J0D01*
G01*
X55817999Y-121350000D01*
G75*
G02*
X55568000Y-121100001I0J249999D01*
G01*
X55568000Y-120199999D01*
G75*
G02*
X55817999Y-119950000I249999J0D01*
G01*
X56468001Y-119950000D01*
G75*
G02*
X56718000Y-120199999I0J-249999D01*
G01*
G37*
%TD*%
%TO.C,R8*%
G36*
G01*
X55568000Y-123640001D02*
X55568000Y-122739999D01*
G75*
G02*
X55817999Y-122490000I249999J0D01*
G01*
X56468001Y-122490000D01*
G75*
G02*
X56718000Y-122739999I0J-249999D01*
G01*
X56718000Y-123640001D01*
G75*
G02*
X56468001Y-123890000I-249999J0D01*
G01*
X55817999Y-123890000D01*
G75*
G02*
X55568000Y-123640001I0J249999D01*
G01*
G37*
G36*
G01*
X53518000Y-123640001D02*
X53518000Y-122739999D01*
G75*
G02*
X53767999Y-122490000I249999J0D01*
G01*
X54418001Y-122490000D01*
G75*
G02*
X54668000Y-122739999I0J-249999D01*
G01*
X54668000Y-123640001D01*
G75*
G02*
X54418001Y-123890000I-249999J0D01*
G01*
X53767999Y-123890000D01*
G75*
G02*
X53518000Y-123640001I0J249999D01*
G01*
G37*
%TD*%
%TO.C,R7*%
G36*
G01*
X60140000Y-83254001D02*
X60140000Y-82353999D01*
G75*
G02*
X60389999Y-82104000I249999J0D01*
G01*
X61040001Y-82104000D01*
G75*
G02*
X61290000Y-82353999I0J-249999D01*
G01*
X61290000Y-83254001D01*
G75*
G02*
X61040001Y-83504000I-249999J0D01*
G01*
X60389999Y-83504000D01*
G75*
G02*
X60140000Y-83254001I0J249999D01*
G01*
G37*
G36*
G01*
X58090000Y-83254001D02*
X58090000Y-82353999D01*
G75*
G02*
X58339999Y-82104000I249999J0D01*
G01*
X58990001Y-82104000D01*
G75*
G02*
X59240000Y-82353999I0J-249999D01*
G01*
X59240000Y-83254001D01*
G75*
G02*
X58990001Y-83504000I-249999J0D01*
G01*
X58339999Y-83504000D01*
G75*
G02*
X58090000Y-83254001I0J249999D01*
G01*
G37*
%TD*%
%TO.C,R6*%
G36*
G01*
X117798001Y-79814000D02*
X116897999Y-79814000D01*
G75*
G02*
X116648000Y-79564001I0J249999D01*
G01*
X116648000Y-78913999D01*
G75*
G02*
X116897999Y-78664000I249999J0D01*
G01*
X117798001Y-78664000D01*
G75*
G02*
X118048000Y-78913999I0J-249999D01*
G01*
X118048000Y-79564001D01*
G75*
G02*
X117798001Y-79814000I-249999J0D01*
G01*
G37*
G36*
G01*
X117798001Y-81864000D02*
X116897999Y-81864000D01*
G75*
G02*
X116648000Y-81614001I0J249999D01*
G01*
X116648000Y-80963999D01*
G75*
G02*
X116897999Y-80714000I249999J0D01*
G01*
X117798001Y-80714000D01*
G75*
G02*
X118048000Y-80963999I0J-249999D01*
G01*
X118048000Y-81614001D01*
G75*
G02*
X117798001Y-81864000I-249999J0D01*
G01*
G37*
%TD*%
%TO.C,R5*%
G36*
G01*
X91636000Y-81476001D02*
X91636000Y-80575999D01*
G75*
G02*
X91885999Y-80326000I249999J0D01*
G01*
X92536001Y-80326000D01*
G75*
G02*
X92786000Y-80575999I0J-249999D01*
G01*
X92786000Y-81476001D01*
G75*
G02*
X92536001Y-81726000I-249999J0D01*
G01*
X91885999Y-81726000D01*
G75*
G02*
X91636000Y-81476001I0J249999D01*
G01*
G37*
G36*
G01*
X89586000Y-81476001D02*
X89586000Y-80575999D01*
G75*
G02*
X89835999Y-80326000I249999J0D01*
G01*
X90486001Y-80326000D01*
G75*
G02*
X90736000Y-80575999I0J-249999D01*
G01*
X90736000Y-81476001D01*
G75*
G02*
X90486001Y-81726000I-249999J0D01*
G01*
X89835999Y-81726000D01*
G75*
G02*
X89586000Y-81476001I0J249999D01*
G01*
G37*
%TD*%
%TO.C,R4*%
G36*
G01*
X96707000Y-101796001D02*
X96707000Y-100895999D01*
G75*
G02*
X96956999Y-100646000I249999J0D01*
G01*
X97607001Y-100646000D01*
G75*
G02*
X97857000Y-100895999I0J-249999D01*
G01*
X97857000Y-101796001D01*
G75*
G02*
X97607001Y-102046000I-249999J0D01*
G01*
X96956999Y-102046000D01*
G75*
G02*
X96707000Y-101796001I0J249999D01*
G01*
G37*
G36*
G01*
X94657000Y-101796001D02*
X94657000Y-100895999D01*
G75*
G02*
X94906999Y-100646000I249999J0D01*
G01*
X95557001Y-100646000D01*
G75*
G02*
X95807000Y-100895999I0J-249999D01*
G01*
X95807000Y-101796001D01*
G75*
G02*
X95557001Y-102046000I-249999J0D01*
G01*
X94906999Y-102046000D01*
G75*
G02*
X94657000Y-101796001I0J249999D01*
G01*
G37*
%TD*%
%TO.C,R3*%
G36*
G01*
X94657000Y-103828001D02*
X94657000Y-102927999D01*
G75*
G02*
X94906999Y-102678000I249999J0D01*
G01*
X95557001Y-102678000D01*
G75*
G02*
X95807000Y-102927999I0J-249999D01*
G01*
X95807000Y-103828001D01*
G75*
G02*
X95557001Y-104078000I-249999J0D01*
G01*
X94906999Y-104078000D01*
G75*
G02*
X94657000Y-103828001I0J249999D01*
G01*
G37*
G36*
G01*
X96707000Y-103828001D02*
X96707000Y-102927999D01*
G75*
G02*
X96956999Y-102678000I249999J0D01*
G01*
X97607001Y-102678000D01*
G75*
G02*
X97857000Y-102927999I0J-249999D01*
G01*
X97857000Y-103828001D01*
G75*
G02*
X97607001Y-104078000I-249999J0D01*
G01*
X96956999Y-104078000D01*
G75*
G02*
X96707000Y-103828001I0J249999D01*
G01*
G37*
%TD*%
%TO.C,R2*%
G36*
G01*
X67497000Y-82492001D02*
X67497000Y-81591999D01*
G75*
G02*
X67746999Y-81342000I249999J0D01*
G01*
X68397001Y-81342000D01*
G75*
G02*
X68647000Y-81591999I0J-249999D01*
G01*
X68647000Y-82492001D01*
G75*
G02*
X68397001Y-82742000I-249999J0D01*
G01*
X67746999Y-82742000D01*
G75*
G02*
X67497000Y-82492001I0J249999D01*
G01*
G37*
G36*
G01*
X65447000Y-82492001D02*
X65447000Y-81591999D01*
G75*
G02*
X65696999Y-81342000I249999J0D01*
G01*
X66347001Y-81342000D01*
G75*
G02*
X66597000Y-81591999I0J-249999D01*
G01*
X66597000Y-82492001D01*
G75*
G02*
X66347001Y-82742000I-249999J0D01*
G01*
X65696999Y-82742000D01*
G75*
G02*
X65447000Y-82492001I0J249999D01*
G01*
G37*
%TD*%
%TO.C,R1*%
G36*
G01*
X70670000Y-81591999D02*
X70670000Y-82492001D01*
G75*
G02*
X70420001Y-82742000I-249999J0D01*
G01*
X69769999Y-82742000D01*
G75*
G02*
X69520000Y-82492001I0J249999D01*
G01*
X69520000Y-81591999D01*
G75*
G02*
X69769999Y-81342000I249999J0D01*
G01*
X70420001Y-81342000D01*
G75*
G02*
X70670000Y-81591999I0J-249999D01*
G01*
G37*
G36*
G01*
X72720000Y-81591999D02*
X72720000Y-82492001D01*
G75*
G02*
X72470001Y-82742000I-249999J0D01*
G01*
X71819999Y-82742000D01*
G75*
G02*
X71570000Y-82492001I0J249999D01*
G01*
X71570000Y-81591999D01*
G75*
G02*
X71819999Y-81342000I249999J0D01*
G01*
X72470001Y-81342000D01*
G75*
G02*
X72720000Y-81591999I0J-249999D01*
G01*
G37*
%TD*%
D17*
%TO.C,Q1*%
X63730000Y-80010000D03*
X60730000Y-79060000D03*
X60730000Y-80960000D03*
%TD*%
D18*
%TO.C,K1*%
X56000000Y-73800000D03*
X56000000Y-70600000D03*
X56000000Y-68400000D03*
X56000000Y-66200000D03*
X64000000Y-66200000D03*
X64000000Y-68400000D03*
X64000000Y-70600000D03*
X64000000Y-73800000D03*
%TD*%
D19*
%TO.C,J6*%
X98552000Y-107016000D03*
X98552000Y-110916000D03*
X99822000Y-107016000D03*
X99822000Y-110916000D03*
X101092000Y-107016000D03*
X101092000Y-110916000D03*
%TD*%
%TO.C,C9*%
G36*
G01*
X65998000Y-131920000D02*
X67098000Y-131920000D01*
G75*
G02*
X67348000Y-132170000I0J-250000D01*
G01*
X67348000Y-135170000D01*
G75*
G02*
X67098000Y-135420000I-250000J0D01*
G01*
X65998000Y-135420000D01*
G75*
G02*
X65748000Y-135170000I0J250000D01*
G01*
X65748000Y-132170000D01*
G75*
G02*
X65998000Y-131920000I250000J0D01*
G01*
G37*
G36*
G01*
X65998000Y-126520000D02*
X67098000Y-126520000D01*
G75*
G02*
X67348000Y-126770000I0J-250000D01*
G01*
X67348000Y-129770000D01*
G75*
G02*
X67098000Y-130020000I-250000J0D01*
G01*
X65998000Y-130020000D01*
G75*
G02*
X65748000Y-129770000I0J250000D01*
G01*
X65748000Y-126770000D01*
G75*
G02*
X65998000Y-126520000I250000J0D01*
G01*
G37*
%TD*%
%TO.C,C8*%
G36*
G01*
X68023000Y-125672001D02*
X68023000Y-124771999D01*
G75*
G02*
X68272999Y-124522000I249999J0D01*
G01*
X68923001Y-124522000D01*
G75*
G02*
X69173000Y-124771999I0J-249999D01*
G01*
X69173000Y-125672001D01*
G75*
G02*
X68923001Y-125922000I-249999J0D01*
G01*
X68272999Y-125922000D01*
G75*
G02*
X68023000Y-125672001I0J249999D01*
G01*
G37*
G36*
G01*
X65973000Y-125672001D02*
X65973000Y-124771999D01*
G75*
G02*
X66222999Y-124522000I249999J0D01*
G01*
X66873001Y-124522000D01*
G75*
G02*
X67123000Y-124771999I0J-249999D01*
G01*
X67123000Y-125672001D01*
G75*
G02*
X66873001Y-125922000I-249999J0D01*
G01*
X66222999Y-125922000D01*
G75*
G02*
X65973000Y-125672001I0J249999D01*
G01*
G37*
%TD*%
%TO.C,C7*%
G36*
G01*
X61271999Y-121608000D02*
X62172001Y-121608000D01*
G75*
G02*
X62422000Y-121857999I0J-249999D01*
G01*
X62422000Y-122508001D01*
G75*
G02*
X62172001Y-122758000I-249999J0D01*
G01*
X61271999Y-122758000D01*
G75*
G02*
X61022000Y-122508001I0J249999D01*
G01*
X61022000Y-121857999D01*
G75*
G02*
X61271999Y-121608000I249999J0D01*
G01*
G37*
G36*
G01*
X61271999Y-119558000D02*
X62172001Y-119558000D01*
G75*
G02*
X62422000Y-119807999I0J-249999D01*
G01*
X62422000Y-120458001D01*
G75*
G02*
X62172001Y-120708000I-249999J0D01*
G01*
X61271999Y-120708000D01*
G75*
G02*
X61022000Y-120458001I0J249999D01*
G01*
X61022000Y-119807999D01*
G75*
G02*
X61271999Y-119558000I249999J0D01*
G01*
G37*
%TD*%
%TO.C,C6*%
G36*
G01*
X110294000Y-89973999D02*
X110294000Y-90874001D01*
G75*
G02*
X110044001Y-91124000I-249999J0D01*
G01*
X109393999Y-91124000D01*
G75*
G02*
X109144000Y-90874001I0J249999D01*
G01*
X109144000Y-89973999D01*
G75*
G02*
X109393999Y-89724000I249999J0D01*
G01*
X110044001Y-89724000D01*
G75*
G02*
X110294000Y-89973999I0J-249999D01*
G01*
G37*
G36*
G01*
X112344000Y-89973999D02*
X112344000Y-90874001D01*
G75*
G02*
X112094001Y-91124000I-249999J0D01*
G01*
X111443999Y-91124000D01*
G75*
G02*
X111194000Y-90874001I0J249999D01*
G01*
X111194000Y-89973999D01*
G75*
G02*
X111443999Y-89724000I249999J0D01*
G01*
X112094001Y-89724000D01*
G75*
G02*
X112344000Y-89973999I0J-249999D01*
G01*
G37*
%TD*%
%TO.C,C1*%
G36*
G01*
X130868000Y-89211999D02*
X130868000Y-90112001D01*
G75*
G02*
X130618001Y-90362000I-249999J0D01*
G01*
X129967999Y-90362000D01*
G75*
G02*
X129718000Y-90112001I0J249999D01*
G01*
X129718000Y-89211999D01*
G75*
G02*
X129967999Y-88962000I249999J0D01*
G01*
X130618001Y-88962000D01*
G75*
G02*
X130868000Y-89211999I0J-249999D01*
G01*
G37*
G36*
G01*
X132918000Y-89211999D02*
X132918000Y-90112001D01*
G75*
G02*
X132668001Y-90362000I-249999J0D01*
G01*
X132017999Y-90362000D01*
G75*
G02*
X131768000Y-90112001I0J249999D01*
G01*
X131768000Y-89211999D01*
G75*
G02*
X132017999Y-88962000I249999J0D01*
G01*
X132668001Y-88962000D01*
G75*
G02*
X132918000Y-89211999I0J-249999D01*
G01*
G37*
%TD*%
D12*
%TO.C,U1*%
X112220000Y-88265000D03*
X112220000Y-86995000D03*
X112220000Y-85725000D03*
X112220000Y-84455000D03*
X106220000Y-84455000D03*
X106220000Y-85725000D03*
X106220000Y-86995000D03*
X106220000Y-88265000D03*
%TD*%
%TO.C,C4*%
G36*
G01*
X101000000Y-70000000D02*
X99000000Y-70000000D01*
G75*
G02*
X98750000Y-69750000I0J250000D01*
G01*
X98750000Y-66250000D01*
G75*
G02*
X99000000Y-66000000I250000J0D01*
G01*
X101000000Y-66000000D01*
G75*
G02*
X101250000Y-66250000I0J-250000D01*
G01*
X101250000Y-69750000D01*
G75*
G02*
X101000000Y-70000000I-250000J0D01*
G01*
G37*
G36*
G01*
X101000000Y-78000000D02*
X99000000Y-78000000D01*
G75*
G02*
X98750000Y-77750000I0J250000D01*
G01*
X98750000Y-74250000D01*
G75*
G02*
X99000000Y-74000000I250000J0D01*
G01*
X101000000Y-74000000D01*
G75*
G02*
X101250000Y-74250000I0J-250000D01*
G01*
X101250000Y-77750000D01*
G75*
G02*
X101000000Y-78000000I-250000J0D01*
G01*
G37*
%TD*%
%TO.C,C3*%
G36*
G01*
X75000000Y-70000000D02*
X73000000Y-70000000D01*
G75*
G02*
X72750000Y-69750000I0J250000D01*
G01*
X72750000Y-66250000D01*
G75*
G02*
X73000000Y-66000000I250000J0D01*
G01*
X75000000Y-66000000D01*
G75*
G02*
X75250000Y-66250000I0J-250000D01*
G01*
X75250000Y-69750000D01*
G75*
G02*
X75000000Y-70000000I-250000J0D01*
G01*
G37*
G36*
G01*
X75000000Y-78000000D02*
X73000000Y-78000000D01*
G75*
G02*
X72750000Y-77750000I0J250000D01*
G01*
X72750000Y-74250000D01*
G75*
G02*
X73000000Y-74000000I250000J0D01*
G01*
X75000000Y-74000000D01*
G75*
G02*
X75250000Y-74250000I0J-250000D01*
G01*
X75250000Y-77750000D01*
G75*
G02*
X75000000Y-78000000I-250000J0D01*
G01*
G37*
%TD*%
%TO.C,C2*%
G36*
G01*
X83100000Y-88204000D02*
X82000000Y-88204000D01*
G75*
G02*
X81750000Y-87954000I0J250000D01*
G01*
X81750000Y-84954000D01*
G75*
G02*
X82000000Y-84704000I250000J0D01*
G01*
X83100000Y-84704000D01*
G75*
G02*
X83350000Y-84954000I0J-250000D01*
G01*
X83350000Y-87954000D01*
G75*
G02*
X83100000Y-88204000I-250000J0D01*
G01*
G37*
G36*
G01*
X83100000Y-93604000D02*
X82000000Y-93604000D01*
G75*
G02*
X81750000Y-93354000I0J250000D01*
G01*
X81750000Y-90354000D01*
G75*
G02*
X82000000Y-90104000I250000J0D01*
G01*
X83100000Y-90104000D01*
G75*
G02*
X83350000Y-90354000I0J-250000D01*
G01*
X83350000Y-93354000D01*
G75*
G02*
X83100000Y-93604000I-250000J0D01*
G01*
G37*
%TD*%
M02*
