%TF.GenerationSoftware,KiCad,Pcbnew,(5.1.6)-1*%
%TF.CreationDate,2020-10-02T15:44:05+02:00*%
%TF.ProjectId,PTnglieder,50546e67-6c69-4656-9465-722e6b696361,rev?*%
%TF.SameCoordinates,Original*%
%TF.FileFunction,Legend,Bot*%
%TF.FilePolarity,Positive*%
%FSLAX46Y46*%
G04 Gerber Fmt 4.6, Leading zero omitted, Abs format (unit mm)*
G04 Created by KiCad (PCBNEW (5.1.6)-1) date 2020-10-02 15:44:05*
%MOMM*%
%LPD*%
G01*
G04 APERTURE LIST*
%ADD10C,0.120000*%
%ADD11C,0.150000*%
G04 APERTURE END LIST*
D10*
%TO.C,J7*%
X81775000Y-123576000D02*
X81775000Y-123511000D01*
X78245000Y-123576000D02*
X78245000Y-123511000D01*
X81775000Y-129981000D02*
X81775000Y-129916000D01*
X78245000Y-129981000D02*
X78245000Y-129916000D01*
X76920000Y-129916000D02*
X78245000Y-129916000D01*
X78245000Y-123511000D02*
X81775000Y-123511000D01*
X78245000Y-129981000D02*
X81775000Y-129981000D01*
%TO.C,R15*%
X60698748Y-87936000D02*
X61221252Y-87936000D01*
X60698748Y-89356000D02*
X61221252Y-89356000D01*
%TO.C,U4*%
X110500000Y-95155000D02*
X113750000Y-95155000D01*
X105500000Y-95155000D02*
X109250000Y-95155000D01*
X100500000Y-95155000D02*
X104000000Y-95155000D01*
X95500000Y-95155000D02*
X99000000Y-95155000D01*
X90250000Y-95155000D02*
X94000000Y-95155000D01*
X88250000Y-95155000D02*
X89000000Y-95155000D01*
X88250000Y-95155000D02*
X88250000Y-104655000D01*
X88250000Y-104655000D02*
X113750000Y-104655000D01*
X113750000Y-104655000D02*
X113750000Y-95155000D01*
%TO.C,R14*%
X98813252Y-136854000D02*
X98290748Y-136854000D01*
X98813252Y-135434000D02*
X98290748Y-135434000D01*
%TO.C,C12*%
X102354748Y-135434000D02*
X102877252Y-135434000D01*
X102354748Y-136854000D02*
X102877252Y-136854000D01*
%TO.C,C11*%
X101505936Y-137520000D02*
X102710064Y-137520000D01*
X101505936Y-139340000D02*
X102710064Y-139340000D01*
%TO.C,C10*%
X95003252Y-136854000D02*
X94480748Y-136854000D01*
X95003252Y-135434000D02*
X94480748Y-135434000D01*
D11*
%TO.C,U5*%
X133053000Y-88028000D02*
X131653000Y-88028000D01*
X133053000Y-83023000D02*
X137203000Y-83023000D01*
X133053000Y-88173000D02*
X137203000Y-88173000D01*
X133053000Y-83023000D02*
X133053000Y-83168000D01*
X137203000Y-83023000D02*
X137203000Y-83168000D01*
X137203000Y-88173000D02*
X137203000Y-88028000D01*
X133053000Y-88173000D02*
X133053000Y-88028000D01*
D10*
%TO.C,U6*%
X104990000Y-132485000D02*
X104990000Y-132865000D01*
X111410000Y-132485000D02*
X104990000Y-132485000D01*
X111410000Y-114245000D02*
X104990000Y-114245000D01*
X111410000Y-132485000D02*
X111410000Y-114245000D01*
X85665000Y-114245000D02*
X85665000Y-115245000D01*
X86445000Y-114245000D02*
X85665000Y-114245000D01*
X85665000Y-132485000D02*
X85665000Y-131485000D01*
X86445000Y-132485000D02*
X85665000Y-132485000D01*
%TO.C,J5*%
X52455000Y-118950000D02*
X50555000Y-118950000D01*
X56355000Y-118950000D02*
X54355000Y-118950000D01*
X52455000Y-109550000D02*
X50555000Y-109550000D01*
X56355000Y-109550000D02*
X54355000Y-109550000D01*
X50555000Y-118950000D02*
X50555000Y-109550000D01*
%TO.C,C5*%
X120740000Y-66740000D02*
X124490000Y-66740000D01*
X131260000Y-66740000D02*
X127510000Y-66740000D01*
X131260000Y-76195563D02*
X131260000Y-66740000D01*
X120740000Y-76195563D02*
X120740000Y-66740000D01*
X121804437Y-77260000D02*
X124490000Y-77260000D01*
X130195563Y-77260000D02*
X127510000Y-77260000D01*
X130195563Y-77260000D02*
X131260000Y-76195563D01*
X121804437Y-77260000D02*
X120740000Y-76195563D01*
X128760000Y-78750000D02*
X128760000Y-77500000D01*
X129385000Y-78125000D02*
X128135000Y-78125000D01*
%TO.C,U3*%
X63138000Y-116708000D02*
X64398000Y-116708000D01*
X69958000Y-116708000D02*
X68698000Y-116708000D01*
X63138000Y-120468000D02*
X63138000Y-116708000D01*
X69958000Y-122718000D02*
X69958000Y-116708000D01*
%TO.C,U2*%
X61052000Y-95143000D02*
X60552000Y-95143000D01*
X66052000Y-95143000D02*
X62552000Y-95143000D01*
X71302000Y-95143000D02*
X67552000Y-95143000D01*
X60552000Y-112143000D02*
X60552000Y-95143000D01*
X84052000Y-112143000D02*
X60552000Y-112143000D01*
X84052000Y-95143000D02*
X84052000Y-112143000D01*
X72552000Y-95143000D02*
X84052000Y-95143000D01*
%TO.C,R13*%
X74160748Y-54916000D02*
X74683252Y-54916000D01*
X74160748Y-56336000D02*
X74683252Y-56336000D01*
%TO.C,R12*%
X70350748Y-54916000D02*
X70873252Y-54916000D01*
X70350748Y-56336000D02*
X70873252Y-56336000D01*
%TO.C,R11*%
X66540748Y-54916000D02*
X67063252Y-54916000D01*
X66540748Y-56336000D02*
X67063252Y-56336000D01*
%TO.C,R10*%
X62739748Y-54916000D02*
X63262252Y-54916000D01*
X62739748Y-56336000D02*
X63262252Y-56336000D01*
%TO.C,R9*%
X55379252Y-121360000D02*
X54856748Y-121360000D01*
X55379252Y-119940000D02*
X54856748Y-119940000D01*
%TO.C,R8*%
X54856748Y-122480000D02*
X55379252Y-122480000D01*
X54856748Y-123900000D02*
X55379252Y-123900000D01*
%TO.C,R7*%
X59428748Y-82094000D02*
X59951252Y-82094000D01*
X59428748Y-83514000D02*
X59951252Y-83514000D01*
%TO.C,R6*%
X116638000Y-80525252D02*
X116638000Y-80002748D01*
X118058000Y-80525252D02*
X118058000Y-80002748D01*
%TO.C,R5*%
X90924748Y-80316000D02*
X91447252Y-80316000D01*
X90924748Y-81736000D02*
X91447252Y-81736000D01*
%TO.C,R4*%
X95995748Y-100636000D02*
X96518252Y-100636000D01*
X95995748Y-102056000D02*
X96518252Y-102056000D01*
%TO.C,R3*%
X95995748Y-104088000D02*
X96518252Y-104088000D01*
X95995748Y-102668000D02*
X96518252Y-102668000D01*
%TO.C,R2*%
X66785748Y-81332000D02*
X67308252Y-81332000D01*
X66785748Y-82752000D02*
X67308252Y-82752000D01*
%TO.C,R1*%
X71381252Y-82752000D02*
X70858748Y-82752000D01*
X71381252Y-81332000D02*
X70858748Y-81332000D01*
%TO.C,Q1*%
X62990000Y-78430000D02*
X61530000Y-78430000D01*
X62990000Y-81590000D02*
X59830000Y-81590000D01*
X62990000Y-81590000D02*
X62990000Y-80660000D01*
X62990000Y-78430000D02*
X62990000Y-79360000D01*
%TO.C,K1*%
X56700000Y-73090000D02*
X56100000Y-73090000D01*
X56700000Y-74590000D02*
X56100000Y-74590000D01*
X56700000Y-75090000D02*
X56700000Y-74590000D01*
X56700000Y-71690000D02*
X56700000Y-73090000D01*
X56660000Y-69200000D02*
X56660000Y-70000000D01*
X56660000Y-67000000D02*
X56660000Y-67600000D01*
X56660000Y-64900000D02*
X56660000Y-65400000D01*
X63360000Y-64900000D02*
X56660000Y-64900000D01*
X63360000Y-65400000D02*
X63360000Y-64900000D01*
X63360000Y-67600000D02*
X63360000Y-67000000D01*
X63360000Y-70000000D02*
X63360000Y-69200000D01*
X63360000Y-73000000D02*
X63360000Y-71600000D01*
X63360000Y-75100000D02*
X63360000Y-74600000D01*
X56700000Y-75090000D02*
X63360000Y-75100000D01*
%TO.C,JP2*%
X67180000Y-59420000D02*
X69980000Y-59420000D01*
X70630000Y-58720000D02*
X70630000Y-58120000D01*
X69980000Y-57420000D02*
X67180000Y-57420000D01*
X66530000Y-58120000D02*
X66530000Y-58720000D01*
X66530000Y-58720000D02*
G75*
G03*
X67230000Y-59420000I700000J0D01*
G01*
X67230000Y-57420000D02*
G75*
G03*
X66530000Y-58120000I0J-700000D01*
G01*
X70630000Y-58120000D02*
G75*
G03*
X69930000Y-57420000I-700000J0D01*
G01*
X69930000Y-59420000D02*
G75*
G03*
X70630000Y-58720000I0J700000D01*
G01*
%TO.C,JP1*%
X62354000Y-59420000D02*
X65154000Y-59420000D01*
X65804000Y-58720000D02*
X65804000Y-58120000D01*
X65154000Y-57420000D02*
X62354000Y-57420000D01*
X61704000Y-58120000D02*
X61704000Y-58720000D01*
X61704000Y-58720000D02*
G75*
G03*
X62404000Y-59420000I700000J0D01*
G01*
X62404000Y-57420000D02*
G75*
G03*
X61704000Y-58120000I0J-700000D01*
G01*
X65804000Y-58120000D02*
G75*
G03*
X65104000Y-57420000I-700000J0D01*
G01*
X65104000Y-59420000D02*
G75*
G03*
X65804000Y-58720000I0J700000D01*
G01*
%TO.C,J6*%
X97922000Y-107201000D02*
X97857000Y-107201000D01*
X97922000Y-110731000D02*
X97857000Y-110731000D01*
X101787000Y-107201000D02*
X101722000Y-107201000D01*
X101787000Y-110731000D02*
X101722000Y-110731000D01*
X101722000Y-112056000D02*
X101722000Y-110731000D01*
X97857000Y-110731000D02*
X97857000Y-107201000D01*
X101787000Y-110731000D02*
X101787000Y-107201000D01*
%TO.C,C9*%
X64306750Y-126926250D02*
X65094250Y-126926250D01*
X64700500Y-126532500D02*
X64700500Y-127320000D01*
X68893563Y-127560000D02*
X69958000Y-128624437D01*
X64202437Y-127560000D02*
X63138000Y-128624437D01*
X64202437Y-127560000D02*
X65488000Y-127560000D01*
X68893563Y-127560000D02*
X67608000Y-127560000D01*
X69958000Y-128624437D02*
X69958000Y-134380000D01*
X63138000Y-128624437D02*
X63138000Y-134380000D01*
X63138000Y-134380000D02*
X65488000Y-134380000D01*
X69958000Y-134380000D02*
X67608000Y-134380000D01*
%TO.C,C8*%
X67311748Y-124512000D02*
X67834252Y-124512000D01*
X67311748Y-125932000D02*
X67834252Y-125932000D01*
%TO.C,C7*%
X62432000Y-120896748D02*
X62432000Y-121419252D01*
X61012000Y-120896748D02*
X61012000Y-121419252D01*
%TO.C,C6*%
X111005252Y-91134000D02*
X110482748Y-91134000D01*
X111005252Y-89714000D02*
X110482748Y-89714000D01*
%TO.C,C1*%
X131579252Y-90372000D02*
X131056748Y-90372000D01*
X131579252Y-88952000D02*
X131056748Y-88952000D01*
D11*
%TO.C,U1*%
X107145000Y-88935000D02*
X107145000Y-88790000D01*
X111295000Y-88935000D02*
X111295000Y-88790000D01*
X111295000Y-83785000D02*
X111295000Y-83930000D01*
X107145000Y-83785000D02*
X107145000Y-83930000D01*
X107145000Y-88935000D02*
X111295000Y-88935000D01*
X107145000Y-83785000D02*
X111295000Y-83785000D01*
X107145000Y-88790000D02*
X105745000Y-88790000D01*
D10*
%TO.C,C4*%
X94740000Y-66740000D02*
X98490000Y-66740000D01*
X105260000Y-66740000D02*
X101510000Y-66740000D01*
X105260000Y-76195563D02*
X105260000Y-66740000D01*
X94740000Y-76195563D02*
X94740000Y-66740000D01*
X95804437Y-77260000D02*
X98490000Y-77260000D01*
X104195563Y-77260000D02*
X101510000Y-77260000D01*
X104195563Y-77260000D02*
X105260000Y-76195563D01*
X95804437Y-77260000D02*
X94740000Y-76195563D01*
X102760000Y-78750000D02*
X102760000Y-77500000D01*
X103385000Y-78125000D02*
X102135000Y-78125000D01*
%TO.C,C3*%
X68740000Y-66740000D02*
X72490000Y-66740000D01*
X79260000Y-66740000D02*
X75510000Y-66740000D01*
X79260000Y-76195563D02*
X79260000Y-66740000D01*
X68740000Y-76195563D02*
X68740000Y-66740000D01*
X69804437Y-77260000D02*
X72490000Y-77260000D01*
X78195563Y-77260000D02*
X75510000Y-77260000D01*
X78195563Y-77260000D02*
X79260000Y-76195563D01*
X69804437Y-77260000D02*
X68740000Y-76195563D01*
X76760000Y-78750000D02*
X76760000Y-77500000D01*
X77385000Y-78125000D02*
X76135000Y-78125000D01*
%TO.C,C2*%
X79140000Y-85744000D02*
X81490000Y-85744000D01*
X85960000Y-85744000D02*
X83610000Y-85744000D01*
X85960000Y-91499563D02*
X85960000Y-85744000D01*
X79140000Y-91499563D02*
X79140000Y-85744000D01*
X80204437Y-92564000D02*
X81490000Y-92564000D01*
X84895563Y-92564000D02*
X83610000Y-92564000D01*
X84895563Y-92564000D02*
X85960000Y-91499563D01*
X80204437Y-92564000D02*
X79140000Y-91499563D01*
X84397500Y-93591500D02*
X84397500Y-92804000D01*
X84791250Y-93197750D02*
X84003750Y-93197750D01*
%TO.C,J7*%
D11*
X82248095Y-122963380D02*
X82248095Y-121963380D01*
X82010000Y-121963380D01*
X81867142Y-122011000D01*
X81771904Y-122106238D01*
X81724285Y-122201476D01*
X81676666Y-122391952D01*
X81676666Y-122534809D01*
X81724285Y-122725285D01*
X81771904Y-122820523D01*
X81867142Y-122915761D01*
X82010000Y-122963380D01*
X82248095Y-122963380D01*
X81248095Y-122439571D02*
X80914761Y-122439571D01*
X80771904Y-122963380D02*
X81248095Y-122963380D01*
X81248095Y-121963380D01*
X80771904Y-121963380D01*
X80010000Y-122439571D02*
X79867142Y-122487190D01*
X79819523Y-122534809D01*
X79771904Y-122630047D01*
X79771904Y-122772904D01*
X79819523Y-122868142D01*
X79867142Y-122915761D01*
X79962380Y-122963380D01*
X80343333Y-122963380D01*
X80343333Y-121963380D01*
X80010000Y-121963380D01*
X79914761Y-122011000D01*
X79867142Y-122058619D01*
X79819523Y-122153857D01*
X79819523Y-122249095D01*
X79867142Y-122344333D01*
X79914761Y-122391952D01*
X80010000Y-122439571D01*
X80343333Y-122439571D01*
X79343333Y-121963380D02*
X79343333Y-122772904D01*
X79295714Y-122868142D01*
X79248095Y-122915761D01*
X79152857Y-122963380D01*
X78962380Y-122963380D01*
X78867142Y-122915761D01*
X78819523Y-122868142D01*
X78771904Y-122772904D01*
X78771904Y-121963380D01*
X77771904Y-122011000D02*
X77867142Y-121963380D01*
X78010000Y-121963380D01*
X78152857Y-122011000D01*
X78248095Y-122106238D01*
X78295714Y-122201476D01*
X78343333Y-122391952D01*
X78343333Y-122534809D01*
X78295714Y-122725285D01*
X78248095Y-122820523D01*
X78152857Y-122915761D01*
X78010000Y-122963380D01*
X77914761Y-122963380D01*
X77771904Y-122915761D01*
X77724285Y-122868142D01*
X77724285Y-122534809D01*
X77914761Y-122534809D01*
%TO.C,R15*%
X62079047Y-90702380D02*
X62079047Y-89702380D01*
X61983809Y-90321428D02*
X61698095Y-90702380D01*
X61698095Y-90035714D02*
X62079047Y-90416666D01*
X61317142Y-89797619D02*
X61269523Y-89750000D01*
X61174285Y-89702380D01*
X60936190Y-89702380D01*
X60840952Y-89750000D01*
X60793333Y-89797619D01*
X60745714Y-89892857D01*
X60745714Y-89988095D01*
X60793333Y-90130952D01*
X61364761Y-90702380D01*
X60745714Y-90702380D01*
X60364761Y-89797619D02*
X60317142Y-89750000D01*
X60221904Y-89702380D01*
X59983809Y-89702380D01*
X59888571Y-89750000D01*
X59840952Y-89797619D01*
X59793333Y-89892857D01*
X59793333Y-89988095D01*
X59840952Y-90130952D01*
X60412380Y-90702380D01*
X59793333Y-90702380D01*
%TO.C,U4*%
X86692380Y-95893095D02*
X87501904Y-95893095D01*
X87597142Y-95940714D01*
X87644761Y-95988333D01*
X87692380Y-96083571D01*
X87692380Y-96274047D01*
X87644761Y-96369285D01*
X87597142Y-96416904D01*
X87501904Y-96464523D01*
X86692380Y-96464523D01*
X87025714Y-97369285D02*
X87692380Y-97369285D01*
X86644761Y-97131190D02*
X87359047Y-96893095D01*
X87359047Y-97512142D01*
%TO.C,R14*%
X99147238Y-138246380D02*
X99718666Y-138246380D01*
X99432952Y-138246380D02*
X99432952Y-137246380D01*
X99528190Y-137389238D01*
X99623428Y-137484476D01*
X99718666Y-137532095D01*
X98528190Y-137246380D02*
X98432952Y-137246380D01*
X98337714Y-137294000D01*
X98290095Y-137341619D01*
X98242476Y-137436857D01*
X98194857Y-137627333D01*
X98194857Y-137865428D01*
X98242476Y-138055904D01*
X98290095Y-138151142D01*
X98337714Y-138198761D01*
X98432952Y-138246380D01*
X98528190Y-138246380D01*
X98623428Y-138198761D01*
X98671047Y-138151142D01*
X98718666Y-138055904D01*
X98766285Y-137865428D01*
X98766285Y-137627333D01*
X98718666Y-137436857D01*
X98671047Y-137341619D01*
X98623428Y-137294000D01*
X98528190Y-137246380D01*
X97766285Y-138246380D02*
X97766285Y-137246380D01*
X97671047Y-137865428D02*
X97385333Y-138246380D01*
X97385333Y-137579714D02*
X97766285Y-137960666D01*
%TO.C,C12*%
X105925904Y-135929714D02*
X105925904Y-136596380D01*
X106354476Y-135929714D02*
X106354476Y-136453523D01*
X106306857Y-136548761D01*
X106211619Y-136596380D01*
X106068761Y-136596380D01*
X105973523Y-136548761D01*
X105925904Y-136501142D01*
X104925904Y-136596380D02*
X105497333Y-136596380D01*
X105211619Y-136596380D02*
X105211619Y-135596380D01*
X105306857Y-135739238D01*
X105402095Y-135834476D01*
X105497333Y-135882095D01*
%TO.C,C11*%
X107132285Y-137977619D02*
X107084666Y-137930000D01*
X106989428Y-137882380D01*
X106751333Y-137882380D01*
X106656095Y-137930000D01*
X106608476Y-137977619D01*
X106560857Y-138072857D01*
X106560857Y-138168095D01*
X106608476Y-138310952D01*
X107179904Y-138882380D01*
X106560857Y-138882380D01*
X106179904Y-137977619D02*
X106132285Y-137930000D01*
X106037047Y-137882380D01*
X105798952Y-137882380D01*
X105703714Y-137930000D01*
X105656095Y-137977619D01*
X105608476Y-138072857D01*
X105608476Y-138168095D01*
X105656095Y-138310952D01*
X106227523Y-138882380D01*
X105608476Y-138882380D01*
X104751333Y-138215714D02*
X104751333Y-138882380D01*
X105179904Y-138215714D02*
X105179904Y-138739523D01*
X105132285Y-138834761D01*
X105037047Y-138882380D01*
X104894190Y-138882380D01*
X104798952Y-138834761D01*
X104751333Y-138787142D01*
%TO.C,C10*%
X95003904Y-137579714D02*
X95003904Y-138246380D01*
X95432476Y-137579714D02*
X95432476Y-138103523D01*
X95384857Y-138198761D01*
X95289619Y-138246380D01*
X95146761Y-138246380D01*
X95051523Y-138198761D01*
X95003904Y-138151142D01*
X94003904Y-138246380D02*
X94575333Y-138246380D01*
X94289619Y-138246380D02*
X94289619Y-137246380D01*
X94384857Y-137389238D01*
X94480095Y-137484476D01*
X94575333Y-137532095D01*
%TO.C,U5*%
X136818476Y-82550380D02*
X137294666Y-82550380D01*
X137294666Y-81550380D01*
X136485142Y-82550380D02*
X136485142Y-81550380D01*
X136151809Y-82264666D01*
X135818476Y-81550380D01*
X135818476Y-82550380D01*
X135437523Y-81550380D02*
X134818476Y-81550380D01*
X135151809Y-81931333D01*
X135008952Y-81931333D01*
X134913714Y-81978952D01*
X134866095Y-82026571D01*
X134818476Y-82121809D01*
X134818476Y-82359904D01*
X134866095Y-82455142D01*
X134913714Y-82502761D01*
X135008952Y-82550380D01*
X135294666Y-82550380D01*
X135389904Y-82502761D01*
X135437523Y-82455142D01*
X133913714Y-81550380D02*
X134389904Y-81550380D01*
X134437523Y-82026571D01*
X134389904Y-81978952D01*
X134294666Y-81931333D01*
X134056571Y-81931333D01*
X133961333Y-81978952D01*
X133913714Y-82026571D01*
X133866095Y-82121809D01*
X133866095Y-82359904D01*
X133913714Y-82455142D01*
X133961333Y-82502761D01*
X134056571Y-82550380D01*
X134294666Y-82550380D01*
X134389904Y-82502761D01*
X134437523Y-82455142D01*
X133294666Y-81978952D02*
X133389904Y-81931333D01*
X133437523Y-81883714D01*
X133485142Y-81788476D01*
X133485142Y-81740857D01*
X133437523Y-81645619D01*
X133389904Y-81598000D01*
X133294666Y-81550380D01*
X133104190Y-81550380D01*
X133008952Y-81598000D01*
X132961333Y-81645619D01*
X132913714Y-81740857D01*
X132913714Y-81788476D01*
X132961333Y-81883714D01*
X133008952Y-81931333D01*
X133104190Y-81978952D01*
X133294666Y-81978952D01*
X133389904Y-82026571D01*
X133437523Y-82074190D01*
X133485142Y-82169428D01*
X133485142Y-82359904D01*
X133437523Y-82455142D01*
X133389904Y-82502761D01*
X133294666Y-82550380D01*
X133104190Y-82550380D01*
X133008952Y-82502761D01*
X132961333Y-82455142D01*
X132913714Y-82359904D01*
X132913714Y-82169428D01*
X132961333Y-82074190D01*
X133008952Y-82026571D01*
X133104190Y-81978952D01*
%TO.C,C5*%
X119585714Y-70785714D02*
X120252380Y-70785714D01*
X119204761Y-70547619D02*
X119919047Y-70309523D01*
X119919047Y-70928571D01*
X119252380Y-71214285D02*
X119252380Y-71880952D01*
X120252380Y-71452380D01*
X119252380Y-72452380D02*
X119252380Y-72547619D01*
X119300000Y-72642857D01*
X119347619Y-72690476D01*
X119442857Y-72738095D01*
X119633333Y-72785714D01*
X119871428Y-72785714D01*
X120061904Y-72738095D01*
X120157142Y-72690476D01*
X120204761Y-72642857D01*
X120252380Y-72547619D01*
X120252380Y-72452380D01*
X120204761Y-72357142D01*
X120157142Y-72309523D01*
X120061904Y-72261904D01*
X119871428Y-72214285D01*
X119633333Y-72214285D01*
X119442857Y-72261904D01*
X119347619Y-72309523D01*
X119300000Y-72357142D01*
X119252380Y-72452380D01*
X119585714Y-73642857D02*
X120252380Y-73642857D01*
X119585714Y-73214285D02*
X120109523Y-73214285D01*
X120204761Y-73261904D01*
X120252380Y-73357142D01*
X120252380Y-73500000D01*
X120204761Y-73595238D01*
X120157142Y-73642857D01*
%TO.C,U3*%
X71032666Y-113618000D02*
X71032666Y-114094190D01*
X71318380Y-113522761D02*
X70318380Y-113856095D01*
X71318380Y-114189428D01*
X71318380Y-114522761D02*
X70318380Y-114522761D01*
X71032666Y-114856095D01*
X70318380Y-115189428D01*
X71318380Y-115189428D01*
X71270761Y-115618000D02*
X71318380Y-115760857D01*
X71318380Y-115998952D01*
X71270761Y-116094190D01*
X71223142Y-116141809D01*
X71127904Y-116189428D01*
X71032666Y-116189428D01*
X70937428Y-116141809D01*
X70889809Y-116094190D01*
X70842190Y-115998952D01*
X70794571Y-115808476D01*
X70746952Y-115713238D01*
X70699333Y-115665619D01*
X70604095Y-115618000D01*
X70508857Y-115618000D01*
X70413619Y-115665619D01*
X70366000Y-115713238D01*
X70318380Y-115808476D01*
X70318380Y-116046571D01*
X70366000Y-116189428D01*
X71318380Y-117141809D02*
X71318380Y-116570380D01*
X71318380Y-116856095D02*
X70318380Y-116856095D01*
X70461238Y-116760857D01*
X70556476Y-116665619D01*
X70604095Y-116570380D01*
X71318380Y-118094190D02*
X71318380Y-117522761D01*
X71318380Y-117808476D02*
X70318380Y-117808476D01*
X70461238Y-117713238D01*
X70556476Y-117618000D01*
X70604095Y-117522761D01*
X71318380Y-119046571D02*
X71318380Y-118475142D01*
X71318380Y-118760857D02*
X70318380Y-118760857D01*
X70461238Y-118665619D01*
X70556476Y-118570380D01*
X70604095Y-118475142D01*
X70318380Y-119379904D02*
X70318380Y-120046571D01*
X71318380Y-119618000D01*
X70937428Y-120427523D02*
X70937428Y-121189428D01*
X70318380Y-121570380D02*
X70318380Y-122189428D01*
X70699333Y-121856095D01*
X70699333Y-121998952D01*
X70746952Y-122094190D01*
X70794571Y-122141809D01*
X70889809Y-122189428D01*
X71127904Y-122189428D01*
X71223142Y-122141809D01*
X71270761Y-122094190D01*
X71318380Y-121998952D01*
X71318380Y-121713238D01*
X71270761Y-121618000D01*
X71223142Y-121570380D01*
X71223142Y-122618000D02*
X71270761Y-122665619D01*
X71318380Y-122618000D01*
X71270761Y-122570380D01*
X71223142Y-122618000D01*
X71318380Y-122618000D01*
X70318380Y-122998952D02*
X70318380Y-123618000D01*
X70699333Y-123284666D01*
X70699333Y-123427523D01*
X70746952Y-123522761D01*
X70794571Y-123570380D01*
X70889809Y-123618000D01*
X71127904Y-123618000D01*
X71223142Y-123570380D01*
X71270761Y-123522761D01*
X71318380Y-123427523D01*
X71318380Y-123141809D01*
X71270761Y-123046571D01*
X71223142Y-122998952D01*
%TO.C,U2*%
X58844380Y-95881095D02*
X59653904Y-95881095D01*
X59749142Y-95928714D01*
X59796761Y-95976333D01*
X59844380Y-96071571D01*
X59844380Y-96262047D01*
X59796761Y-96357285D01*
X59749142Y-96404904D01*
X59653904Y-96452523D01*
X58844380Y-96452523D01*
X58939619Y-96881095D02*
X58892000Y-96928714D01*
X58844380Y-97023952D01*
X58844380Y-97262047D01*
X58892000Y-97357285D01*
X58939619Y-97404904D01*
X59034857Y-97452523D01*
X59130095Y-97452523D01*
X59272952Y-97404904D01*
X59844380Y-96833476D01*
X59844380Y-97452523D01*
%TO.C,R13*%
X74541047Y-54428380D02*
X75112476Y-54428380D01*
X74826761Y-54428380D02*
X74826761Y-53428380D01*
X74922000Y-53571238D01*
X75017238Y-53666476D01*
X75112476Y-53714095D01*
X74112476Y-54428380D02*
X74112476Y-53428380D01*
X74017238Y-54047428D02*
X73731523Y-54428380D01*
X73731523Y-53761714D02*
X74112476Y-54142666D01*
%TO.C,R12*%
X71778666Y-53523619D02*
X71731047Y-53476000D01*
X71635809Y-53428380D01*
X71397714Y-53428380D01*
X71302476Y-53476000D01*
X71254857Y-53523619D01*
X71207238Y-53618857D01*
X71207238Y-53714095D01*
X71254857Y-53856952D01*
X71826285Y-54428380D01*
X71207238Y-54428380D01*
X70778666Y-54428380D02*
X70778666Y-53428380D01*
X70683428Y-54047428D02*
X70397714Y-54428380D01*
X70397714Y-53761714D02*
X70778666Y-54142666D01*
X70016761Y-53523619D02*
X69969142Y-53476000D01*
X69873904Y-53428380D01*
X69635809Y-53428380D01*
X69540571Y-53476000D01*
X69492952Y-53523619D01*
X69445333Y-53618857D01*
X69445333Y-53714095D01*
X69492952Y-53856952D01*
X70064380Y-54428380D01*
X69445333Y-54428380D01*
%TO.C,R11*%
X67444857Y-57728380D02*
X67778190Y-57252190D01*
X68016285Y-57728380D02*
X68016285Y-56728380D01*
X67635333Y-56728380D01*
X67540095Y-56776000D01*
X67492476Y-56823619D01*
X67444857Y-56918857D01*
X67444857Y-57061714D01*
X67492476Y-57156952D01*
X67540095Y-57204571D01*
X67635333Y-57252190D01*
X68016285Y-57252190D01*
X66492476Y-57728380D02*
X67063904Y-57728380D01*
X66778190Y-57728380D02*
X66778190Y-56728380D01*
X66873428Y-56871238D01*
X66968666Y-56966476D01*
X67063904Y-57014095D01*
X65540095Y-57728380D02*
X66111523Y-57728380D01*
X65825809Y-57728380D02*
X65825809Y-56728380D01*
X65921047Y-56871238D01*
X66016285Y-56966476D01*
X66111523Y-57014095D01*
%TO.C,R10*%
X63643857Y-57728380D02*
X63977190Y-57252190D01*
X64215285Y-57728380D02*
X64215285Y-56728380D01*
X63834333Y-56728380D01*
X63739095Y-56776000D01*
X63691476Y-56823619D01*
X63643857Y-56918857D01*
X63643857Y-57061714D01*
X63691476Y-57156952D01*
X63739095Y-57204571D01*
X63834333Y-57252190D01*
X64215285Y-57252190D01*
X62691476Y-57728380D02*
X63262904Y-57728380D01*
X62977190Y-57728380D02*
X62977190Y-56728380D01*
X63072428Y-56871238D01*
X63167666Y-56966476D01*
X63262904Y-57014095D01*
X62072428Y-56728380D02*
X61977190Y-56728380D01*
X61881952Y-56776000D01*
X61834333Y-56823619D01*
X61786714Y-56918857D01*
X61739095Y-57109333D01*
X61739095Y-57347428D01*
X61786714Y-57537904D01*
X61834333Y-57633142D01*
X61881952Y-57680761D01*
X61977190Y-57728380D01*
X62072428Y-57728380D01*
X62167666Y-57680761D01*
X62215285Y-57633142D01*
X62262904Y-57537904D01*
X62310523Y-57347428D01*
X62310523Y-57109333D01*
X62262904Y-56918857D01*
X62215285Y-56823619D01*
X62167666Y-56776000D01*
X62072428Y-56728380D01*
%TO.C,R9*%
X55760857Y-125690380D02*
X56237047Y-125690380D01*
X56284666Y-126166571D01*
X56237047Y-126118952D01*
X56141809Y-126071333D01*
X55903714Y-126071333D01*
X55808476Y-126118952D01*
X55760857Y-126166571D01*
X55713238Y-126261809D01*
X55713238Y-126499904D01*
X55760857Y-126595142D01*
X55808476Y-126642761D01*
X55903714Y-126690380D01*
X56141809Y-126690380D01*
X56237047Y-126642761D01*
X56284666Y-126595142D01*
X55284666Y-126690380D02*
X55284666Y-125690380D01*
X55189428Y-126309428D02*
X54903714Y-126690380D01*
X54903714Y-126023714D02*
X55284666Y-126404666D01*
X53951333Y-126690380D02*
X54522761Y-126690380D01*
X54237047Y-126690380D02*
X54237047Y-125690380D01*
X54332285Y-125833238D01*
X54427523Y-125928476D01*
X54522761Y-125976095D01*
%TO.C,R8*%
X55760857Y-124332380D02*
X56237047Y-124332380D01*
X56284666Y-124808571D01*
X56237047Y-124760952D01*
X56141809Y-124713333D01*
X55903714Y-124713333D01*
X55808476Y-124760952D01*
X55760857Y-124808571D01*
X55713238Y-124903809D01*
X55713238Y-125141904D01*
X55760857Y-125237142D01*
X55808476Y-125284761D01*
X55903714Y-125332380D01*
X56141809Y-125332380D01*
X56237047Y-125284761D01*
X56284666Y-125237142D01*
X55284666Y-125332380D02*
X55284666Y-124332380D01*
X55189428Y-124951428D02*
X54903714Y-125332380D01*
X54903714Y-124665714D02*
X55284666Y-125046666D01*
X53951333Y-125332380D02*
X54522761Y-125332380D01*
X54237047Y-125332380D02*
X54237047Y-124332380D01*
X54332285Y-124475238D01*
X54427523Y-124570476D01*
X54522761Y-124618095D01*
%TO.C,R7*%
X59809047Y-85034380D02*
X60380476Y-85034380D01*
X60094761Y-85034380D02*
X60094761Y-84034380D01*
X60190000Y-84177238D01*
X60285238Y-84272476D01*
X60380476Y-84320095D01*
X59380476Y-85034380D02*
X59380476Y-84034380D01*
X59285238Y-84653428D02*
X58999523Y-85034380D01*
X58999523Y-84367714D02*
X59380476Y-84748666D01*
%TO.C,R6*%
X117943238Y-83256380D02*
X118514666Y-83256380D01*
X118228952Y-83256380D02*
X118228952Y-82256380D01*
X118324190Y-82399238D01*
X118419428Y-82494476D01*
X118514666Y-82542095D01*
X117324190Y-82256380D02*
X117228952Y-82256380D01*
X117133714Y-82304000D01*
X117086095Y-82351619D01*
X117038476Y-82446857D01*
X116990857Y-82637333D01*
X116990857Y-82875428D01*
X117038476Y-83065904D01*
X117086095Y-83161142D01*
X117133714Y-83208761D01*
X117228952Y-83256380D01*
X117324190Y-83256380D01*
X117419428Y-83208761D01*
X117467047Y-83161142D01*
X117514666Y-83065904D01*
X117562285Y-82875428D01*
X117562285Y-82637333D01*
X117514666Y-82446857D01*
X117467047Y-82351619D01*
X117419428Y-82304000D01*
X117324190Y-82256380D01*
X116562285Y-83256380D02*
X116562285Y-82256380D01*
X116467047Y-82875428D02*
X116181333Y-83256380D01*
X116181333Y-82589714D02*
X116562285Y-82970666D01*
%TO.C,R5*%
X91781238Y-79828380D02*
X92352666Y-79828380D01*
X92066952Y-79828380D02*
X92066952Y-78828380D01*
X92162190Y-78971238D01*
X92257428Y-79066476D01*
X92352666Y-79114095D01*
X91162190Y-78828380D02*
X91066952Y-78828380D01*
X90971714Y-78876000D01*
X90924095Y-78923619D01*
X90876476Y-79018857D01*
X90828857Y-79209333D01*
X90828857Y-79447428D01*
X90876476Y-79637904D01*
X90924095Y-79733142D01*
X90971714Y-79780761D01*
X91066952Y-79828380D01*
X91162190Y-79828380D01*
X91257428Y-79780761D01*
X91305047Y-79733142D01*
X91352666Y-79637904D01*
X91400285Y-79447428D01*
X91400285Y-79209333D01*
X91352666Y-79018857D01*
X91305047Y-78923619D01*
X91257428Y-78876000D01*
X91162190Y-78828380D01*
X90400285Y-79828380D02*
X90400285Y-78828380D01*
X90305047Y-79447428D02*
X90019333Y-79828380D01*
X90019333Y-79161714D02*
X90400285Y-79542666D01*
%TO.C,R4*%
X99179047Y-101798380D02*
X99750476Y-101798380D01*
X99464761Y-101798380D02*
X99464761Y-100798380D01*
X99560000Y-100941238D01*
X99655238Y-101036476D01*
X99750476Y-101084095D01*
X98750476Y-101798380D02*
X98750476Y-100798380D01*
X98655238Y-101417428D02*
X98369523Y-101798380D01*
X98369523Y-101131714D02*
X98750476Y-101512666D01*
%TO.C,R3*%
X99170047Y-103830380D02*
X99741476Y-103830380D01*
X99455761Y-103830380D02*
X99455761Y-102830380D01*
X99551000Y-102973238D01*
X99646238Y-103068476D01*
X99741476Y-103116095D01*
X98741476Y-103830380D02*
X98741476Y-102830380D01*
X98646238Y-103449428D02*
X98360523Y-103830380D01*
X98360523Y-103163714D02*
X98741476Y-103544666D01*
%TO.C,R2*%
X67651238Y-84018380D02*
X68222666Y-84018380D01*
X67936952Y-84018380D02*
X67936952Y-83018380D01*
X68032190Y-83161238D01*
X68127428Y-83256476D01*
X68222666Y-83304095D01*
X67032190Y-83018380D02*
X66936952Y-83018380D01*
X66841714Y-83066000D01*
X66794095Y-83113619D01*
X66746476Y-83208857D01*
X66698857Y-83399333D01*
X66698857Y-83637428D01*
X66746476Y-83827904D01*
X66794095Y-83923142D01*
X66841714Y-83970761D01*
X66936952Y-84018380D01*
X67032190Y-84018380D01*
X67127428Y-83970761D01*
X67175047Y-83923142D01*
X67222666Y-83827904D01*
X67270285Y-83637428D01*
X67270285Y-83399333D01*
X67222666Y-83208857D01*
X67175047Y-83113619D01*
X67127428Y-83066000D01*
X67032190Y-83018380D01*
X66270285Y-84018380D02*
X66270285Y-83018380D01*
X66175047Y-83637428D02*
X65889333Y-84018380D01*
X65889333Y-83351714D02*
X66270285Y-83732666D01*
%TO.C,R1*%
X71239047Y-84144380D02*
X71810476Y-84144380D01*
X71524761Y-84144380D02*
X71524761Y-83144380D01*
X71620000Y-83287238D01*
X71715238Y-83382476D01*
X71810476Y-83430095D01*
X70810476Y-84144380D02*
X70810476Y-83144380D01*
X70715238Y-83763428D02*
X70429523Y-84144380D01*
X70429523Y-83477714D02*
X70810476Y-83858666D01*
%TO.C,Q1*%
X58753142Y-79938571D02*
X58610285Y-79986190D01*
X58562666Y-80033809D01*
X58515047Y-80129047D01*
X58515047Y-80271904D01*
X58562666Y-80367142D01*
X58610285Y-80414761D01*
X58705523Y-80462380D01*
X59086476Y-80462380D01*
X59086476Y-79462380D01*
X58753142Y-79462380D01*
X58657904Y-79510000D01*
X58610285Y-79557619D01*
X58562666Y-79652857D01*
X58562666Y-79748095D01*
X58610285Y-79843333D01*
X58657904Y-79890952D01*
X58753142Y-79938571D01*
X59086476Y-79938571D01*
X57515047Y-80367142D02*
X57562666Y-80414761D01*
X57705523Y-80462380D01*
X57800761Y-80462380D01*
X57943619Y-80414761D01*
X58038857Y-80319523D01*
X58086476Y-80224285D01*
X58134095Y-80033809D01*
X58134095Y-79890952D01*
X58086476Y-79700476D01*
X58038857Y-79605238D01*
X57943619Y-79510000D01*
X57800761Y-79462380D01*
X57705523Y-79462380D01*
X57562666Y-79510000D01*
X57515047Y-79557619D01*
X56943619Y-79890952D02*
X57038857Y-79843333D01*
X57086476Y-79795714D01*
X57134095Y-79700476D01*
X57134095Y-79652857D01*
X57086476Y-79557619D01*
X57038857Y-79510000D01*
X56943619Y-79462380D01*
X56753142Y-79462380D01*
X56657904Y-79510000D01*
X56610285Y-79557619D01*
X56562666Y-79652857D01*
X56562666Y-79700476D01*
X56610285Y-79795714D01*
X56657904Y-79843333D01*
X56753142Y-79890952D01*
X56943619Y-79890952D01*
X57038857Y-79938571D01*
X57086476Y-79986190D01*
X57134095Y-80081428D01*
X57134095Y-80271904D01*
X57086476Y-80367142D01*
X57038857Y-80414761D01*
X56943619Y-80462380D01*
X56753142Y-80462380D01*
X56657904Y-80414761D01*
X56610285Y-80367142D01*
X56562666Y-80271904D01*
X56562666Y-80081428D01*
X56610285Y-79986190D01*
X56657904Y-79938571D01*
X56753142Y-79890952D01*
X55705523Y-79795714D02*
X55705523Y-80462380D01*
X55943619Y-79414761D02*
X56181714Y-80129047D01*
X55562666Y-80129047D01*
X55276952Y-79462380D02*
X54610285Y-79462380D01*
X55038857Y-80462380D01*
%TO.C,K1*%
X68103523Y-64524000D02*
X68198761Y-64476380D01*
X68341619Y-64476380D01*
X68484476Y-64524000D01*
X68579714Y-64619238D01*
X68627333Y-64714476D01*
X68674952Y-64904952D01*
X68674952Y-65047809D01*
X68627333Y-65238285D01*
X68579714Y-65333523D01*
X68484476Y-65428761D01*
X68341619Y-65476380D01*
X68246380Y-65476380D01*
X68103523Y-65428761D01*
X68055904Y-65381142D01*
X68055904Y-65047809D01*
X68246380Y-65047809D01*
X67198761Y-64476380D02*
X67389238Y-64476380D01*
X67484476Y-64524000D01*
X67532095Y-64571619D01*
X67627333Y-64714476D01*
X67674952Y-64904952D01*
X67674952Y-65285904D01*
X67627333Y-65381142D01*
X67579714Y-65428761D01*
X67484476Y-65476380D01*
X67294000Y-65476380D01*
X67198761Y-65428761D01*
X67151142Y-65381142D01*
X67103523Y-65285904D01*
X67103523Y-65047809D01*
X67151142Y-64952571D01*
X67198761Y-64904952D01*
X67294000Y-64857333D01*
X67484476Y-64857333D01*
X67579714Y-64904952D01*
X67627333Y-64952571D01*
X67674952Y-65047809D01*
X66674952Y-65476380D02*
X66674952Y-64476380D01*
X66103523Y-65476380D02*
X66532095Y-64904952D01*
X66103523Y-64476380D02*
X66674952Y-65047809D01*
X65674952Y-65095428D02*
X64913047Y-65095428D01*
X64484476Y-64571619D02*
X64436857Y-64524000D01*
X64341619Y-64476380D01*
X64103523Y-64476380D01*
X64008285Y-64524000D01*
X63960666Y-64571619D01*
X63913047Y-64666857D01*
X63913047Y-64762095D01*
X63960666Y-64904952D01*
X64532095Y-65476380D01*
X63913047Y-65476380D01*
%TO.C,JP2*%
X69413333Y-59672380D02*
X69413333Y-60386666D01*
X69460952Y-60529523D01*
X69556190Y-60624761D01*
X69699047Y-60672380D01*
X69794285Y-60672380D01*
X68937142Y-60672380D02*
X68937142Y-59672380D01*
X68556190Y-59672380D01*
X68460952Y-59720000D01*
X68413333Y-59767619D01*
X68365714Y-59862857D01*
X68365714Y-60005714D01*
X68413333Y-60100952D01*
X68460952Y-60148571D01*
X68556190Y-60196190D01*
X68937142Y-60196190D01*
X67984761Y-59767619D02*
X67937142Y-59720000D01*
X67841904Y-59672380D01*
X67603809Y-59672380D01*
X67508571Y-59720000D01*
X67460952Y-59767619D01*
X67413333Y-59862857D01*
X67413333Y-59958095D01*
X67460952Y-60100952D01*
X68032380Y-60672380D01*
X67413333Y-60672380D01*
X65694285Y-58872380D02*
X66265714Y-58872380D01*
X65980000Y-58872380D02*
X65980000Y-57872380D01*
X66075238Y-58015238D01*
X66170476Y-58110476D01*
X66265714Y-58158095D01*
X71513333Y-57872380D02*
X70894285Y-57872380D01*
X71227619Y-58253333D01*
X71084761Y-58253333D01*
X70989523Y-58300952D01*
X70941904Y-58348571D01*
X70894285Y-58443809D01*
X70894285Y-58681904D01*
X70941904Y-58777142D01*
X70989523Y-58824761D01*
X71084761Y-58872380D01*
X71370476Y-58872380D01*
X71465714Y-58824761D01*
X71513333Y-58777142D01*
%TO.C,JP1*%
X64587333Y-59672380D02*
X64587333Y-60386666D01*
X64634952Y-60529523D01*
X64730190Y-60624761D01*
X64873047Y-60672380D01*
X64968285Y-60672380D01*
X64111142Y-60672380D02*
X64111142Y-59672380D01*
X63730190Y-59672380D01*
X63634952Y-59720000D01*
X63587333Y-59767619D01*
X63539714Y-59862857D01*
X63539714Y-60005714D01*
X63587333Y-60100952D01*
X63634952Y-60148571D01*
X63730190Y-60196190D01*
X64111142Y-60196190D01*
X62587333Y-60672380D02*
X63158761Y-60672380D01*
X62873047Y-60672380D02*
X62873047Y-59672380D01*
X62968285Y-59815238D01*
X63063523Y-59910476D01*
X63158761Y-59958095D01*
X60868285Y-58872380D02*
X61439714Y-58872380D01*
X61154000Y-58872380D02*
X61154000Y-57872380D01*
X61249238Y-58015238D01*
X61344476Y-58110476D01*
X61439714Y-58158095D01*
X66687333Y-57872380D02*
X66068285Y-57872380D01*
X66401619Y-58253333D01*
X66258761Y-58253333D01*
X66163523Y-58300952D01*
X66115904Y-58348571D01*
X66068285Y-58443809D01*
X66068285Y-58681904D01*
X66115904Y-58777142D01*
X66163523Y-58824761D01*
X66258761Y-58872380D01*
X66544476Y-58872380D01*
X66639714Y-58824761D01*
X66687333Y-58777142D01*
%TO.C,J6*%
X97309380Y-107180285D02*
X96309380Y-107180285D01*
X96309380Y-107561238D01*
X96357000Y-107656476D01*
X96404619Y-107704095D01*
X96499857Y-107751714D01*
X96642714Y-107751714D01*
X96737952Y-107704095D01*
X96785571Y-107656476D01*
X96833190Y-107561238D01*
X96833190Y-107180285D01*
X97309380Y-108751714D02*
X96833190Y-108418380D01*
X97309380Y-108180285D02*
X96309380Y-108180285D01*
X96309380Y-108561238D01*
X96357000Y-108656476D01*
X96404619Y-108704095D01*
X96499857Y-108751714D01*
X96642714Y-108751714D01*
X96737952Y-108704095D01*
X96785571Y-108656476D01*
X96833190Y-108561238D01*
X96833190Y-108180285D01*
X96309380Y-109370761D02*
X96309380Y-109561238D01*
X96357000Y-109656476D01*
X96452238Y-109751714D01*
X96642714Y-109799333D01*
X96976047Y-109799333D01*
X97166523Y-109751714D01*
X97261761Y-109656476D01*
X97309380Y-109561238D01*
X97309380Y-109370761D01*
X97261761Y-109275523D01*
X97166523Y-109180285D01*
X96976047Y-109132666D01*
X96642714Y-109132666D01*
X96452238Y-109180285D01*
X96357000Y-109275523D01*
X96309380Y-109370761D01*
X96357000Y-110751714D02*
X96309380Y-110656476D01*
X96309380Y-110513619D01*
X96357000Y-110370761D01*
X96452238Y-110275523D01*
X96547476Y-110227904D01*
X96737952Y-110180285D01*
X96880809Y-110180285D01*
X97071285Y-110227904D01*
X97166523Y-110275523D01*
X97261761Y-110370761D01*
X97309380Y-110513619D01*
X97309380Y-110608857D01*
X97261761Y-110751714D01*
X97214142Y-110799333D01*
X96880809Y-110799333D01*
X96880809Y-110608857D01*
%TO.C,C9*%
X71350380Y-129850952D02*
X71350380Y-129279523D01*
X71350380Y-129565238D02*
X70350380Y-129565238D01*
X70493238Y-129470000D01*
X70588476Y-129374761D01*
X70636095Y-129279523D01*
X70350380Y-130470000D02*
X70350380Y-130565238D01*
X70398000Y-130660476D01*
X70445619Y-130708095D01*
X70540857Y-130755714D01*
X70731333Y-130803333D01*
X70969428Y-130803333D01*
X71159904Y-130755714D01*
X71255142Y-130708095D01*
X71302761Y-130660476D01*
X71350380Y-130565238D01*
X71350380Y-130470000D01*
X71302761Y-130374761D01*
X71255142Y-130327142D01*
X71159904Y-130279523D01*
X70969428Y-130231904D01*
X70731333Y-130231904D01*
X70540857Y-130279523D01*
X70445619Y-130327142D01*
X70398000Y-130374761D01*
X70350380Y-130470000D01*
X70350380Y-131422380D02*
X70350380Y-131517619D01*
X70398000Y-131612857D01*
X70445619Y-131660476D01*
X70540857Y-131708095D01*
X70731333Y-131755714D01*
X70969428Y-131755714D01*
X71159904Y-131708095D01*
X71255142Y-131660476D01*
X71302761Y-131612857D01*
X71350380Y-131517619D01*
X71350380Y-131422380D01*
X71302761Y-131327142D01*
X71255142Y-131279523D01*
X71159904Y-131231904D01*
X70969428Y-131184285D01*
X70731333Y-131184285D01*
X70540857Y-131231904D01*
X70445619Y-131279523D01*
X70398000Y-131327142D01*
X70350380Y-131422380D01*
X70683714Y-132612857D02*
X71350380Y-132612857D01*
X70683714Y-132184285D02*
X71207523Y-132184285D01*
X71302761Y-132231904D01*
X71350380Y-132327142D01*
X71350380Y-132470000D01*
X71302761Y-132565238D01*
X71255142Y-132612857D01*
%TO.C,C8*%
X70619904Y-125007714D02*
X70619904Y-125674380D01*
X71048476Y-125007714D02*
X71048476Y-125531523D01*
X71000857Y-125626761D01*
X70905619Y-125674380D01*
X70762761Y-125674380D01*
X70667523Y-125626761D01*
X70619904Y-125579142D01*
X69619904Y-125674380D02*
X70191333Y-125674380D01*
X69905619Y-125674380D02*
X69905619Y-124674380D01*
X70000857Y-124817238D01*
X70096095Y-124912476D01*
X70191333Y-124960095D01*
%TO.C,C7*%
X60396380Y-120991333D02*
X60396380Y-120419904D01*
X60396380Y-120705619D02*
X59396380Y-120705619D01*
X59539238Y-120610380D01*
X59634476Y-120515142D01*
X59682095Y-120419904D01*
X59729714Y-121848476D02*
X60396380Y-121848476D01*
X59729714Y-121419904D02*
X60253523Y-121419904D01*
X60348761Y-121467523D01*
X60396380Y-121562761D01*
X60396380Y-121705619D01*
X60348761Y-121800857D01*
X60301142Y-121848476D01*
%TO.C,C6*%
X111005904Y-91859714D02*
X111005904Y-92526380D01*
X111434476Y-91859714D02*
X111434476Y-92383523D01*
X111386857Y-92478761D01*
X111291619Y-92526380D01*
X111148761Y-92526380D01*
X111053523Y-92478761D01*
X111005904Y-92431142D01*
X110005904Y-92526380D02*
X110577333Y-92526380D01*
X110291619Y-92526380D02*
X110291619Y-91526380D01*
X110386857Y-91669238D01*
X110482095Y-91764476D01*
X110577333Y-91812095D01*
%TO.C,C1*%
X131579904Y-91097714D02*
X131579904Y-91764380D01*
X132008476Y-91097714D02*
X132008476Y-91621523D01*
X131960857Y-91716761D01*
X131865619Y-91764380D01*
X131722761Y-91764380D01*
X131627523Y-91716761D01*
X131579904Y-91669142D01*
X130579904Y-91764380D02*
X131151333Y-91764380D01*
X130865619Y-91764380D02*
X130865619Y-90764380D01*
X130960857Y-90907238D01*
X131056095Y-91002476D01*
X131151333Y-91050095D01*
%TO.C,U1*%
X110910476Y-83312380D02*
X111386666Y-83312380D01*
X111386666Y-82312380D01*
X110577142Y-83312380D02*
X110577142Y-82312380D01*
X110243809Y-83026666D01*
X109910476Y-82312380D01*
X109910476Y-83312380D01*
X109529523Y-82312380D02*
X108910476Y-82312380D01*
X109243809Y-82693333D01*
X109100952Y-82693333D01*
X109005714Y-82740952D01*
X108958095Y-82788571D01*
X108910476Y-82883809D01*
X108910476Y-83121904D01*
X108958095Y-83217142D01*
X109005714Y-83264761D01*
X109100952Y-83312380D01*
X109386666Y-83312380D01*
X109481904Y-83264761D01*
X109529523Y-83217142D01*
X108005714Y-82312380D02*
X108481904Y-82312380D01*
X108529523Y-82788571D01*
X108481904Y-82740952D01*
X108386666Y-82693333D01*
X108148571Y-82693333D01*
X108053333Y-82740952D01*
X108005714Y-82788571D01*
X107958095Y-82883809D01*
X107958095Y-83121904D01*
X108005714Y-83217142D01*
X108053333Y-83264761D01*
X108148571Y-83312380D01*
X108386666Y-83312380D01*
X108481904Y-83264761D01*
X108529523Y-83217142D01*
X107386666Y-82740952D02*
X107481904Y-82693333D01*
X107529523Y-82645714D01*
X107577142Y-82550476D01*
X107577142Y-82502857D01*
X107529523Y-82407619D01*
X107481904Y-82360000D01*
X107386666Y-82312380D01*
X107196190Y-82312380D01*
X107100952Y-82360000D01*
X107053333Y-82407619D01*
X107005714Y-82502857D01*
X107005714Y-82550476D01*
X107053333Y-82645714D01*
X107100952Y-82693333D01*
X107196190Y-82740952D01*
X107386666Y-82740952D01*
X107481904Y-82788571D01*
X107529523Y-82836190D01*
X107577142Y-82931428D01*
X107577142Y-83121904D01*
X107529523Y-83217142D01*
X107481904Y-83264761D01*
X107386666Y-83312380D01*
X107196190Y-83312380D01*
X107100952Y-83264761D01*
X107053333Y-83217142D01*
X107005714Y-83121904D01*
X107005714Y-82931428D01*
X107053333Y-82836190D01*
X107100952Y-82788571D01*
X107196190Y-82740952D01*
%TO.C,C4*%
X93585714Y-70785714D02*
X94252380Y-70785714D01*
X93204761Y-70547619D02*
X93919047Y-70309523D01*
X93919047Y-70928571D01*
X93252380Y-71214285D02*
X93252380Y-71880952D01*
X94252380Y-71452380D01*
X93252380Y-72452380D02*
X93252380Y-72547619D01*
X93300000Y-72642857D01*
X93347619Y-72690476D01*
X93442857Y-72738095D01*
X93633333Y-72785714D01*
X93871428Y-72785714D01*
X94061904Y-72738095D01*
X94157142Y-72690476D01*
X94204761Y-72642857D01*
X94252380Y-72547619D01*
X94252380Y-72452380D01*
X94204761Y-72357142D01*
X94157142Y-72309523D01*
X94061904Y-72261904D01*
X93871428Y-72214285D01*
X93633333Y-72214285D01*
X93442857Y-72261904D01*
X93347619Y-72309523D01*
X93300000Y-72357142D01*
X93252380Y-72452380D01*
X93585714Y-73642857D02*
X94252380Y-73642857D01*
X93585714Y-73214285D02*
X94109523Y-73214285D01*
X94204761Y-73261904D01*
X94252380Y-73357142D01*
X94252380Y-73500000D01*
X94204761Y-73595238D01*
X94157142Y-73642857D01*
%TO.C,C3*%
X67585714Y-70785714D02*
X68252380Y-70785714D01*
X67204761Y-70547619D02*
X67919047Y-70309523D01*
X67919047Y-70928571D01*
X67252380Y-71214285D02*
X67252380Y-71880952D01*
X68252380Y-71452380D01*
X67252380Y-72452380D02*
X67252380Y-72547619D01*
X67300000Y-72642857D01*
X67347619Y-72690476D01*
X67442857Y-72738095D01*
X67633333Y-72785714D01*
X67871428Y-72785714D01*
X68061904Y-72738095D01*
X68157142Y-72690476D01*
X68204761Y-72642857D01*
X68252380Y-72547619D01*
X68252380Y-72452380D01*
X68204761Y-72357142D01*
X68157142Y-72309523D01*
X68061904Y-72261904D01*
X67871428Y-72214285D01*
X67633333Y-72214285D01*
X67442857Y-72261904D01*
X67347619Y-72309523D01*
X67300000Y-72357142D01*
X67252380Y-72452380D01*
X67585714Y-73642857D02*
X68252380Y-73642857D01*
X67585714Y-73214285D02*
X68109523Y-73214285D01*
X68204761Y-73261904D01*
X68252380Y-73357142D01*
X68252380Y-73500000D01*
X68204761Y-73595238D01*
X68157142Y-73642857D01*
%TO.C,C2*%
X78652380Y-88034952D02*
X78652380Y-87463523D01*
X78652380Y-87749238D02*
X77652380Y-87749238D01*
X77795238Y-87654000D01*
X77890476Y-87558761D01*
X77938095Y-87463523D01*
X77652380Y-88654000D02*
X77652380Y-88749238D01*
X77700000Y-88844476D01*
X77747619Y-88892095D01*
X77842857Y-88939714D01*
X78033333Y-88987333D01*
X78271428Y-88987333D01*
X78461904Y-88939714D01*
X78557142Y-88892095D01*
X78604761Y-88844476D01*
X78652380Y-88749238D01*
X78652380Y-88654000D01*
X78604761Y-88558761D01*
X78557142Y-88511142D01*
X78461904Y-88463523D01*
X78271428Y-88415904D01*
X78033333Y-88415904D01*
X77842857Y-88463523D01*
X77747619Y-88511142D01*
X77700000Y-88558761D01*
X77652380Y-88654000D01*
X77652380Y-89606380D02*
X77652380Y-89701619D01*
X77700000Y-89796857D01*
X77747619Y-89844476D01*
X77842857Y-89892095D01*
X78033333Y-89939714D01*
X78271428Y-89939714D01*
X78461904Y-89892095D01*
X78557142Y-89844476D01*
X78604761Y-89796857D01*
X78652380Y-89701619D01*
X78652380Y-89606380D01*
X78604761Y-89511142D01*
X78557142Y-89463523D01*
X78461904Y-89415904D01*
X78271428Y-89368285D01*
X78033333Y-89368285D01*
X77842857Y-89415904D01*
X77747619Y-89463523D01*
X77700000Y-89511142D01*
X77652380Y-89606380D01*
X77985714Y-90796857D02*
X78652380Y-90796857D01*
X77985714Y-90368285D02*
X78509523Y-90368285D01*
X78604761Y-90415904D01*
X78652380Y-90511142D01*
X78652380Y-90654000D01*
X78604761Y-90749238D01*
X78557142Y-90796857D01*
%TD*%
M02*
