M48
; DRILL file {KiCad (5.1.6)-1} date 10/02/20 15:44:09
; FORMAT={-:-/ absolute / inch / decimal}
; #@! TF.CreationDate,2020-10-02T15:44:09+02:00
; #@! TF.GenerationSoftware,Kicad,Pcbnew,(5.1.6)-1
FMAT,2
INCH
T1C0.0157
T2C0.0236
T3C0.0354
T4C0.0394
T5C0.0512
T6C0.1181
T7C0.0256
T8C0.0787
T9C0.1260
T10C0.4724
%
G90
G05
T1
X2.15Y-3.01
X2.17Y-2.5
X2.2Y-2.95
X2.23Y-2.85
X2.23Y-4.51
X2.3383Y-2.85
X2.34Y-2.57
X2.5Y-3.21
X2.5Y-3.26
X2.5294Y-4.0506
X2.6Y-2.87
X2.66Y-3.87
X2.69Y-3.96
X2.77Y-3.96
X2.8Y-3.87
X2.85Y-3.96
X2.8694Y-4.0506
X2.89Y-4.75
X2.89Y-4.82
X2.89Y-4.89
X2.89Y-4.96
X3.21Y-4.75
X3.21Y-4.82
X3.38Y-5.25
X3.61Y-5.36
X3.8Y-4.39
X3.9Y-4.07
X4.0Y-5.3
X4.0015Y-4.3699
X4.08Y-3.54
X4.08Y-3.73
X4.11Y-3.48
X4.2Y-3.73
X4.49Y-3.42
X4.49Y-3.73
T3
X2.31Y-3.4055
X2.41Y-3.4055
T4
X2.6772Y-3.1299
X2.7756Y-3.1299
X2.874Y-3.1299
X3.7008Y-3.1299
X3.7992Y-3.1299
X3.8976Y-3.1299
X4.7244Y-3.1299
X4.8228Y-3.1299
X4.9213Y-3.1299
T5
X2.2638Y-2.5098
X2.2638Y-3.002
X2.4606Y-2.5098
X2.4606Y-3.002
T6
X3.7913Y-4.8963
T7
X2.2463Y-4.3843
X2.2463Y-4.6118
T8
X3.626Y-3.4055
X3.9724Y-3.4055
X4.6496Y-3.4055
X4.9961Y-3.4055
X2.6024Y-3.4055
X2.9488Y-3.4055
T9
X2.2835Y-5.5906
X2.2835Y-2.2835
X5.5906Y-2.2835
X5.5906Y-5.5906
T10
X4.4488Y-2.7559
X3.4252Y-2.7559
X5.4724Y-3.7795
X5.4724Y-2.7559
T2
G00X2.0907Y-4.328
M15
G01X2.1144Y-4.328
M16
G05
G00X2.0907Y-4.6681
M15
G01X2.1144Y-4.6681
M16
G05
G00X2.2455Y-4.328
M15
G01X2.2888Y-4.328
M16
G05
G00X2.2455Y-4.6681
M15
G01X2.2888Y-4.6681
M16
G05
T0
M30
