%TF.GenerationSoftware,KiCad,Pcbnew,(5.1.6)-1*%
%TF.CreationDate,2020-10-02T15:44:05+02:00*%
%TF.ProjectId,PTnglieder,50546e67-6c69-4656-9465-722e6b696361,rev?*%
%TF.SameCoordinates,Original*%
%TF.FileFunction,Legend,Top*%
%TF.FilePolarity,Positive*%
%FSLAX46Y46*%
G04 Gerber Fmt 4.6, Leading zero omitted, Abs format (unit mm)*
G04 Created by KiCad (PCBNEW (5.1.6)-1) date 2020-10-02 15:44:05*
%MOMM*%
%LPD*%
G01*
G04 APERTURE LIST*
%ADD10C,0.300000*%
%ADD11C,0.120000*%
%ADD12C,0.200000*%
%ADD13C,0.500000*%
%ADD14C,0.010000*%
%ADD15C,0.150000*%
G04 APERTURE END LIST*
D10*
X60000000Y-89500000D02*
X60000000Y-109000000D01*
X60000000Y-76000000D02*
X60000000Y-83500000D01*
D11*
X96000000Y-130500000D02*
X81000000Y-130500000D01*
X96000000Y-145500000D02*
X96000000Y-130500000D01*
X81000000Y-145500000D02*
X96000000Y-145500000D01*
X81000000Y-130500000D02*
X81000000Y-145500000D01*
X50500000Y-119500000D02*
X50500000Y-109000000D01*
X60500000Y-119500000D02*
X50500000Y-119500000D01*
X60500000Y-109000000D02*
X60500000Y-119500000D01*
X50500000Y-109000000D02*
X60500000Y-109000000D01*
D10*
X52552142Y-113130952D02*
X52552142Y-115154761D01*
X52623571Y-115392857D01*
X52695000Y-115511904D01*
X52837857Y-115630952D01*
X53123571Y-115630952D01*
X53266428Y-115511904D01*
X53337857Y-115392857D01*
X53409285Y-115154761D01*
X53409285Y-113130952D01*
X54052142Y-115511904D02*
X54266428Y-115630952D01*
X54623571Y-115630952D01*
X54766428Y-115511904D01*
X54837857Y-115392857D01*
X54909285Y-115154761D01*
X54909285Y-114916666D01*
X54837857Y-114678571D01*
X54766428Y-114559523D01*
X54623571Y-114440476D01*
X54337857Y-114321428D01*
X54195000Y-114202380D01*
X54123571Y-114083333D01*
X54052142Y-113845238D01*
X54052142Y-113607142D01*
X54123571Y-113369047D01*
X54195000Y-113250000D01*
X54337857Y-113130952D01*
X54695000Y-113130952D01*
X54909285Y-113250000D01*
X56052142Y-114321428D02*
X56266428Y-114440476D01*
X56337857Y-114559523D01*
X56409285Y-114797619D01*
X56409285Y-115154761D01*
X56337857Y-115392857D01*
X56266428Y-115511904D01*
X56123571Y-115630952D01*
X55552142Y-115630952D01*
X55552142Y-113130952D01*
X56052142Y-113130952D01*
X56195000Y-113250000D01*
X56266428Y-113369047D01*
X56337857Y-113607142D01*
X56337857Y-113845238D01*
X56266428Y-114083333D01*
X56195000Y-114202380D01*
X56052142Y-114321428D01*
X55552142Y-114321428D01*
X57052142Y-114678571D02*
X58195000Y-114678571D01*
X59766428Y-115392857D02*
X59695000Y-115511904D01*
X59480714Y-115630952D01*
X59337857Y-115630952D01*
X59123571Y-115511904D01*
X58980714Y-115273809D01*
X58909285Y-115035714D01*
X58837857Y-114559523D01*
X58837857Y-114202380D01*
X58909285Y-113726190D01*
X58980714Y-113488095D01*
X59123571Y-113250000D01*
X59337857Y-113130952D01*
X59480714Y-113130952D01*
X59695000Y-113250000D01*
X59766428Y-113369047D01*
X116142857Y-95416666D02*
X116857142Y-95416666D01*
X116000000Y-96130952D02*
X116500000Y-93630952D01*
X117000000Y-96130952D01*
X117500000Y-96130952D02*
X117500000Y-93630952D01*
X117857142Y-93630952D01*
X118071428Y-93750000D01*
X118214285Y-93988095D01*
X118285714Y-94226190D01*
X118357142Y-94702380D01*
X118357142Y-95059523D01*
X118285714Y-95535714D01*
X118214285Y-95773809D01*
X118071428Y-96011904D01*
X117857142Y-96130952D01*
X117500000Y-96130952D01*
X119428571Y-93630952D02*
X119428571Y-95416666D01*
X119357142Y-95773809D01*
X119214285Y-96011904D01*
X119000000Y-96130952D01*
X118857142Y-96130952D01*
X120142857Y-93630952D02*
X120142857Y-95654761D01*
X120214285Y-95892857D01*
X120285714Y-96011904D01*
X120428571Y-96130952D01*
X120714285Y-96130952D01*
X120857142Y-96011904D01*
X120928571Y-95892857D01*
X121000000Y-95654761D01*
X121000000Y-93630952D01*
X121642857Y-96011904D02*
X121857142Y-96130952D01*
X122214285Y-96130952D01*
X122357142Y-96011904D01*
X122428571Y-95892857D01*
X122500000Y-95654761D01*
X122500000Y-95416666D01*
X122428571Y-95178571D01*
X122357142Y-95059523D01*
X122214285Y-94940476D01*
X121928571Y-94821428D01*
X121785714Y-94702380D01*
X121714285Y-94583333D01*
X121642857Y-94345238D01*
X121642857Y-94107142D01*
X121714285Y-93869047D01*
X121785714Y-93750000D01*
X121928571Y-93630952D01*
X122285714Y-93630952D01*
X122500000Y-93750000D01*
X122928571Y-93630952D02*
X123785714Y-93630952D01*
X123357142Y-96130952D02*
X123357142Y-93630952D01*
X125428571Y-96130952D02*
X125428571Y-93630952D01*
X126000000Y-93630952D01*
X126142857Y-93750000D01*
X126214285Y-93869047D01*
X126285714Y-94107142D01*
X126285714Y-94464285D01*
X126214285Y-94702380D01*
X126142857Y-94821428D01*
X126000000Y-94940476D01*
X125428571Y-94940476D01*
X126714285Y-93630952D02*
X127571428Y-93630952D01*
X127142857Y-96130952D02*
X127142857Y-93630952D01*
X127928571Y-93630952D02*
X128857142Y-93630952D01*
X128357142Y-94583333D01*
X128571428Y-94583333D01*
X128714285Y-94702380D01*
X128785714Y-94821428D01*
X128857142Y-95059523D01*
X128857142Y-95654761D01*
X128785714Y-95892857D01*
X128714285Y-96011904D01*
X128571428Y-96130952D01*
X128142857Y-96130952D01*
X128000000Y-96011904D01*
X127928571Y-95892857D01*
X90142857Y-95416666D02*
X90857142Y-95416666D01*
X90000000Y-96130952D02*
X90500000Y-93630952D01*
X91000000Y-96130952D01*
X91500000Y-96130952D02*
X91500000Y-93630952D01*
X91857142Y-93630952D01*
X92071428Y-93750000D01*
X92214285Y-93988095D01*
X92285714Y-94226190D01*
X92357142Y-94702380D01*
X92357142Y-95059523D01*
X92285714Y-95535714D01*
X92214285Y-95773809D01*
X92071428Y-96011904D01*
X91857142Y-96130952D01*
X91500000Y-96130952D01*
X93428571Y-93630952D02*
X93428571Y-95416666D01*
X93357142Y-95773809D01*
X93214285Y-96011904D01*
X93000000Y-96130952D01*
X92857142Y-96130952D01*
X94142857Y-93630952D02*
X94142857Y-95654761D01*
X94214285Y-95892857D01*
X94285714Y-96011904D01*
X94428571Y-96130952D01*
X94714285Y-96130952D01*
X94857142Y-96011904D01*
X94928571Y-95892857D01*
X95000000Y-95654761D01*
X95000000Y-93630952D01*
X95642857Y-96011904D02*
X95857142Y-96130952D01*
X96214285Y-96130952D01*
X96357142Y-96011904D01*
X96428571Y-95892857D01*
X96500000Y-95654761D01*
X96500000Y-95416666D01*
X96428571Y-95178571D01*
X96357142Y-95059523D01*
X96214285Y-94940476D01*
X95928571Y-94821428D01*
X95785714Y-94702380D01*
X95714285Y-94583333D01*
X95642857Y-94345238D01*
X95642857Y-94107142D01*
X95714285Y-93869047D01*
X95785714Y-93750000D01*
X95928571Y-93630952D01*
X96285714Y-93630952D01*
X96500000Y-93750000D01*
X96928571Y-93630952D02*
X97785714Y-93630952D01*
X97357142Y-96130952D02*
X97357142Y-93630952D01*
X99428571Y-96130952D02*
X99428571Y-93630952D01*
X100000000Y-93630952D01*
X100142857Y-93750000D01*
X100214285Y-93869047D01*
X100285714Y-94107142D01*
X100285714Y-94464285D01*
X100214285Y-94702380D01*
X100142857Y-94821428D01*
X100000000Y-94940476D01*
X99428571Y-94940476D01*
X100714285Y-93630952D02*
X101571428Y-93630952D01*
X101142857Y-96130952D02*
X101142857Y-93630952D01*
X102000000Y-93869047D02*
X102071428Y-93750000D01*
X102214285Y-93630952D01*
X102571428Y-93630952D01*
X102714285Y-93750000D01*
X102785714Y-93869047D01*
X102857142Y-94107142D01*
X102857142Y-94345238D01*
X102785714Y-94702380D01*
X101928571Y-96130952D01*
X102857142Y-96130952D01*
X64142857Y-95416666D02*
X64857142Y-95416666D01*
X64000000Y-96130952D02*
X64500000Y-93630952D01*
X65000000Y-96130952D01*
X65500000Y-96130952D02*
X65500000Y-93630952D01*
X65857142Y-93630952D01*
X66071428Y-93750000D01*
X66214285Y-93988095D01*
X66285714Y-94226190D01*
X66357142Y-94702380D01*
X66357142Y-95059523D01*
X66285714Y-95535714D01*
X66214285Y-95773809D01*
X66071428Y-96011904D01*
X65857142Y-96130952D01*
X65500000Y-96130952D01*
X67428571Y-93630952D02*
X67428571Y-95416666D01*
X67357142Y-95773809D01*
X67214285Y-96011904D01*
X67000000Y-96130952D01*
X66857142Y-96130952D01*
X68142857Y-93630952D02*
X68142857Y-95654761D01*
X68214285Y-95892857D01*
X68285714Y-96011904D01*
X68428571Y-96130952D01*
X68714285Y-96130952D01*
X68857142Y-96011904D01*
X68928571Y-95892857D01*
X69000000Y-95654761D01*
X69000000Y-93630952D01*
X69642857Y-96011904D02*
X69857142Y-96130952D01*
X70214285Y-96130952D01*
X70357142Y-96011904D01*
X70428571Y-95892857D01*
X70500000Y-95654761D01*
X70500000Y-95416666D01*
X70428571Y-95178571D01*
X70357142Y-95059523D01*
X70214285Y-94940476D01*
X69928571Y-94821428D01*
X69785714Y-94702380D01*
X69714285Y-94583333D01*
X69642857Y-94345238D01*
X69642857Y-94107142D01*
X69714285Y-93869047D01*
X69785714Y-93750000D01*
X69928571Y-93630952D01*
X70285714Y-93630952D01*
X70500000Y-93750000D01*
X70928571Y-93630952D02*
X71785714Y-93630952D01*
X71357142Y-96130952D02*
X71357142Y-93630952D01*
X73428571Y-96130952D02*
X73428571Y-93630952D01*
X74000000Y-93630952D01*
X74142857Y-93750000D01*
X74214285Y-93869047D01*
X74285714Y-94107142D01*
X74285714Y-94464285D01*
X74214285Y-94702380D01*
X74142857Y-94821428D01*
X74000000Y-94940476D01*
X73428571Y-94940476D01*
X74714285Y-93630952D02*
X75571428Y-93630952D01*
X75142857Y-96130952D02*
X75142857Y-93630952D01*
X76857142Y-96130952D02*
X76000000Y-96130952D01*
X76428571Y-96130952D02*
X76428571Y-93630952D01*
X76285714Y-93988095D01*
X76142857Y-94226190D01*
X76000000Y-94345238D01*
D11*
X73000000Y-76500000D02*
X75000000Y-76500000D01*
X69000000Y-71000000D02*
X69000000Y-69000000D01*
X70500000Y-75000000D02*
X70500000Y-74000000D01*
X76000000Y-68500000D02*
X79000000Y-70000000D01*
X76000000Y-74000000D02*
X72000000Y-74000000D01*
X72000000Y-69000000D02*
X72000000Y-71000000D01*
X72000000Y-72500000D02*
X73000000Y-72500000D01*
X70500000Y-72000000D02*
X70500000Y-71000000D01*
X73500000Y-77000000D02*
X74500000Y-77000000D01*
X79000000Y-70000000D02*
X76000000Y-71500000D01*
X72000000Y-73000000D02*
X72000000Y-72500000D01*
X74000000Y-70000000D02*
X74000000Y-72500000D01*
X70500000Y-73500000D02*
X70500000Y-72500000D01*
X72500000Y-76000000D02*
X75500000Y-76000000D01*
X76000000Y-73000000D02*
X72000000Y-73000000D01*
X74000000Y-74000000D02*
X74000000Y-76000000D01*
X72000000Y-70000000D02*
X76000000Y-70000000D01*
X76000000Y-71500000D02*
X76000000Y-68500000D01*
X72000000Y-74000000D02*
X72000000Y-73500000D01*
X76000000Y-73500000D02*
X76000000Y-74000000D01*
X72000000Y-71000000D02*
X69000000Y-71000000D01*
X79000000Y-70000000D02*
X80000000Y-70000000D01*
X70500000Y-76500000D02*
X70500000Y-75500000D01*
X72000000Y-73500000D02*
X76000000Y-73500000D01*
X76000000Y-72500000D02*
X76000000Y-73000000D01*
X73000000Y-72500000D02*
X76000000Y-72500000D01*
X69000000Y-69000000D02*
X72000000Y-69000000D01*
X70500000Y-78000000D02*
X70500000Y-77000000D01*
X66000000Y-70000000D02*
X69000000Y-70000000D01*
X95000000Y-71000000D02*
X95000000Y-69000000D01*
X99000000Y-76500000D02*
X101000000Y-76500000D01*
X96500000Y-78000000D02*
X96500000Y-77000000D01*
X98000000Y-73000000D02*
X98000000Y-72500000D01*
X95000000Y-69000000D02*
X98000000Y-69000000D01*
X100000000Y-70000000D02*
X100000000Y-72500000D01*
X96500000Y-73500000D02*
X96500000Y-72500000D01*
X94000000Y-70000000D02*
X95000000Y-70000000D01*
X98500000Y-76000000D02*
X101500000Y-76000000D01*
X102000000Y-74000000D02*
X98000000Y-74000000D01*
X96500000Y-72000000D02*
X96500000Y-71000000D01*
X96500000Y-75000000D02*
X96500000Y-74000000D01*
X105000000Y-70000000D02*
X106000000Y-70000000D01*
X99500000Y-77000000D02*
X100500000Y-77000000D01*
X98000000Y-73500000D02*
X102000000Y-73500000D01*
X102000000Y-72500000D02*
X102000000Y-73000000D01*
X105000000Y-70000000D02*
X102000000Y-71500000D01*
X102000000Y-73000000D02*
X98000000Y-73000000D01*
X100000000Y-74000000D02*
X100000000Y-76000000D01*
X102000000Y-71500000D02*
X102000000Y-68500000D01*
X99000000Y-72500000D02*
X102000000Y-72500000D01*
X96500000Y-76500000D02*
X96500000Y-75500000D01*
X98000000Y-70000000D02*
X102000000Y-70000000D01*
X98000000Y-74000000D02*
X98000000Y-73500000D01*
X102000000Y-73500000D02*
X102000000Y-74000000D01*
X98000000Y-71000000D02*
X95000000Y-71000000D01*
X98000000Y-69000000D02*
X98000000Y-71000000D01*
X102000000Y-68500000D02*
X105000000Y-70000000D01*
X98000000Y-72500000D02*
X99000000Y-72500000D01*
X124000000Y-69000000D02*
X124000000Y-71000000D01*
X128000000Y-68500000D02*
X131000000Y-70000000D01*
X124000000Y-71000000D02*
X121000000Y-71000000D01*
X124000000Y-72500000D02*
X125000000Y-72500000D01*
X124500000Y-76000000D02*
X127500000Y-76000000D01*
X122500000Y-72000000D02*
X122500000Y-71000000D01*
X122500000Y-75000000D02*
X122500000Y-74000000D01*
X131000000Y-70000000D02*
X132000000Y-70000000D01*
X125500000Y-77000000D02*
X126500000Y-77000000D01*
X124000000Y-73500000D02*
X128000000Y-73500000D01*
X122500000Y-76500000D02*
X122500000Y-75500000D01*
X121000000Y-71000000D02*
X121000000Y-69000000D01*
X131000000Y-70000000D02*
X128000000Y-71500000D01*
X125000000Y-76500000D02*
X127000000Y-76500000D01*
X122500000Y-73500000D02*
X122500000Y-72500000D01*
X122500000Y-78000000D02*
X122500000Y-77000000D01*
X128000000Y-74000000D02*
X124000000Y-74000000D01*
X126000000Y-74000000D02*
X126000000Y-76000000D01*
X128000000Y-71500000D02*
X128000000Y-68500000D01*
X128000000Y-73000000D02*
X124000000Y-73000000D01*
X125000000Y-72500000D02*
X128000000Y-72500000D01*
X120000000Y-70000000D02*
X121000000Y-70000000D01*
X126000000Y-70000000D02*
X126000000Y-72500000D01*
X121000000Y-69000000D02*
X124000000Y-69000000D01*
X124000000Y-73000000D02*
X124000000Y-72500000D01*
X128000000Y-72500000D02*
X128000000Y-73000000D01*
X128000000Y-73500000D02*
X128000000Y-74000000D01*
X124000000Y-74000000D02*
X124000000Y-73500000D01*
X124000000Y-70000000D02*
X128000000Y-70000000D01*
D12*
X118369999Y-55942857D02*
X118036666Y-55942857D01*
X118036666Y-56728571D02*
X118036666Y-55228571D01*
X118512857Y-55228571D01*
X119322380Y-55728571D02*
X119322380Y-56728571D01*
X118893809Y-55728571D02*
X118893809Y-56514285D01*
X118941428Y-56657142D01*
X119036666Y-56728571D01*
X119179523Y-56728571D01*
X119274761Y-56657142D01*
X119322380Y-56585714D01*
X118941428Y-55228571D02*
X118989047Y-55300000D01*
X118941428Y-55371428D01*
X118893809Y-55300000D01*
X118941428Y-55228571D01*
X118941428Y-55371428D01*
X119322380Y-55228571D02*
X119369999Y-55300000D01*
X119322380Y-55371428D01*
X119274761Y-55300000D01*
X119322380Y-55228571D01*
X119322380Y-55371428D01*
X119798571Y-56728571D02*
X119798571Y-55728571D01*
X119798571Y-56014285D02*
X119846190Y-55871428D01*
X119893809Y-55800000D01*
X119989047Y-55728571D01*
X120084285Y-55728571D01*
X121512857Y-55942857D02*
X121179523Y-55942857D01*
X121179523Y-56728571D02*
X121179523Y-55228571D01*
X121655714Y-55228571D01*
X122179523Y-56728571D02*
X122084285Y-56657142D01*
X122036666Y-56585714D01*
X121989047Y-56442857D01*
X121989047Y-56014285D01*
X122036666Y-55871428D01*
X122084285Y-55800000D01*
X122179523Y-55728571D01*
X122322380Y-55728571D01*
X122417619Y-55800000D01*
X122465238Y-55871428D01*
X122512857Y-56014285D01*
X122512857Y-56442857D01*
X122465238Y-56585714D01*
X122417619Y-56657142D01*
X122322380Y-56728571D01*
X122179523Y-56728571D01*
X122941428Y-56728571D02*
X122941428Y-55728571D01*
X122941428Y-56014285D02*
X122989047Y-55871428D01*
X123036666Y-55800000D01*
X123131904Y-55728571D01*
X123227142Y-55728571D01*
X123512857Y-56657142D02*
X123608095Y-56728571D01*
X123798571Y-56728571D01*
X123893809Y-56657142D01*
X123941428Y-56514285D01*
X123941428Y-56442857D01*
X123893809Y-56300000D01*
X123798571Y-56228571D01*
X123655714Y-56228571D01*
X123560476Y-56157142D01*
X123512857Y-56014285D01*
X123512857Y-55942857D01*
X123560476Y-55800000D01*
X123655714Y-55728571D01*
X123798571Y-55728571D01*
X123893809Y-55800000D01*
X124798571Y-56657142D02*
X124703333Y-56728571D01*
X124512857Y-56728571D01*
X124417619Y-56657142D01*
X124369999Y-56585714D01*
X124322380Y-56442857D01*
X124322380Y-56014285D01*
X124369999Y-55871428D01*
X124417619Y-55800000D01*
X124512857Y-55728571D01*
X124703333Y-55728571D01*
X124798571Y-55800000D01*
X125227142Y-56728571D02*
X125227142Y-55228571D01*
X125655714Y-56728571D02*
X125655714Y-55942857D01*
X125608095Y-55800000D01*
X125512857Y-55728571D01*
X125369999Y-55728571D01*
X125274761Y-55800000D01*
X125227142Y-55871428D01*
X126560476Y-55728571D02*
X126560476Y-56728571D01*
X126131904Y-55728571D02*
X126131904Y-56514285D01*
X126179523Y-56657142D01*
X126274761Y-56728571D01*
X126417619Y-56728571D01*
X126512857Y-56657142D01*
X126560476Y-56585714D01*
X127036666Y-55728571D02*
X127036666Y-56728571D01*
X127036666Y-55871428D02*
X127084285Y-55800000D01*
X127179523Y-55728571D01*
X127322380Y-55728571D01*
X127417619Y-55800000D01*
X127465238Y-55942857D01*
X127465238Y-56728571D01*
X128369999Y-55728571D02*
X128369999Y-56942857D01*
X128322380Y-57085714D01*
X128274761Y-57157142D01*
X128179523Y-57228571D01*
X128036666Y-57228571D01*
X127941428Y-57157142D01*
X128369999Y-56657142D02*
X128274761Y-56728571D01*
X128084285Y-56728571D01*
X127989047Y-56657142D01*
X127941428Y-56585714D01*
X127893809Y-56442857D01*
X127893809Y-56014285D01*
X127941428Y-55871428D01*
X127989047Y-55800000D01*
X128084285Y-55728571D01*
X128274761Y-55728571D01*
X128369999Y-55800000D01*
X130036666Y-55728571D02*
X130036666Y-56728571D01*
X129608095Y-55728571D02*
X129608095Y-56514285D01*
X129655714Y-56657142D01*
X129750952Y-56728571D01*
X129893809Y-56728571D01*
X129989047Y-56657142D01*
X130036666Y-56585714D01*
X130512857Y-55728571D02*
X130512857Y-56728571D01*
X130512857Y-55871428D02*
X130560476Y-55800000D01*
X130655714Y-55728571D01*
X130798571Y-55728571D01*
X130893809Y-55800000D01*
X130941428Y-55942857D01*
X130941428Y-56728571D01*
X131846190Y-56728571D02*
X131846190Y-55228571D01*
X131846190Y-56657142D02*
X131750952Y-56728571D01*
X131560476Y-56728571D01*
X131465238Y-56657142D01*
X131417619Y-56585714D01*
X131369999Y-56442857D01*
X131369999Y-56014285D01*
X131417619Y-55871428D01*
X131465238Y-55800000D01*
X131560476Y-55728571D01*
X131750952Y-55728571D01*
X131846190Y-55800000D01*
X133560476Y-56728571D02*
X133084285Y-56728571D01*
X133084285Y-55228571D01*
X134274761Y-56657142D02*
X134179523Y-56728571D01*
X133989047Y-56728571D01*
X133893809Y-56657142D01*
X133846190Y-56514285D01*
X133846190Y-55942857D01*
X133893809Y-55800000D01*
X133989047Y-55728571D01*
X134179523Y-55728571D01*
X134274761Y-55800000D01*
X134322380Y-55942857D01*
X134322380Y-56085714D01*
X133846190Y-56228571D01*
X134750952Y-56728571D02*
X134750952Y-55228571D01*
X135179523Y-56728571D02*
X135179523Y-55942857D01*
X135131904Y-55800000D01*
X135036666Y-55728571D01*
X134893809Y-55728571D01*
X134798571Y-55800000D01*
X134750952Y-55871428D01*
X135655714Y-56728571D02*
X135655714Y-55728571D01*
X135655714Y-56014285D02*
X135703333Y-55871428D01*
X135750952Y-55800000D01*
X135846190Y-55728571D01*
X135941428Y-55728571D01*
X136655714Y-56657142D02*
X136560476Y-56728571D01*
X136370000Y-56728571D01*
X136274761Y-56657142D01*
X136227142Y-56514285D01*
X136227142Y-55942857D01*
X136274761Y-55800000D01*
X136370000Y-55728571D01*
X136560476Y-55728571D01*
X136655714Y-55800000D01*
X136703333Y-55942857D01*
X136703333Y-56085714D01*
X136227142Y-56228571D01*
X137131904Y-56585714D02*
X137179523Y-56657142D01*
X137131904Y-56728571D01*
X137084285Y-56657142D01*
X137131904Y-56585714D01*
X137131904Y-56728571D01*
X137131904Y-56157142D02*
X137084285Y-55300000D01*
X137131904Y-55228571D01*
X137179523Y-55300000D01*
X137131904Y-56157142D01*
X137131904Y-55228571D01*
X120893809Y-59178571D02*
X120893809Y-57678571D01*
X120989047Y-58607142D02*
X121274761Y-59178571D01*
X121274761Y-58178571D02*
X120893809Y-58750000D01*
X121846190Y-59178571D02*
X121750952Y-59107142D01*
X121703333Y-58964285D01*
X121703333Y-57678571D01*
X122655714Y-59178571D02*
X122655714Y-58392857D01*
X122608095Y-58250000D01*
X122512857Y-58178571D01*
X122322380Y-58178571D01*
X122227142Y-58250000D01*
X122655714Y-59107142D02*
X122560476Y-59178571D01*
X122322380Y-59178571D01*
X122227142Y-59107142D01*
X122179523Y-58964285D01*
X122179523Y-58821428D01*
X122227142Y-58678571D01*
X122322380Y-58607142D01*
X122560476Y-58607142D01*
X122655714Y-58535714D01*
X123560476Y-58178571D02*
X123560476Y-59178571D01*
X123131904Y-58178571D02*
X123131904Y-58964285D01*
X123179523Y-59107142D01*
X123274761Y-59178571D01*
X123417619Y-59178571D01*
X123512857Y-59107142D01*
X123560476Y-59035714D01*
X123989047Y-59107142D02*
X124084285Y-59178571D01*
X124274761Y-59178571D01*
X124370000Y-59107142D01*
X124417619Y-58964285D01*
X124417619Y-58892857D01*
X124370000Y-58750000D01*
X124274761Y-58678571D01*
X124131904Y-58678571D01*
X124036666Y-58607142D01*
X123989047Y-58464285D01*
X123989047Y-58392857D01*
X124036666Y-58250000D01*
X124131904Y-58178571D01*
X124274761Y-58178571D01*
X124370000Y-58250000D01*
X124846190Y-59035714D02*
X124893809Y-59107142D01*
X124846190Y-59178571D01*
X124798571Y-59107142D01*
X124846190Y-59035714D01*
X124846190Y-59178571D01*
X125465238Y-59178571D02*
X125370000Y-59107142D01*
X125322380Y-58964285D01*
X125322380Y-57678571D01*
X125846190Y-59178571D02*
X125846190Y-58178571D01*
X125846190Y-57678571D02*
X125798571Y-57750000D01*
X125846190Y-57821428D01*
X125893809Y-57750000D01*
X125846190Y-57678571D01*
X125846190Y-57821428D01*
X126703333Y-59107142D02*
X126608095Y-59178571D01*
X126417619Y-59178571D01*
X126322380Y-59107142D01*
X126274761Y-58964285D01*
X126274761Y-58392857D01*
X126322380Y-58250000D01*
X126417619Y-58178571D01*
X126608095Y-58178571D01*
X126703333Y-58250000D01*
X126750952Y-58392857D01*
X126750952Y-58535714D01*
X126274761Y-58678571D01*
X127179523Y-59178571D02*
X127179523Y-57678571D01*
X127179523Y-58250000D02*
X127274761Y-58178571D01*
X127465238Y-58178571D01*
X127560476Y-58250000D01*
X127608095Y-58321428D01*
X127655714Y-58464285D01*
X127655714Y-58892857D01*
X127608095Y-59035714D01*
X127560476Y-59107142D01*
X127465238Y-59178571D01*
X127274761Y-59178571D01*
X127179523Y-59107142D01*
X128227142Y-59178571D02*
X128131904Y-59107142D01*
X128084285Y-58964285D01*
X128084285Y-57678571D01*
X128989047Y-59107142D02*
X128893809Y-59178571D01*
X128703333Y-59178571D01*
X128608095Y-59107142D01*
X128560476Y-58964285D01*
X128560476Y-58392857D01*
X128608095Y-58250000D01*
X128703333Y-58178571D01*
X128893809Y-58178571D01*
X128989047Y-58250000D01*
X129036666Y-58392857D01*
X129036666Y-58535714D01*
X128560476Y-58678571D01*
X129465238Y-59178571D02*
X129465238Y-58178571D01*
X129465238Y-58464285D02*
X129512857Y-58321428D01*
X129560476Y-58250000D01*
X129655714Y-58178571D01*
X129750952Y-58178571D01*
X130703333Y-58464285D02*
X130655714Y-58392857D01*
X130560476Y-58321428D01*
X130465238Y-58321428D01*
X130370000Y-58392857D01*
X130322380Y-58464285D01*
X130274761Y-58607142D01*
X130274761Y-58750000D01*
X130322380Y-58892857D01*
X130370000Y-58964285D01*
X130465238Y-59035714D01*
X130560476Y-59035714D01*
X130655714Y-58964285D01*
X130703333Y-58892857D01*
X130703333Y-58321428D02*
X130703333Y-58892857D01*
X130750952Y-58964285D01*
X130798571Y-58964285D01*
X130893809Y-58892857D01*
X130941428Y-58750000D01*
X130941428Y-58392857D01*
X130846190Y-58178571D01*
X130703333Y-58035714D01*
X130512857Y-57964285D01*
X130322380Y-58035714D01*
X130179523Y-58178571D01*
X130084285Y-58392857D01*
X130036666Y-58678571D01*
X130084285Y-58964285D01*
X130179523Y-59178571D01*
X130322380Y-59321428D01*
X130512857Y-59392857D01*
X130703333Y-59321428D01*
X130846190Y-59178571D01*
X131274761Y-58178571D02*
X131465238Y-59178571D01*
X131655714Y-58464285D01*
X131846190Y-59178571D01*
X132036666Y-58178571D01*
X132417619Y-58607142D02*
X133179523Y-58607142D01*
X133655714Y-59178571D02*
X133655714Y-57678571D01*
X134084285Y-59178571D02*
X134084285Y-58392857D01*
X134036666Y-58250000D01*
X133941428Y-58178571D01*
X133798571Y-58178571D01*
X133703333Y-58250000D01*
X133655714Y-58321428D01*
X134512857Y-59107142D02*
X134608095Y-59178571D01*
X134798571Y-59178571D01*
X134893809Y-59107142D01*
X134941428Y-58964285D01*
X134941428Y-58892857D01*
X134893809Y-58750000D01*
X134798571Y-58678571D01*
X134655714Y-58678571D01*
X134560476Y-58607142D01*
X134512857Y-58464285D01*
X134512857Y-58392857D01*
X134560476Y-58250000D01*
X134655714Y-58178571D01*
X134798571Y-58178571D01*
X134893809Y-58250000D01*
X135370000Y-59035714D02*
X135417619Y-59107142D01*
X135370000Y-59178571D01*
X135322380Y-59107142D01*
X135370000Y-59035714D01*
X135370000Y-59178571D01*
X136274761Y-59178571D02*
X136274761Y-57678571D01*
X136274761Y-59107142D02*
X136179523Y-59178571D01*
X135989047Y-59178571D01*
X135893809Y-59107142D01*
X135846190Y-59035714D01*
X135798571Y-58892857D01*
X135798571Y-58464285D01*
X135846190Y-58321428D01*
X135893809Y-58250000D01*
X135989047Y-58178571D01*
X136179523Y-58178571D01*
X136274761Y-58250000D01*
X137131904Y-59107142D02*
X137036666Y-59178571D01*
X136846190Y-59178571D01*
X136750952Y-59107142D01*
X136703333Y-58964285D01*
X136703333Y-58392857D01*
X136750952Y-58250000D01*
X136846190Y-58178571D01*
X137036666Y-58178571D01*
X137131904Y-58250000D01*
X137179523Y-58392857D01*
X137179523Y-58535714D01*
X136703333Y-58678571D01*
X127465238Y-60271428D02*
X127512857Y-60200000D01*
X127608095Y-60128571D01*
X127846190Y-60128571D01*
X127941428Y-60200000D01*
X127989047Y-60271428D01*
X128036666Y-60414285D01*
X128036666Y-60557142D01*
X127989047Y-60771428D01*
X127417619Y-61628571D01*
X128036666Y-61628571D01*
X128655714Y-60128571D02*
X128750952Y-60128571D01*
X128846190Y-60200000D01*
X128893809Y-60271428D01*
X128941428Y-60414285D01*
X128989047Y-60700000D01*
X128989047Y-61057142D01*
X128941428Y-61342857D01*
X128893809Y-61485714D01*
X128846190Y-61557142D01*
X128750952Y-61628571D01*
X128655714Y-61628571D01*
X128560476Y-61557142D01*
X128512857Y-61485714D01*
X128465238Y-61342857D01*
X128417619Y-61057142D01*
X128417619Y-60700000D01*
X128465238Y-60414285D01*
X128512857Y-60271428D01*
X128560476Y-60200000D01*
X128655714Y-60128571D01*
X129370000Y-60271428D02*
X129417619Y-60200000D01*
X129512857Y-60128571D01*
X129750952Y-60128571D01*
X129846190Y-60200000D01*
X129893809Y-60271428D01*
X129941428Y-60414285D01*
X129941428Y-60557142D01*
X129893809Y-60771428D01*
X129322380Y-61628571D01*
X129941428Y-61628571D01*
X130560476Y-60128571D02*
X130655714Y-60128571D01*
X130750952Y-60200000D01*
X130798571Y-60271428D01*
X130846190Y-60414285D01*
X130893809Y-60700000D01*
X130893809Y-61057142D01*
X130846190Y-61342857D01*
X130798571Y-61485714D01*
X130750952Y-61557142D01*
X130655714Y-61628571D01*
X130560476Y-61628571D01*
X130465238Y-61557142D01*
X130417619Y-61485714D01*
X130370000Y-61342857D01*
X130322380Y-61057142D01*
X130322380Y-60700000D01*
X130370000Y-60414285D01*
X130417619Y-60271428D01*
X130465238Y-60200000D01*
X130560476Y-60128571D01*
X131322380Y-61057142D02*
X132084285Y-61057142D01*
X132750952Y-60128571D02*
X132846190Y-60128571D01*
X132941428Y-60200000D01*
X132989047Y-60271428D01*
X133036666Y-60414285D01*
X133084285Y-60700000D01*
X133084285Y-61057142D01*
X133036666Y-61342857D01*
X132989047Y-61485714D01*
X132941428Y-61557142D01*
X132846190Y-61628571D01*
X132750952Y-61628571D01*
X132655714Y-61557142D01*
X132608095Y-61485714D01*
X132560476Y-61342857D01*
X132512857Y-61057142D01*
X132512857Y-60700000D01*
X132560476Y-60414285D01*
X132608095Y-60271428D01*
X132655714Y-60200000D01*
X132750952Y-60128571D01*
X133560476Y-61628571D02*
X133750952Y-61628571D01*
X133846190Y-61557142D01*
X133893809Y-61485714D01*
X133989047Y-61271428D01*
X134036666Y-60985714D01*
X134036666Y-60414285D01*
X133989047Y-60271428D01*
X133941428Y-60200000D01*
X133846190Y-60128571D01*
X133655714Y-60128571D01*
X133560476Y-60200000D01*
X133512857Y-60271428D01*
X133465238Y-60414285D01*
X133465238Y-60771428D01*
X133512857Y-60914285D01*
X133560476Y-60985714D01*
X133655714Y-61057142D01*
X133846190Y-61057142D01*
X133941428Y-60985714D01*
X133989047Y-60914285D01*
X134036666Y-60771428D01*
X134465238Y-61057142D02*
X135227142Y-61057142D01*
X135608095Y-60128571D02*
X136227142Y-60128571D01*
X135893809Y-60700000D01*
X136036666Y-60700000D01*
X136131904Y-60771428D01*
X136179523Y-60842857D01*
X136227142Y-60985714D01*
X136227142Y-61342857D01*
X136179523Y-61485714D01*
X136131904Y-61557142D01*
X136036666Y-61628571D01*
X135750952Y-61628571D01*
X135655714Y-61557142D01*
X135608095Y-61485714D01*
X136846190Y-60128571D02*
X136941428Y-60128571D01*
X137036666Y-60200000D01*
X137084285Y-60271428D01*
X137131904Y-60414285D01*
X137179523Y-60700000D01*
X137179523Y-61057142D01*
X137131904Y-61342857D01*
X137084285Y-61485714D01*
X137036666Y-61557142D01*
X136941428Y-61628571D01*
X136846190Y-61628571D01*
X136750952Y-61557142D01*
X136703333Y-61485714D01*
X136655714Y-61342857D01*
X136608095Y-61057142D01*
X136608095Y-60700000D01*
X136655714Y-60414285D01*
X136703333Y-60271428D01*
X136750952Y-60200000D01*
X136846190Y-60128571D01*
D13*
X115294047Y-143023809D02*
X115532142Y-143261904D01*
X116008333Y-143261904D01*
X116246428Y-143023809D01*
X116365476Y-142547619D01*
X116365476Y-142309523D01*
X116246428Y-141833333D01*
X116008333Y-141595238D01*
X115651190Y-141595238D01*
X115413095Y-141357142D01*
X115294047Y-140880952D01*
X115294047Y-140642857D01*
X115413095Y-140166666D01*
X115651190Y-139928571D01*
X116008333Y-139928571D01*
X116246428Y-140166666D01*
X117436904Y-143261904D02*
X117436904Y-139928571D01*
X117436904Y-140404761D02*
X117555952Y-140166666D01*
X117794047Y-139928571D01*
X118151190Y-139928571D01*
X118389285Y-140166666D01*
X118508333Y-140642857D01*
X118508333Y-143261904D01*
X118508333Y-140642857D02*
X118627380Y-140166666D01*
X118865476Y-139928571D01*
X119222619Y-139928571D01*
X119460714Y-140166666D01*
X119579761Y-140642857D01*
X119579761Y-143261904D01*
X121127380Y-143261904D02*
X120889285Y-143023809D01*
X120770238Y-142785714D01*
X120651190Y-142309523D01*
X120651190Y-140880952D01*
X120770238Y-140404761D01*
X120889285Y-140166666D01*
X121127380Y-139928571D01*
X121484523Y-139928571D01*
X121722619Y-140166666D01*
X121841666Y-140404761D01*
X121960714Y-140880952D01*
X121960714Y-142309523D01*
X121841666Y-142785714D01*
X121722619Y-143023809D01*
X121484523Y-143261904D01*
X121127380Y-143261904D01*
X123032142Y-139928571D02*
X123032142Y-144928571D01*
X123032142Y-140166666D02*
X123270238Y-139928571D01*
X123746428Y-139928571D01*
X123984523Y-140166666D01*
X124103571Y-140404761D01*
X124222619Y-140880952D01*
X124222619Y-142309523D01*
X124103571Y-142785714D01*
X123984523Y-143023809D01*
X123746428Y-143261904D01*
X123270238Y-143261904D01*
X123032142Y-143023809D01*
X125651190Y-143261904D02*
X125413095Y-143023809D01*
X125294047Y-142547619D01*
X125294047Y-138261904D01*
X127675000Y-143261904D02*
X127675000Y-140642857D01*
X127555952Y-140166666D01*
X127317857Y-139928571D01*
X126841666Y-139928571D01*
X126603571Y-140166666D01*
X127675000Y-143023809D02*
X127436904Y-143261904D01*
X126841666Y-143261904D01*
X126603571Y-143023809D01*
X126484523Y-142547619D01*
X126484523Y-142071428D01*
X126603571Y-141595238D01*
X126841666Y-141357142D01*
X127436904Y-141357142D01*
X127675000Y-141119047D01*
X128865476Y-142785714D02*
X128984523Y-143023809D01*
X128865476Y-143261904D01*
X128746428Y-143023809D01*
X128865476Y-142785714D01*
X128865476Y-143261904D01*
X128865476Y-140166666D02*
X128984523Y-140404761D01*
X128865476Y-140642857D01*
X128746428Y-140404761D01*
X128865476Y-140166666D01*
X128865476Y-140642857D01*
X130055952Y-142785714D02*
X130175000Y-143023809D01*
X130055952Y-143261904D01*
X129936904Y-143023809D01*
X130055952Y-142785714D01*
X130055952Y-143261904D01*
X130055952Y-140166666D02*
X130175000Y-140404761D01*
X130055952Y-140642857D01*
X129936904Y-140404761D01*
X130055952Y-140166666D01*
X130055952Y-140642857D01*
X131246428Y-143261904D02*
X131246428Y-138261904D01*
X132198809Y-138261904D01*
X132436904Y-138500000D01*
X132555952Y-138738095D01*
X132675000Y-139214285D01*
X132675000Y-139928571D01*
X132555952Y-140404761D01*
X132436904Y-140642857D01*
X132198809Y-140880952D01*
X131246428Y-140880952D01*
X133389285Y-138261904D02*
X134817857Y-138261904D01*
X134103571Y-143261904D02*
X134103571Y-138261904D01*
X135651190Y-143261904D02*
X135651190Y-138261904D01*
X137079761Y-143261904D01*
X137079761Y-138261904D01*
D11*
%TO.C,D1*%
X57384000Y-84955000D02*
X57384000Y-88045000D01*
X62444000Y-86500000D02*
G75*
G03*
X62444000Y-86500000I-2500000J0D01*
G01*
X62934000Y-86499538D02*
G75*
G02*
X57384000Y-88044830I-2990000J-462D01*
G01*
X62934000Y-86500462D02*
G75*
G03*
X57384000Y-84955170I-2990000J462D01*
G01*
%TO.C,J4*%
X146000000Y-96000000D02*
G75*
G03*
X146000000Y-96000000I-7000000J0D01*
G01*
%TO.C,J3*%
X146000000Y-70000000D02*
G75*
G03*
X146000000Y-70000000I-7000000J0D01*
G01*
%TO.C,J2*%
X120000000Y-70000000D02*
G75*
G03*
X120000000Y-70000000I-7000000J0D01*
G01*
%TO.C,J1*%
X94000000Y-70000000D02*
G75*
G03*
X94000000Y-70000000I-7000000J0D01*
G01*
%TO.C,RV3*%
X127521000Y-80380000D02*
X127521000Y-84317000D01*
X127521000Y-88684000D02*
X127521000Y-92620000D01*
X117480000Y-80380000D02*
X117480000Y-84317000D01*
X117480000Y-88684000D02*
X117480000Y-92620000D01*
X127521000Y-80380000D02*
X125871000Y-80380000D01*
X124129000Y-80380000D02*
X123370000Y-80380000D01*
X121629000Y-80380000D02*
X120870000Y-80380000D01*
X119130000Y-80380000D02*
X117480000Y-80380000D01*
X127521000Y-92620000D02*
X117480000Y-92620000D01*
%TO.C,SW1*%
X66150000Y-63850000D02*
X66150000Y-76150000D01*
X61570000Y-76150000D02*
X58430000Y-76150000D01*
X53850000Y-76150000D02*
X53850000Y-63850000D01*
X63430000Y-63850000D02*
X66150000Y-63850000D01*
X64539050Y-70100000D02*
G75*
G03*
X64539050Y-70100000I-4579050J0D01*
G01*
X53850000Y-63850000D02*
X56570000Y-63850000D01*
X58430000Y-63850000D02*
X61570000Y-63850000D01*
X56570000Y-76150000D02*
X53850000Y-76150000D01*
X66150000Y-76150000D02*
X63430000Y-76150000D01*
%TO.C,RV2*%
X101521000Y-80380000D02*
X101521000Y-84317000D01*
X101521000Y-88684000D02*
X101521000Y-92620000D01*
X91480000Y-80380000D02*
X91480000Y-84317000D01*
X91480000Y-88684000D02*
X91480000Y-92620000D01*
X101521000Y-80380000D02*
X99871000Y-80380000D01*
X98129000Y-80380000D02*
X97370000Y-80380000D01*
X95629000Y-80380000D02*
X94870000Y-80380000D01*
X93130000Y-80380000D02*
X91480000Y-80380000D01*
X101521000Y-92620000D02*
X91480000Y-92620000D01*
%TO.C,RV1*%
X75521000Y-80380000D02*
X75521000Y-84317000D01*
X75521000Y-88684000D02*
X75521000Y-92620000D01*
X65480000Y-80380000D02*
X65480000Y-84317000D01*
X65480000Y-88684000D02*
X65480000Y-92620000D01*
X75521000Y-80380000D02*
X73871000Y-80380000D01*
X72129000Y-80380000D02*
X71370000Y-80380000D01*
X69629000Y-80380000D02*
X68870000Y-80380000D01*
X67130000Y-80380000D02*
X65480000Y-80380000D01*
X75521000Y-92620000D02*
X65480000Y-92620000D01*
D14*
%TO.C,ARTWORK3*%
G36*
X70154507Y-57513780D02*
G01*
X70256504Y-57575985D01*
X70415138Y-57673912D01*
X70622910Y-57802861D01*
X70872318Y-57958129D01*
X71155862Y-58135015D01*
X71466043Y-58328817D01*
X71795358Y-58534832D01*
X72136308Y-58748359D01*
X72481393Y-58964697D01*
X72823113Y-59179143D01*
X73153966Y-59386995D01*
X73466452Y-59583552D01*
X73753071Y-59764111D01*
X74006323Y-59923972D01*
X74218708Y-60058431D01*
X74382724Y-60162788D01*
X74490871Y-60232340D01*
X74534284Y-60261328D01*
X74502773Y-60283980D01*
X74410160Y-60342799D01*
X74268062Y-60430594D01*
X74088098Y-60540170D01*
X73927478Y-60636996D01*
X73312221Y-61006368D01*
X73199361Y-60927051D01*
X73130033Y-60880992D01*
X73001571Y-60798146D01*
X72826644Y-60686586D01*
X72617924Y-60554385D01*
X72388081Y-60409617D01*
X72331117Y-60373857D01*
X71575733Y-59899982D01*
X71028560Y-60225338D01*
X70836415Y-60340677D01*
X70671491Y-60441737D01*
X70546929Y-60520304D01*
X70475870Y-60568163D01*
X70464604Y-60577850D01*
X70494097Y-60606946D01*
X70585937Y-60673969D01*
X70730415Y-60772392D01*
X70917822Y-60895685D01*
X71138449Y-61037319D01*
X71290759Y-61133420D01*
X71528424Y-61283463D01*
X71740157Y-61419161D01*
X71916003Y-61533968D01*
X72046010Y-61621336D01*
X72120222Y-61674720D01*
X72133849Y-61687909D01*
X72099745Y-61716825D01*
X72007250Y-61779149D01*
X71871253Y-61865872D01*
X71706640Y-61967988D01*
X71528298Y-62076491D01*
X71351114Y-62182373D01*
X71189976Y-62276629D01*
X71059769Y-62350251D01*
X70975383Y-62394232D01*
X70952438Y-62402667D01*
X70911881Y-62380682D01*
X70806071Y-62317336D01*
X70641298Y-62216537D01*
X70423855Y-62082198D01*
X70160033Y-61918228D01*
X69856125Y-61728538D01*
X69518421Y-61517039D01*
X69153215Y-61287641D01*
X68766797Y-61044254D01*
X68765056Y-61043156D01*
X68378163Y-60798974D01*
X68012388Y-60567797D01*
X67674049Y-60353638D01*
X67369467Y-60160514D01*
X67104961Y-59992439D01*
X66886848Y-59853429D01*
X66721449Y-59747499D01*
X66615083Y-59678665D01*
X66574091Y-59650964D01*
X66598580Y-59622087D01*
X66681545Y-59559131D01*
X66808654Y-59471229D01*
X66965574Y-59367511D01*
X67137973Y-59257111D01*
X67311516Y-59149161D01*
X67471870Y-59052791D01*
X67604704Y-58977134D01*
X67695684Y-58931321D01*
X67715119Y-58923987D01*
X67762987Y-58941447D01*
X67871069Y-58998087D01*
X68028226Y-59087514D01*
X68223317Y-59203331D01*
X68445204Y-59339142D01*
X68526870Y-59390051D01*
X69293078Y-59869936D01*
X69845706Y-59538480D01*
X70037129Y-59422008D01*
X70199795Y-59319867D01*
X70321158Y-59240189D01*
X70388672Y-59191103D01*
X70398333Y-59180342D01*
X70364211Y-59150666D01*
X70268996Y-59083339D01*
X70123420Y-58985546D01*
X69938211Y-58864469D01*
X69724101Y-58727291D01*
X69677361Y-58697674D01*
X69457424Y-58557782D01*
X69262864Y-58432521D01*
X69104725Y-58329128D01*
X68994053Y-58254837D01*
X68941893Y-58216883D01*
X68939475Y-58214323D01*
X68968559Y-58186308D01*
X69056254Y-58124663D01*
X69187989Y-58038330D01*
X69349189Y-57936251D01*
X69525282Y-57827369D01*
X69701694Y-57720626D01*
X69863852Y-57624964D01*
X69997184Y-57549325D01*
X70087115Y-57502651D01*
X70116647Y-57492000D01*
X70154507Y-57513780D01*
G37*
X70154507Y-57513780D02*
X70256504Y-57575985D01*
X70415138Y-57673912D01*
X70622910Y-57802861D01*
X70872318Y-57958129D01*
X71155862Y-58135015D01*
X71466043Y-58328817D01*
X71795358Y-58534832D01*
X72136308Y-58748359D01*
X72481393Y-58964697D01*
X72823113Y-59179143D01*
X73153966Y-59386995D01*
X73466452Y-59583552D01*
X73753071Y-59764111D01*
X74006323Y-59923972D01*
X74218708Y-60058431D01*
X74382724Y-60162788D01*
X74490871Y-60232340D01*
X74534284Y-60261328D01*
X74502773Y-60283980D01*
X74410160Y-60342799D01*
X74268062Y-60430594D01*
X74088098Y-60540170D01*
X73927478Y-60636996D01*
X73312221Y-61006368D01*
X73199361Y-60927051D01*
X73130033Y-60880992D01*
X73001571Y-60798146D01*
X72826644Y-60686586D01*
X72617924Y-60554385D01*
X72388081Y-60409617D01*
X72331117Y-60373857D01*
X71575733Y-59899982D01*
X71028560Y-60225338D01*
X70836415Y-60340677D01*
X70671491Y-60441737D01*
X70546929Y-60520304D01*
X70475870Y-60568163D01*
X70464604Y-60577850D01*
X70494097Y-60606946D01*
X70585937Y-60673969D01*
X70730415Y-60772392D01*
X70917822Y-60895685D01*
X71138449Y-61037319D01*
X71290759Y-61133420D01*
X71528424Y-61283463D01*
X71740157Y-61419161D01*
X71916003Y-61533968D01*
X72046010Y-61621336D01*
X72120222Y-61674720D01*
X72133849Y-61687909D01*
X72099745Y-61716825D01*
X72007250Y-61779149D01*
X71871253Y-61865872D01*
X71706640Y-61967988D01*
X71528298Y-62076491D01*
X71351114Y-62182373D01*
X71189976Y-62276629D01*
X71059769Y-62350251D01*
X70975383Y-62394232D01*
X70952438Y-62402667D01*
X70911881Y-62380682D01*
X70806071Y-62317336D01*
X70641298Y-62216537D01*
X70423855Y-62082198D01*
X70160033Y-61918228D01*
X69856125Y-61728538D01*
X69518421Y-61517039D01*
X69153215Y-61287641D01*
X68766797Y-61044254D01*
X68765056Y-61043156D01*
X68378163Y-60798974D01*
X68012388Y-60567797D01*
X67674049Y-60353638D01*
X67369467Y-60160514D01*
X67104961Y-59992439D01*
X66886848Y-59853429D01*
X66721449Y-59747499D01*
X66615083Y-59678665D01*
X66574091Y-59650964D01*
X66598580Y-59622087D01*
X66681545Y-59559131D01*
X66808654Y-59471229D01*
X66965574Y-59367511D01*
X67137973Y-59257111D01*
X67311516Y-59149161D01*
X67471870Y-59052791D01*
X67604704Y-58977134D01*
X67695684Y-58931321D01*
X67715119Y-58923987D01*
X67762987Y-58941447D01*
X67871069Y-58998087D01*
X68028226Y-59087514D01*
X68223317Y-59203331D01*
X68445204Y-59339142D01*
X68526870Y-59390051D01*
X69293078Y-59869936D01*
X69845706Y-59538480D01*
X70037129Y-59422008D01*
X70199795Y-59319867D01*
X70321158Y-59240189D01*
X70388672Y-59191103D01*
X70398333Y-59180342D01*
X70364211Y-59150666D01*
X70268996Y-59083339D01*
X70123420Y-58985546D01*
X69938211Y-58864469D01*
X69724101Y-58727291D01*
X69677361Y-58697674D01*
X69457424Y-58557782D01*
X69262864Y-58432521D01*
X69104725Y-58329128D01*
X68994053Y-58254837D01*
X68941893Y-58216883D01*
X68939475Y-58214323D01*
X68968559Y-58186308D01*
X69056254Y-58124663D01*
X69187989Y-58038330D01*
X69349189Y-57936251D01*
X69525282Y-57827369D01*
X69701694Y-57720626D01*
X69863852Y-57624964D01*
X69997184Y-57549325D01*
X70087115Y-57502651D01*
X70116647Y-57492000D01*
X70154507Y-57513780D01*
G36*
X67435000Y-53701040D02*
G01*
X67428545Y-53750887D01*
X67410043Y-53875366D01*
X67380787Y-54066359D01*
X67342073Y-54315747D01*
X67295193Y-54615410D01*
X67241441Y-54957230D01*
X67182112Y-55333088D01*
X67118500Y-55734865D01*
X67051898Y-56154441D01*
X66983600Y-56583698D01*
X66914900Y-57014518D01*
X66847093Y-57438780D01*
X66781472Y-57848367D01*
X66719331Y-58235158D01*
X66661964Y-58591036D01*
X66610664Y-58907881D01*
X66566727Y-59177574D01*
X66531446Y-59391997D01*
X66506114Y-59543030D01*
X66492026Y-59622555D01*
X66489613Y-59632961D01*
X66452974Y-59654927D01*
X66357436Y-59712914D01*
X66216354Y-59798799D01*
X66043078Y-59904461D01*
X65990001Y-59936855D01*
X65497503Y-60237507D01*
X65473963Y-60081837D01*
X65463904Y-60002063D01*
X65446530Y-59849615D01*
X65423089Y-59636052D01*
X65394828Y-59372934D01*
X65362994Y-59071819D01*
X65328835Y-58744265D01*
X65311669Y-58578020D01*
X65277056Y-58252843D01*
X65243787Y-57961170D01*
X65213072Y-57712075D01*
X65186119Y-57514629D01*
X65164138Y-57377904D01*
X65148338Y-57310973D01*
X65142356Y-57308020D01*
X65131216Y-57366348D01*
X65112491Y-57499311D01*
X65087328Y-57697331D01*
X65056870Y-57950826D01*
X65022264Y-58250217D01*
X64984654Y-58585924D01*
X64945185Y-58948366D01*
X64935681Y-59037167D01*
X64896737Y-59400853D01*
X64860460Y-59736961D01*
X64827847Y-60036467D01*
X64799891Y-60290347D01*
X64777589Y-60489580D01*
X64761936Y-60625141D01*
X64753928Y-60688008D01*
X64753198Y-60691352D01*
X64716841Y-60713293D01*
X64621524Y-60771269D01*
X64480542Y-60857183D01*
X64307192Y-60962937D01*
X64252068Y-60996585D01*
X63757303Y-61298632D01*
X63712735Y-61078066D01*
X63671373Y-60868792D01*
X63621089Y-60606901D01*
X63563492Y-60301364D01*
X63500191Y-59961153D01*
X63432793Y-59595242D01*
X63362906Y-59212602D01*
X63292138Y-58822205D01*
X63222097Y-58433025D01*
X63154392Y-58054032D01*
X63090629Y-57694200D01*
X63032419Y-57362501D01*
X62981367Y-57067907D01*
X62939083Y-56819391D01*
X62907174Y-56625924D01*
X62887249Y-56496478D01*
X62880915Y-56440028D01*
X62881214Y-56438445D01*
X62924714Y-56402312D01*
X63022376Y-56336058D01*
X63157951Y-56249488D01*
X63315190Y-56152405D01*
X63477846Y-56054614D01*
X63629670Y-55965918D01*
X63754414Y-55896122D01*
X63835829Y-55855029D01*
X63858523Y-55848746D01*
X63867586Y-55893267D01*
X63885735Y-56012314D01*
X63911682Y-56196382D01*
X63944138Y-56435969D01*
X63981816Y-56721571D01*
X64023428Y-57043685D01*
X64066472Y-57383139D01*
X64110555Y-57731442D01*
X64151762Y-58052304D01*
X64188831Y-58336257D01*
X64220500Y-58573830D01*
X64245508Y-58755554D01*
X64262592Y-58871961D01*
X64270416Y-58913528D01*
X64277846Y-58875776D01*
X64293653Y-58762443D01*
X64316791Y-58582085D01*
X64346215Y-58343261D01*
X64380879Y-58054529D01*
X64419739Y-57724448D01*
X64461747Y-57361576D01*
X64487026Y-57140489D01*
X64537268Y-56701708D01*
X64579606Y-56339463D01*
X64615229Y-56046115D01*
X64645323Y-55814023D01*
X64671077Y-55635548D01*
X64693676Y-55503049D01*
X64714309Y-55408885D01*
X64734164Y-55345417D01*
X64754427Y-55305004D01*
X64776157Y-55280118D01*
X64858688Y-55218193D01*
X64981948Y-55136495D01*
X65128302Y-55045405D01*
X65280118Y-54955306D01*
X65419762Y-54876580D01*
X65529601Y-54819609D01*
X65592000Y-54794776D01*
X65599267Y-54795490D01*
X65609230Y-54841137D01*
X65627799Y-54961142D01*
X65653678Y-55145780D01*
X65685566Y-55385323D01*
X65722165Y-55670045D01*
X65762176Y-55990220D01*
X65797724Y-56281538D01*
X65839567Y-56622978D01*
X65879156Y-56936195D01*
X65915191Y-57211652D01*
X65946374Y-57439808D01*
X65971405Y-57611125D01*
X65988986Y-57716065D01*
X65997140Y-57745953D01*
X66006843Y-57705377D01*
X66025140Y-57589487D01*
X66050870Y-57407074D01*
X66082873Y-57166927D01*
X66119989Y-56877836D01*
X66161057Y-56548589D01*
X66204916Y-56187977D01*
X66224885Y-56020917D01*
X66270343Y-55646835D01*
X66314592Y-55298243D01*
X66356332Y-54984279D01*
X66394262Y-54714080D01*
X66427084Y-54496785D01*
X66453497Y-54341532D01*
X66472202Y-54257460D01*
X66477411Y-54245610D01*
X66530343Y-54205160D01*
X66640181Y-54131409D01*
X66791225Y-54034604D01*
X66967775Y-53924996D01*
X66979917Y-53917576D01*
X67189177Y-53794388D01*
X67335716Y-53718417D01*
X67417450Y-53690653D01*
X67435000Y-53701040D01*
G37*
X67435000Y-53701040D02*
X67428545Y-53750887D01*
X67410043Y-53875366D01*
X67380787Y-54066359D01*
X67342073Y-54315747D01*
X67295193Y-54615410D01*
X67241441Y-54957230D01*
X67182112Y-55333088D01*
X67118500Y-55734865D01*
X67051898Y-56154441D01*
X66983600Y-56583698D01*
X66914900Y-57014518D01*
X66847093Y-57438780D01*
X66781472Y-57848367D01*
X66719331Y-58235158D01*
X66661964Y-58591036D01*
X66610664Y-58907881D01*
X66566727Y-59177574D01*
X66531446Y-59391997D01*
X66506114Y-59543030D01*
X66492026Y-59622555D01*
X66489613Y-59632961D01*
X66452974Y-59654927D01*
X66357436Y-59712914D01*
X66216354Y-59798799D01*
X66043078Y-59904461D01*
X65990001Y-59936855D01*
X65497503Y-60237507D01*
X65473963Y-60081837D01*
X65463904Y-60002063D01*
X65446530Y-59849615D01*
X65423089Y-59636052D01*
X65394828Y-59372934D01*
X65362994Y-59071819D01*
X65328835Y-58744265D01*
X65311669Y-58578020D01*
X65277056Y-58252843D01*
X65243787Y-57961170D01*
X65213072Y-57712075D01*
X65186119Y-57514629D01*
X65164138Y-57377904D01*
X65148338Y-57310973D01*
X65142356Y-57308020D01*
X65131216Y-57366348D01*
X65112491Y-57499311D01*
X65087328Y-57697331D01*
X65056870Y-57950826D01*
X65022264Y-58250217D01*
X64984654Y-58585924D01*
X64945185Y-58948366D01*
X64935681Y-59037167D01*
X64896737Y-59400853D01*
X64860460Y-59736961D01*
X64827847Y-60036467D01*
X64799891Y-60290347D01*
X64777589Y-60489580D01*
X64761936Y-60625141D01*
X64753928Y-60688008D01*
X64753198Y-60691352D01*
X64716841Y-60713293D01*
X64621524Y-60771269D01*
X64480542Y-60857183D01*
X64307192Y-60962937D01*
X64252068Y-60996585D01*
X63757303Y-61298632D01*
X63712735Y-61078066D01*
X63671373Y-60868792D01*
X63621089Y-60606901D01*
X63563492Y-60301364D01*
X63500191Y-59961153D01*
X63432793Y-59595242D01*
X63362906Y-59212602D01*
X63292138Y-58822205D01*
X63222097Y-58433025D01*
X63154392Y-58054032D01*
X63090629Y-57694200D01*
X63032419Y-57362501D01*
X62981367Y-57067907D01*
X62939083Y-56819391D01*
X62907174Y-56625924D01*
X62887249Y-56496478D01*
X62880915Y-56440028D01*
X62881214Y-56438445D01*
X62924714Y-56402312D01*
X63022376Y-56336058D01*
X63157951Y-56249488D01*
X63315190Y-56152405D01*
X63477846Y-56054614D01*
X63629670Y-55965918D01*
X63754414Y-55896122D01*
X63835829Y-55855029D01*
X63858523Y-55848746D01*
X63867586Y-55893267D01*
X63885735Y-56012314D01*
X63911682Y-56196382D01*
X63944138Y-56435969D01*
X63981816Y-56721571D01*
X64023428Y-57043685D01*
X64066472Y-57383139D01*
X64110555Y-57731442D01*
X64151762Y-58052304D01*
X64188831Y-58336257D01*
X64220500Y-58573830D01*
X64245508Y-58755554D01*
X64262592Y-58871961D01*
X64270416Y-58913528D01*
X64277846Y-58875776D01*
X64293653Y-58762443D01*
X64316791Y-58582085D01*
X64346215Y-58343261D01*
X64380879Y-58054529D01*
X64419739Y-57724448D01*
X64461747Y-57361576D01*
X64487026Y-57140489D01*
X64537268Y-56701708D01*
X64579606Y-56339463D01*
X64615229Y-56046115D01*
X64645323Y-55814023D01*
X64671077Y-55635548D01*
X64693676Y-55503049D01*
X64714309Y-55408885D01*
X64734164Y-55345417D01*
X64754427Y-55305004D01*
X64776157Y-55280118D01*
X64858688Y-55218193D01*
X64981948Y-55136495D01*
X65128302Y-55045405D01*
X65280118Y-54955306D01*
X65419762Y-54876580D01*
X65529601Y-54819609D01*
X65592000Y-54794776D01*
X65599267Y-54795490D01*
X65609230Y-54841137D01*
X65627799Y-54961142D01*
X65653678Y-55145780D01*
X65685566Y-55385323D01*
X65722165Y-55670045D01*
X65762176Y-55990220D01*
X65797724Y-56281538D01*
X65839567Y-56622978D01*
X65879156Y-56936195D01*
X65915191Y-57211652D01*
X65946374Y-57439808D01*
X65971405Y-57611125D01*
X65988986Y-57716065D01*
X65997140Y-57745953D01*
X66006843Y-57705377D01*
X66025140Y-57589487D01*
X66050870Y-57407074D01*
X66082873Y-57166927D01*
X66119989Y-56877836D01*
X66161057Y-56548589D01*
X66204916Y-56187977D01*
X66224885Y-56020917D01*
X66270343Y-55646835D01*
X66314592Y-55298243D01*
X66356332Y-54984279D01*
X66394262Y-54714080D01*
X66427084Y-54496785D01*
X66453497Y-54341532D01*
X66472202Y-54257460D01*
X66477411Y-54245610D01*
X66530343Y-54205160D01*
X66640181Y-54131409D01*
X66791225Y-54034604D01*
X66967775Y-53924996D01*
X66979917Y-53917576D01*
X67189177Y-53794388D01*
X67335716Y-53718417D01*
X67417450Y-53690653D01*
X67435000Y-53701040D01*
G36*
X80217868Y-58644903D02*
G01*
X80429402Y-58754675D01*
X80534147Y-58848899D01*
X80662507Y-59048718D01*
X80732288Y-59284481D01*
X80744270Y-59535006D01*
X80699230Y-59779110D01*
X80597949Y-59995611D01*
X80487205Y-60125636D01*
X80298955Y-60243724D01*
X80067799Y-60310111D01*
X79820358Y-60321410D01*
X79583253Y-60274232D01*
X79519415Y-60248761D01*
X79312299Y-60111079D01*
X79163003Y-59918469D01*
X79076667Y-59682283D01*
X79064092Y-59497210D01*
X79541441Y-59497210D01*
X79560256Y-59681219D01*
X79617416Y-59838308D01*
X79700497Y-59936750D01*
X79813406Y-59980385D01*
X79957401Y-59985236D01*
X80087641Y-59949987D01*
X80090997Y-59948227D01*
X80166256Y-59865909D01*
X80222268Y-59724973D01*
X80255668Y-59549967D01*
X80263088Y-59365437D01*
X80241164Y-59195929D01*
X80207220Y-59100667D01*
X80106229Y-58981284D01*
X79966446Y-58915482D01*
X79817602Y-58916611D01*
X79805418Y-58920243D01*
X79692959Y-58997798D01*
X79610003Y-59134086D01*
X79558760Y-59307694D01*
X79541441Y-59497210D01*
X79064092Y-59497210D01*
X79058429Y-59413872D01*
X79076578Y-59270467D01*
X79116898Y-59093911D01*
X79166693Y-58971150D01*
X79240793Y-58871478D01*
X79295607Y-58816937D01*
X79497266Y-58681220D01*
X79731637Y-58607655D01*
X79978558Y-58595723D01*
X80217868Y-58644903D01*
G37*
X80217868Y-58644903D02*
X80429402Y-58754675D01*
X80534147Y-58848899D01*
X80662507Y-59048718D01*
X80732288Y-59284481D01*
X80744270Y-59535006D01*
X80699230Y-59779110D01*
X80597949Y-59995611D01*
X80487205Y-60125636D01*
X80298955Y-60243724D01*
X80067799Y-60310111D01*
X79820358Y-60321410D01*
X79583253Y-60274232D01*
X79519415Y-60248761D01*
X79312299Y-60111079D01*
X79163003Y-59918469D01*
X79076667Y-59682283D01*
X79064092Y-59497210D01*
X79541441Y-59497210D01*
X79560256Y-59681219D01*
X79617416Y-59838308D01*
X79700497Y-59936750D01*
X79813406Y-59980385D01*
X79957401Y-59985236D01*
X80087641Y-59949987D01*
X80090997Y-59948227D01*
X80166256Y-59865909D01*
X80222268Y-59724973D01*
X80255668Y-59549967D01*
X80263088Y-59365437D01*
X80241164Y-59195929D01*
X80207220Y-59100667D01*
X80106229Y-58981284D01*
X79966446Y-58915482D01*
X79817602Y-58916611D01*
X79805418Y-58920243D01*
X79692959Y-58997798D01*
X79610003Y-59134086D01*
X79558760Y-59307694D01*
X79541441Y-59497210D01*
X79064092Y-59497210D01*
X79058429Y-59413872D01*
X79076578Y-59270467D01*
X79116898Y-59093911D01*
X79166693Y-58971150D01*
X79240793Y-58871478D01*
X79295607Y-58816937D01*
X79497266Y-58681220D01*
X79731637Y-58607655D01*
X79978558Y-58595723D01*
X80217868Y-58644903D01*
G36*
X82026481Y-58626146D02*
G01*
X82040287Y-58630085D01*
X82179455Y-58698815D01*
X82310401Y-58808138D01*
X82411568Y-58935079D01*
X82461399Y-59056662D01*
X82463333Y-59080973D01*
X82456925Y-59141209D01*
X82423774Y-59172304D01*
X82342988Y-59183811D01*
X82235089Y-59185334D01*
X82101344Y-59181538D01*
X82028683Y-59163721D01*
X81993638Y-59122236D01*
X81980589Y-59080722D01*
X81919651Y-58969187D01*
X81821148Y-58913446D01*
X81709929Y-58926928D01*
X81702771Y-58930564D01*
X81622804Y-59013114D01*
X81570603Y-59147331D01*
X81544797Y-59314477D01*
X81544010Y-59495819D01*
X81566870Y-59672620D01*
X81612003Y-59826144D01*
X81678035Y-59937658D01*
X81763594Y-59988425D01*
X81780415Y-59989667D01*
X81876526Y-59954036D01*
X81959662Y-59869494D01*
X81997538Y-59769564D01*
X81997667Y-59764083D01*
X82012407Y-59723565D01*
X82068661Y-59701860D01*
X82184477Y-59693850D01*
X82247208Y-59693334D01*
X82496750Y-59693334D01*
X82462267Y-59846226D01*
X82377869Y-60038906D01*
X82227489Y-60185456D01*
X82021552Y-60276223D01*
X81989844Y-60283723D01*
X81862266Y-60310429D01*
X81781369Y-60320829D01*
X81710818Y-60315238D01*
X81614276Y-60293972D01*
X81585977Y-60287230D01*
X81395789Y-60214938D01*
X81253433Y-60091541D01*
X81147123Y-59918158D01*
X81068810Y-59683217D01*
X81046066Y-59434536D01*
X81075260Y-59191334D01*
X81152763Y-58972826D01*
X81274946Y-58798231D01*
X81373578Y-58719220D01*
X81577482Y-58635469D01*
X81808764Y-58602620D01*
X82026481Y-58626146D01*
G37*
X82026481Y-58626146D02*
X82040287Y-58630085D01*
X82179455Y-58698815D01*
X82310401Y-58808138D01*
X82411568Y-58935079D01*
X82461399Y-59056662D01*
X82463333Y-59080973D01*
X82456925Y-59141209D01*
X82423774Y-59172304D01*
X82342988Y-59183811D01*
X82235089Y-59185334D01*
X82101344Y-59181538D01*
X82028683Y-59163721D01*
X81993638Y-59122236D01*
X81980589Y-59080722D01*
X81919651Y-58969187D01*
X81821148Y-58913446D01*
X81709929Y-58926928D01*
X81702771Y-58930564D01*
X81622804Y-59013114D01*
X81570603Y-59147331D01*
X81544797Y-59314477D01*
X81544010Y-59495819D01*
X81566870Y-59672620D01*
X81612003Y-59826144D01*
X81678035Y-59937658D01*
X81763594Y-59988425D01*
X81780415Y-59989667D01*
X81876526Y-59954036D01*
X81959662Y-59869494D01*
X81997538Y-59769564D01*
X81997667Y-59764083D01*
X82012407Y-59723565D01*
X82068661Y-59701860D01*
X82184477Y-59693850D01*
X82247208Y-59693334D01*
X82496750Y-59693334D01*
X82462267Y-59846226D01*
X82377869Y-60038906D01*
X82227489Y-60185456D01*
X82021552Y-60276223D01*
X81989844Y-60283723D01*
X81862266Y-60310429D01*
X81781369Y-60320829D01*
X81710818Y-60315238D01*
X81614276Y-60293972D01*
X81585977Y-60287230D01*
X81395789Y-60214938D01*
X81253433Y-60091541D01*
X81147123Y-59918158D01*
X81068810Y-59683217D01*
X81046066Y-59434536D01*
X81075260Y-59191334D01*
X81152763Y-58972826D01*
X81274946Y-58798231D01*
X81373578Y-58719220D01*
X81577482Y-58635469D01*
X81808764Y-58602620D01*
X82026481Y-58626146D01*
G36*
X85533160Y-58601546D02*
G01*
X85764022Y-58648913D01*
X85931823Y-58749454D01*
X86041986Y-58906553D01*
X86049425Y-58923990D01*
X86104243Y-59058334D01*
X85881471Y-59058334D01*
X85738269Y-59050977D01*
X85653799Y-59023776D01*
X85605824Y-58973667D01*
X85523083Y-58910998D01*
X85402828Y-58888646D01*
X85282887Y-58908305D01*
X85212055Y-58956049D01*
X85179099Y-59026210D01*
X85207680Y-59091594D01*
X85304071Y-59157341D01*
X85474544Y-59228595D01*
X85594421Y-59269487D01*
X85834681Y-59360056D01*
X85993896Y-59449726D01*
X86048099Y-59499184D01*
X86128787Y-59651115D01*
X86138194Y-59819435D01*
X86082016Y-59985273D01*
X85965946Y-60129761D01*
X85830943Y-60218662D01*
X85666363Y-60273456D01*
X85469464Y-60306121D01*
X85277042Y-60312912D01*
X85126674Y-60290340D01*
X84939014Y-60201813D01*
X84801581Y-60081211D01*
X84755858Y-60008248D01*
X84710141Y-59884618D01*
X84720771Y-59814487D01*
X84797433Y-59783736D01*
X84913798Y-59778000D01*
X85048245Y-59785440D01*
X85129252Y-59815517D01*
X85187326Y-59879869D01*
X85189500Y-59883161D01*
X85276042Y-59970277D01*
X85364010Y-60014828D01*
X85483496Y-60013243D01*
X85591470Y-59962023D01*
X85661308Y-59879087D01*
X85672677Y-59807075D01*
X85651689Y-59756562D01*
X85594601Y-59711163D01*
X85486364Y-59662443D01*
X85311931Y-59601967D01*
X85299667Y-59597986D01*
X85063189Y-59509923D01*
X84900684Y-59418833D01*
X84801698Y-59315330D01*
X84755775Y-59190032D01*
X84749333Y-59104015D01*
X84787826Y-58923885D01*
X84896124Y-58776661D01*
X85063457Y-58669246D01*
X85279057Y-58608546D01*
X85532153Y-58601463D01*
X85533160Y-58601546D01*
G37*
X85533160Y-58601546D02*
X85764022Y-58648913D01*
X85931823Y-58749454D01*
X86041986Y-58906553D01*
X86049425Y-58923990D01*
X86104243Y-59058334D01*
X85881471Y-59058334D01*
X85738269Y-59050977D01*
X85653799Y-59023776D01*
X85605824Y-58973667D01*
X85523083Y-58910998D01*
X85402828Y-58888646D01*
X85282887Y-58908305D01*
X85212055Y-58956049D01*
X85179099Y-59026210D01*
X85207680Y-59091594D01*
X85304071Y-59157341D01*
X85474544Y-59228595D01*
X85594421Y-59269487D01*
X85834681Y-59360056D01*
X85993896Y-59449726D01*
X86048099Y-59499184D01*
X86128787Y-59651115D01*
X86138194Y-59819435D01*
X86082016Y-59985273D01*
X85965946Y-60129761D01*
X85830943Y-60218662D01*
X85666363Y-60273456D01*
X85469464Y-60306121D01*
X85277042Y-60312912D01*
X85126674Y-60290340D01*
X84939014Y-60201813D01*
X84801581Y-60081211D01*
X84755858Y-60008248D01*
X84710141Y-59884618D01*
X84720771Y-59814487D01*
X84797433Y-59783736D01*
X84913798Y-59778000D01*
X85048245Y-59785440D01*
X85129252Y-59815517D01*
X85187326Y-59879869D01*
X85189500Y-59883161D01*
X85276042Y-59970277D01*
X85364010Y-60014828D01*
X85483496Y-60013243D01*
X85591470Y-59962023D01*
X85661308Y-59879087D01*
X85672677Y-59807075D01*
X85651689Y-59756562D01*
X85594601Y-59711163D01*
X85486364Y-59662443D01*
X85311931Y-59601967D01*
X85299667Y-59597986D01*
X85063189Y-59509923D01*
X84900684Y-59418833D01*
X84801698Y-59315330D01*
X84755775Y-59190032D01*
X84749333Y-59104015D01*
X84787826Y-58923885D01*
X84896124Y-58776661D01*
X85063457Y-58669246D01*
X85279057Y-58608546D01*
X85532153Y-58601463D01*
X85533160Y-58601546D01*
G36*
X87459833Y-58658973D02*
G01*
X87632005Y-58768087D01*
X87759105Y-58927606D01*
X87813133Y-59068917D01*
X87841280Y-59185334D01*
X87586473Y-59185334D01*
X87443471Y-59181880D01*
X87366100Y-59167661D01*
X87335469Y-59136886D01*
X87331667Y-59107228D01*
X87301065Y-59017844D01*
X87228764Y-58939897D01*
X87144020Y-58899531D01*
X87102877Y-58902757D01*
X86997175Y-58987333D01*
X86931008Y-59145255D01*
X86904057Y-59377377D01*
X86903353Y-59437039D01*
X86916038Y-59673868D01*
X86954531Y-59836397D01*
X87022114Y-59931939D01*
X87122068Y-59967809D01*
X87141737Y-59968500D01*
X87238769Y-59951426D01*
X87302165Y-59884658D01*
X87328723Y-59830917D01*
X87369608Y-59751361D01*
X87419451Y-59710432D01*
X87505200Y-59695358D01*
X87619062Y-59693334D01*
X87750604Y-59695163D01*
X87815926Y-59707734D01*
X87833472Y-59741673D01*
X87821689Y-59807602D01*
X87821179Y-59809750D01*
X87732658Y-60014707D01*
X87583724Y-60170503D01*
X87387298Y-60270294D01*
X87156301Y-60307233D01*
X86930902Y-60281414D01*
X86723799Y-60191178D01*
X86564309Y-60034920D01*
X86456695Y-59819343D01*
X86405220Y-59551153D01*
X86401263Y-59448557D01*
X86421940Y-59189960D01*
X86490329Y-58987615D01*
X86612896Y-58823836D01*
X86638536Y-58799510D01*
X86831941Y-58670530D01*
X87043896Y-58606546D01*
X87258495Y-58603909D01*
X87459833Y-58658973D01*
G37*
X87459833Y-58658973D02*
X87632005Y-58768087D01*
X87759105Y-58927606D01*
X87813133Y-59068917D01*
X87841280Y-59185334D01*
X87586473Y-59185334D01*
X87443471Y-59181880D01*
X87366100Y-59167661D01*
X87335469Y-59136886D01*
X87331667Y-59107228D01*
X87301065Y-59017844D01*
X87228764Y-58939897D01*
X87144020Y-58899531D01*
X87102877Y-58902757D01*
X86997175Y-58987333D01*
X86931008Y-59145255D01*
X86904057Y-59377377D01*
X86903353Y-59437039D01*
X86916038Y-59673868D01*
X86954531Y-59836397D01*
X87022114Y-59931939D01*
X87122068Y-59967809D01*
X87141737Y-59968500D01*
X87238769Y-59951426D01*
X87302165Y-59884658D01*
X87328723Y-59830917D01*
X87369608Y-59751361D01*
X87419451Y-59710432D01*
X87505200Y-59695358D01*
X87619062Y-59693334D01*
X87750604Y-59695163D01*
X87815926Y-59707734D01*
X87833472Y-59741673D01*
X87821689Y-59807602D01*
X87821179Y-59809750D01*
X87732658Y-60014707D01*
X87583724Y-60170503D01*
X87387298Y-60270294D01*
X87156301Y-60307233D01*
X86930902Y-60281414D01*
X86723799Y-60191178D01*
X86564309Y-60034920D01*
X86456695Y-59819343D01*
X86405220Y-59551153D01*
X86401263Y-59448557D01*
X86421940Y-59189960D01*
X86490329Y-58987615D01*
X86612896Y-58823836D01*
X86638536Y-58799510D01*
X86831941Y-58670530D01*
X87043896Y-58606546D01*
X87258495Y-58603909D01*
X87459833Y-58658973D01*
G36*
X90633667Y-59209283D02*
G01*
X90636797Y-59427726D01*
X90645366Y-59620759D01*
X90658143Y-59769934D01*
X90673894Y-59856804D01*
X90677489Y-59865450D01*
X90741344Y-59925510D01*
X90859414Y-59946922D01*
X90886132Y-59947334D01*
X90994693Y-59941894D01*
X91073202Y-59917772D01*
X91126485Y-59863261D01*
X91159366Y-59766654D01*
X91176670Y-59616246D01*
X91183221Y-59400331D01*
X91184000Y-59224643D01*
X91184000Y-58635000D01*
X91692000Y-58635000D01*
X91692000Y-59418167D01*
X91692547Y-59667836D01*
X91694068Y-59888084D01*
X91696383Y-60065013D01*
X91699311Y-60184725D01*
X91702583Y-60233084D01*
X91670745Y-60253082D01*
X91577637Y-60270227D01*
X91495133Y-60277483D01*
X91365465Y-60281403D01*
X91294095Y-60266714D01*
X91255040Y-60222889D01*
X91233892Y-60171650D01*
X91203541Y-60105736D01*
X91187701Y-60104453D01*
X91187342Y-60108153D01*
X91149558Y-60155200D01*
X91059126Y-60214535D01*
X90943830Y-60272003D01*
X90831453Y-60313449D01*
X90760667Y-60325546D01*
X90681960Y-60311332D01*
X90565135Y-60277153D01*
X90531683Y-60265649D01*
X90400004Y-60208654D01*
X90299978Y-60136079D01*
X90227401Y-60036349D01*
X90178066Y-59897894D01*
X90147767Y-59709139D01*
X90132297Y-59458513D01*
X90127510Y-59153584D01*
X90125667Y-58635000D01*
X90633667Y-58635000D01*
X90633667Y-59209283D01*
G37*
X90633667Y-59209283D02*
X90636797Y-59427726D01*
X90645366Y-59620759D01*
X90658143Y-59769934D01*
X90673894Y-59856804D01*
X90677489Y-59865450D01*
X90741344Y-59925510D01*
X90859414Y-59946922D01*
X90886132Y-59947334D01*
X90994693Y-59941894D01*
X91073202Y-59917772D01*
X91126485Y-59863261D01*
X91159366Y-59766654D01*
X91176670Y-59616246D01*
X91183221Y-59400331D01*
X91184000Y-59224643D01*
X91184000Y-58635000D01*
X91692000Y-58635000D01*
X91692000Y-59418167D01*
X91692547Y-59667836D01*
X91694068Y-59888084D01*
X91696383Y-60065013D01*
X91699311Y-60184725D01*
X91702583Y-60233084D01*
X91670745Y-60253082D01*
X91577637Y-60270227D01*
X91495133Y-60277483D01*
X91365465Y-60281403D01*
X91294095Y-60266714D01*
X91255040Y-60222889D01*
X91233892Y-60171650D01*
X91203541Y-60105736D01*
X91187701Y-60104453D01*
X91187342Y-60108153D01*
X91149558Y-60155200D01*
X91059126Y-60214535D01*
X90943830Y-60272003D01*
X90831453Y-60313449D01*
X90760667Y-60325546D01*
X90681960Y-60311332D01*
X90565135Y-60277153D01*
X90531683Y-60265649D01*
X90400004Y-60208654D01*
X90299978Y-60136079D01*
X90227401Y-60036349D01*
X90178066Y-59897894D01*
X90147767Y-59709139D01*
X90132297Y-59458513D01*
X90127510Y-59153584D01*
X90125667Y-58635000D01*
X90633667Y-58635000D01*
X90633667Y-59209283D01*
G36*
X93983884Y-58618458D02*
G01*
X94108114Y-58636014D01*
X94201404Y-58672024D01*
X94258531Y-58708250D01*
X94407259Y-58864245D01*
X94510801Y-59081699D01*
X94562283Y-59344084D01*
X94581151Y-59566334D01*
X94025575Y-59566334D01*
X93799531Y-59567086D01*
X93644742Y-59570673D01*
X93547804Y-59579091D01*
X93495310Y-59594333D01*
X93473853Y-59618395D01*
X93470000Y-59649008D01*
X93502434Y-59800238D01*
X93586875Y-59915497D01*
X93704031Y-59987042D01*
X93834609Y-60007130D01*
X93959318Y-59968019D01*
X94047411Y-59880753D01*
X94103940Y-59816890D01*
X94183047Y-59786296D01*
X94314423Y-59778026D01*
X94326125Y-59778000D01*
X94450680Y-59780232D01*
X94509427Y-59794940D01*
X94521222Y-59834147D01*
X94508736Y-59894417D01*
X94426508Y-60062912D01*
X94282560Y-60194545D01*
X94093635Y-60284264D01*
X93876478Y-60327018D01*
X93647831Y-60317755D01*
X93424438Y-60251425D01*
X93386173Y-60233084D01*
X93217565Y-60102549D01*
X93097123Y-59919035D01*
X93025668Y-59699754D01*
X93004021Y-59461918D01*
X93029076Y-59255151D01*
X93470000Y-59255151D01*
X93508761Y-59262471D01*
X93610763Y-59267774D01*
X93754588Y-59269989D01*
X93766333Y-59270000D01*
X93921151Y-59268444D01*
X94009757Y-59259382D01*
X94050599Y-59236227D01*
X94062127Y-59192387D01*
X94062667Y-59164167D01*
X94032353Y-59055810D01*
X93958670Y-58955908D01*
X93867505Y-58895317D01*
X93831825Y-58889000D01*
X93687579Y-58926434D01*
X93566868Y-59022395D01*
X93514440Y-59112819D01*
X93483659Y-59205281D01*
X93470037Y-59254440D01*
X93470000Y-59255151D01*
X93029076Y-59255151D01*
X93033004Y-59222739D01*
X93113438Y-58999431D01*
X93246145Y-58809206D01*
X93315179Y-58745317D01*
X93406120Y-58677547D01*
X93488625Y-58638131D01*
X93590767Y-58619487D01*
X93740621Y-58614032D01*
X93802013Y-58613834D01*
X93983884Y-58618458D01*
G37*
X93983884Y-58618458D02*
X94108114Y-58636014D01*
X94201404Y-58672024D01*
X94258531Y-58708250D01*
X94407259Y-58864245D01*
X94510801Y-59081699D01*
X94562283Y-59344084D01*
X94581151Y-59566334D01*
X94025575Y-59566334D01*
X93799531Y-59567086D01*
X93644742Y-59570673D01*
X93547804Y-59579091D01*
X93495310Y-59594333D01*
X93473853Y-59618395D01*
X93470000Y-59649008D01*
X93502434Y-59800238D01*
X93586875Y-59915497D01*
X93704031Y-59987042D01*
X93834609Y-60007130D01*
X93959318Y-59968019D01*
X94047411Y-59880753D01*
X94103940Y-59816890D01*
X94183047Y-59786296D01*
X94314423Y-59778026D01*
X94326125Y-59778000D01*
X94450680Y-59780232D01*
X94509427Y-59794940D01*
X94521222Y-59834147D01*
X94508736Y-59894417D01*
X94426508Y-60062912D01*
X94282560Y-60194545D01*
X94093635Y-60284264D01*
X93876478Y-60327018D01*
X93647831Y-60317755D01*
X93424438Y-60251425D01*
X93386173Y-60233084D01*
X93217565Y-60102549D01*
X93097123Y-59919035D01*
X93025668Y-59699754D01*
X93004021Y-59461918D01*
X93029076Y-59255151D01*
X93470000Y-59255151D01*
X93508761Y-59262471D01*
X93610763Y-59267774D01*
X93754588Y-59269989D01*
X93766333Y-59270000D01*
X93921151Y-59268444D01*
X94009757Y-59259382D01*
X94050599Y-59236227D01*
X94062127Y-59192387D01*
X94062667Y-59164167D01*
X94032353Y-59055810D01*
X93958670Y-58955908D01*
X93867505Y-58895317D01*
X93831825Y-58889000D01*
X93687579Y-58926434D01*
X93566868Y-59022395D01*
X93514440Y-59112819D01*
X93483659Y-59205281D01*
X93470037Y-59254440D01*
X93470000Y-59255151D01*
X93029076Y-59255151D01*
X93033004Y-59222739D01*
X93113438Y-58999431D01*
X93246145Y-58809206D01*
X93315179Y-58745317D01*
X93406120Y-58677547D01*
X93488625Y-58638131D01*
X93590767Y-58619487D01*
X93740621Y-58614032D01*
X93802013Y-58613834D01*
X93983884Y-58618458D01*
G36*
X77256333Y-58846667D02*
G01*
X78145333Y-58846667D01*
X78145333Y-57915334D01*
X78653333Y-57915334D01*
X78653333Y-60286000D01*
X78187667Y-60286000D01*
X78187667Y-59227667D01*
X77256333Y-59227667D01*
X77256333Y-60286000D01*
X77030555Y-60286000D01*
X76898809Y-60281093D01*
X76804308Y-60268502D01*
X76776555Y-60257778D01*
X76769144Y-60209625D01*
X76762460Y-60088001D01*
X76756771Y-59904104D01*
X76752343Y-59669129D01*
X76749443Y-59394271D01*
X76748337Y-59090725D01*
X76748333Y-59072445D01*
X76748333Y-57915334D01*
X77256333Y-57915334D01*
X77256333Y-58846667D01*
G37*
X77256333Y-58846667D02*
X78145333Y-58846667D01*
X78145333Y-57915334D01*
X78653333Y-57915334D01*
X78653333Y-60286000D01*
X78187667Y-60286000D01*
X78187667Y-59227667D01*
X77256333Y-59227667D01*
X77256333Y-60286000D01*
X77030555Y-60286000D01*
X76898809Y-60281093D01*
X76804308Y-60268502D01*
X76776555Y-60257778D01*
X76769144Y-60209625D01*
X76762460Y-60088001D01*
X76756771Y-59904104D01*
X76752343Y-59669129D01*
X76749443Y-59394271D01*
X76748337Y-59090725D01*
X76748333Y-59072445D01*
X76748333Y-57915334D01*
X77256333Y-57915334D01*
X77256333Y-58846667D01*
G36*
X83310000Y-58810479D02*
G01*
X83420128Y-58723852D01*
X83608722Y-58626378D01*
X83820995Y-58608219D01*
X84006892Y-58653303D01*
X84123134Y-58703794D01*
X84209695Y-58762479D01*
X84271272Y-58842145D01*
X84312559Y-58955583D01*
X84338249Y-59115581D01*
X84353039Y-59334929D01*
X84361469Y-59619250D01*
X84375772Y-60286000D01*
X83908913Y-60286000D01*
X83895206Y-59668664D01*
X83888781Y-59424950D01*
X83880783Y-59251925D01*
X83869235Y-59135614D01*
X83852159Y-59062040D01*
X83827575Y-59017228D01*
X83799325Y-58991331D01*
X83658720Y-58936025D01*
X83511965Y-58954832D01*
X83402046Y-59029312D01*
X83364966Y-59074731D01*
X83339412Y-59128687D01*
X83323263Y-59206804D01*
X83314395Y-59324704D01*
X83310685Y-59498011D01*
X83310000Y-59706645D01*
X83310000Y-60286000D01*
X82844333Y-60286000D01*
X82844333Y-57915334D01*
X83310000Y-57915334D01*
X83310000Y-58810479D01*
G37*
X83310000Y-58810479D02*
X83420128Y-58723852D01*
X83608722Y-58626378D01*
X83820995Y-58608219D01*
X84006892Y-58653303D01*
X84123134Y-58703794D01*
X84209695Y-58762479D01*
X84271272Y-58842145D01*
X84312559Y-58955583D01*
X84338249Y-59115581D01*
X84353039Y-59334929D01*
X84361469Y-59619250D01*
X84375772Y-60286000D01*
X83908913Y-60286000D01*
X83895206Y-59668664D01*
X83888781Y-59424950D01*
X83880783Y-59251925D01*
X83869235Y-59135614D01*
X83852159Y-59062040D01*
X83827575Y-59017228D01*
X83799325Y-58991331D01*
X83658720Y-58936025D01*
X83511965Y-58954832D01*
X83402046Y-59029312D01*
X83364966Y-59074731D01*
X83339412Y-59128687D01*
X83323263Y-59206804D01*
X83314395Y-59324704D01*
X83310685Y-59498011D01*
X83310000Y-59706645D01*
X83310000Y-60286000D01*
X82844333Y-60286000D01*
X82844333Y-57915334D01*
X83310000Y-57915334D01*
X83310000Y-58810479D01*
G36*
X88644000Y-58862507D02*
G01*
X88772201Y-58739682D01*
X88867044Y-58663171D01*
X88966087Y-58626864D01*
X89107629Y-58617343D01*
X89121451Y-58617335D01*
X89330444Y-58641269D01*
X89461080Y-58696193D01*
X89547368Y-58762087D01*
X89610561Y-58838053D01*
X89654136Y-58937812D01*
X89681568Y-59075087D01*
X89696331Y-59263602D01*
X89701900Y-59517078D01*
X89702333Y-59648898D01*
X89702333Y-60286000D01*
X89236667Y-60286000D01*
X89236667Y-59702753D01*
X89234564Y-59451421D01*
X89227355Y-59270745D01*
X89213684Y-59146802D01*
X89192195Y-59065663D01*
X89170766Y-59025420D01*
X89071000Y-58949124D01*
X88939467Y-58935622D01*
X88802116Y-58985762D01*
X88765106Y-59012162D01*
X88725441Y-59048623D01*
X88697459Y-59092972D01*
X88678661Y-59160093D01*
X88666547Y-59264872D01*
X88658619Y-59422194D01*
X88652377Y-59646943D01*
X88651383Y-59689496D01*
X88637600Y-60286000D01*
X88178333Y-60286000D01*
X88178333Y-57915334D01*
X88644000Y-57915334D01*
X88644000Y-58862507D01*
G37*
X88644000Y-58862507D02*
X88772201Y-58739682D01*
X88867044Y-58663171D01*
X88966087Y-58626864D01*
X89107629Y-58617343D01*
X89121451Y-58617335D01*
X89330444Y-58641269D01*
X89461080Y-58696193D01*
X89547368Y-58762087D01*
X89610561Y-58838053D01*
X89654136Y-58937812D01*
X89681568Y-59075087D01*
X89696331Y-59263602D01*
X89701900Y-59517078D01*
X89702333Y-59648898D01*
X89702333Y-60286000D01*
X89236667Y-60286000D01*
X89236667Y-59702753D01*
X89234564Y-59451421D01*
X89227355Y-59270745D01*
X89213684Y-59146802D01*
X89192195Y-59065663D01*
X89170766Y-59025420D01*
X89071000Y-58949124D01*
X88939467Y-58935622D01*
X88802116Y-58985762D01*
X88765106Y-59012162D01*
X88725441Y-59048623D01*
X88697459Y-59092972D01*
X88678661Y-59160093D01*
X88666547Y-59264872D01*
X88658619Y-59422194D01*
X88652377Y-59646943D01*
X88651383Y-59689496D01*
X88637600Y-60286000D01*
X88178333Y-60286000D01*
X88178333Y-57915334D01*
X88644000Y-57915334D01*
X88644000Y-58862507D01*
G36*
X92623333Y-60286000D02*
G01*
X92157667Y-60286000D01*
X92157667Y-57915334D01*
X92623333Y-57915334D01*
X92623333Y-60286000D01*
G37*
X92623333Y-60286000D02*
X92157667Y-60286000D01*
X92157667Y-57915334D01*
X92623333Y-57915334D01*
X92623333Y-60286000D01*
G36*
X80594593Y-55134861D02*
G01*
X80799519Y-55204006D01*
X80808916Y-55209167D01*
X80968098Y-55341910D01*
X81094672Y-55530407D01*
X81173883Y-55747647D01*
X81193333Y-55912812D01*
X81193333Y-56095000D01*
X80081589Y-56095000D01*
X80106874Y-56250818D01*
X80151455Y-56403443D01*
X80235994Y-56494377D01*
X80378342Y-56543719D01*
X80477023Y-56551509D01*
X80555757Y-56516955D01*
X80638176Y-56438830D01*
X80735101Y-56352151D01*
X80836012Y-56314095D01*
X80956318Y-56306667D01*
X81082304Y-56313829D01*
X81139021Y-56346066D01*
X81135193Y-56419500D01*
X81083564Y-56541814D01*
X80972582Y-56683076D01*
X80803928Y-56785120D01*
X80596900Y-56844003D01*
X80370794Y-56855782D01*
X80144909Y-56816512D01*
X80007355Y-56761750D01*
X79845202Y-56656528D01*
X79736829Y-56524435D01*
X79674321Y-56349358D01*
X79649760Y-56115183D01*
X79648608Y-56031500D01*
X79666331Y-55758530D01*
X79667830Y-55752945D01*
X80104532Y-55752945D01*
X80121711Y-55781417D01*
X80182541Y-55794652D01*
X80303622Y-55798471D01*
X80386147Y-55798667D01*
X80542050Y-55796907D01*
X80631602Y-55787640D01*
X80673104Y-55764887D01*
X80684859Y-55722670D01*
X80685333Y-55700925D01*
X80650911Y-55562542D01*
X80562483Y-55470708D01*
X80442307Y-55435198D01*
X80312641Y-55465787D01*
X80250212Y-55509823D01*
X80166397Y-55606146D01*
X80114895Y-55701745D01*
X80114402Y-55703417D01*
X80104532Y-55752945D01*
X79667830Y-55752945D01*
X79723186Y-55546805D01*
X79825914Y-55379348D01*
X79955539Y-55258210D01*
X80141910Y-55163727D01*
X80365159Y-55122023D01*
X80594593Y-55134861D01*
G37*
X80594593Y-55134861D02*
X80799519Y-55204006D01*
X80808916Y-55209167D01*
X80968098Y-55341910D01*
X81094672Y-55530407D01*
X81173883Y-55747647D01*
X81193333Y-55912812D01*
X81193333Y-56095000D01*
X80081589Y-56095000D01*
X80106874Y-56250818D01*
X80151455Y-56403443D01*
X80235994Y-56494377D01*
X80378342Y-56543719D01*
X80477023Y-56551509D01*
X80555757Y-56516955D01*
X80638176Y-56438830D01*
X80735101Y-56352151D01*
X80836012Y-56314095D01*
X80956318Y-56306667D01*
X81082304Y-56313829D01*
X81139021Y-56346066D01*
X81135193Y-56419500D01*
X81083564Y-56541814D01*
X80972582Y-56683076D01*
X80803928Y-56785120D01*
X80596900Y-56844003D01*
X80370794Y-56855782D01*
X80144909Y-56816512D01*
X80007355Y-56761750D01*
X79845202Y-56656528D01*
X79736829Y-56524435D01*
X79674321Y-56349358D01*
X79649760Y-56115183D01*
X79648608Y-56031500D01*
X79666331Y-55758530D01*
X79667830Y-55752945D01*
X80104532Y-55752945D01*
X80121711Y-55781417D01*
X80182541Y-55794652D01*
X80303622Y-55798471D01*
X80386147Y-55798667D01*
X80542050Y-55796907D01*
X80631602Y-55787640D01*
X80673104Y-55764887D01*
X80684859Y-55722670D01*
X80685333Y-55700925D01*
X80650911Y-55562542D01*
X80562483Y-55470708D01*
X80442307Y-55435198D01*
X80312641Y-55465787D01*
X80250212Y-55509823D01*
X80166397Y-55606146D01*
X80114895Y-55701745D01*
X80114402Y-55703417D01*
X80104532Y-55752945D01*
X79667830Y-55752945D01*
X79723186Y-55546805D01*
X79825914Y-55379348D01*
X79955539Y-55258210D01*
X80141910Y-55163727D01*
X80365159Y-55122023D01*
X80594593Y-55134861D01*
G36*
X82427284Y-55161779D02*
G01*
X82600850Y-55236265D01*
X82722040Y-55348188D01*
X82740126Y-55378479D01*
X82790019Y-55491820D01*
X82784823Y-55554863D01*
X82714424Y-55581826D01*
X82591823Y-55587000D01*
X82454555Y-55579224D01*
X82376006Y-55550379D01*
X82336333Y-55502334D01*
X82258266Y-55433884D01*
X82152810Y-55417667D01*
X82009498Y-55443726D01*
X81928562Y-55518259D01*
X81913000Y-55590331D01*
X81930325Y-55638945D01*
X81990340Y-55684744D01*
X82105102Y-55733710D01*
X82286669Y-55791826D01*
X82364757Y-55814446D01*
X82556329Y-55875547D01*
X82683510Y-55936153D01*
X82765552Y-56008883D01*
X82821708Y-56106360D01*
X82826219Y-56116942D01*
X82863925Y-56299348D01*
X82828618Y-56468076D01*
X82731726Y-56615594D01*
X82584678Y-56734375D01*
X82398904Y-56816889D01*
X82185832Y-56855605D01*
X81956891Y-56842996D01*
X81791165Y-56798825D01*
X81656497Y-56724992D01*
X81539955Y-56618134D01*
X81464123Y-56502390D01*
X81447333Y-56431306D01*
X81460176Y-56380327D01*
X81512772Y-56355859D01*
X81626220Y-56349051D01*
X81643562Y-56349000D01*
X81787093Y-56361072D01*
X81885188Y-56406133D01*
X81937874Y-56454834D01*
X82063645Y-56540231D01*
X82202426Y-56556528D01*
X82328869Y-56502602D01*
X82359742Y-56473522D01*
X82408184Y-56393798D01*
X82394323Y-56322199D01*
X82312266Y-56252743D01*
X82156120Y-56179449D01*
X82021472Y-56130127D01*
X81792620Y-56041642D01*
X81636427Y-55954450D01*
X81541655Y-55858457D01*
X81497065Y-55743572D01*
X81489667Y-55652540D01*
X81519537Y-55465742D01*
X81614672Y-55322583D01*
X81783359Y-55211124D01*
X81802192Y-55202349D01*
X82006968Y-55140880D01*
X82222328Y-55128670D01*
X82427284Y-55161779D01*
G37*
X82427284Y-55161779D02*
X82600850Y-55236265D01*
X82722040Y-55348188D01*
X82740126Y-55378479D01*
X82790019Y-55491820D01*
X82784823Y-55554863D01*
X82714424Y-55581826D01*
X82591823Y-55587000D01*
X82454555Y-55579224D01*
X82376006Y-55550379D01*
X82336333Y-55502334D01*
X82258266Y-55433884D01*
X82152810Y-55417667D01*
X82009498Y-55443726D01*
X81928562Y-55518259D01*
X81913000Y-55590331D01*
X81930325Y-55638945D01*
X81990340Y-55684744D01*
X82105102Y-55733710D01*
X82286669Y-55791826D01*
X82364757Y-55814446D01*
X82556329Y-55875547D01*
X82683510Y-55936153D01*
X82765552Y-56008883D01*
X82821708Y-56106360D01*
X82826219Y-56116942D01*
X82863925Y-56299348D01*
X82828618Y-56468076D01*
X82731726Y-56615594D01*
X82584678Y-56734375D01*
X82398904Y-56816889D01*
X82185832Y-56855605D01*
X81956891Y-56842996D01*
X81791165Y-56798825D01*
X81656497Y-56724992D01*
X81539955Y-56618134D01*
X81464123Y-56502390D01*
X81447333Y-56431306D01*
X81460176Y-56380327D01*
X81512772Y-56355859D01*
X81626220Y-56349051D01*
X81643562Y-56349000D01*
X81787093Y-56361072D01*
X81885188Y-56406133D01*
X81937874Y-56454834D01*
X82063645Y-56540231D01*
X82202426Y-56556528D01*
X82328869Y-56502602D01*
X82359742Y-56473522D01*
X82408184Y-56393798D01*
X82394323Y-56322199D01*
X82312266Y-56252743D01*
X82156120Y-56179449D01*
X82021472Y-56130127D01*
X81792620Y-56041642D01*
X81636427Y-55954450D01*
X81541655Y-55858457D01*
X81497065Y-55743572D01*
X81489667Y-55652540D01*
X81519537Y-55465742D01*
X81614672Y-55322583D01*
X81783359Y-55211124D01*
X81802192Y-55202349D01*
X82006968Y-55140880D01*
X82222328Y-55128670D01*
X82427284Y-55161779D01*
G36*
X86552806Y-55136377D02*
G01*
X86776226Y-55213229D01*
X86782947Y-55216584D01*
X86882951Y-55275590D01*
X86957283Y-55346095D01*
X87009706Y-55440925D01*
X87043978Y-55572909D01*
X87063861Y-55754874D01*
X87073115Y-55999648D01*
X87075277Y-56213736D01*
X87077667Y-56819306D01*
X86878287Y-56806403D01*
X86753007Y-56791990D01*
X86687700Y-56761534D01*
X86657744Y-56702474D01*
X86655300Y-56692631D01*
X86633279Y-56623144D01*
X86602280Y-56629710D01*
X86568930Y-56667439D01*
X86470066Y-56746468D01*
X86331517Y-56814689D01*
X86196673Y-56852326D01*
X86158276Y-56854611D01*
X86067717Y-56839293D01*
X85948910Y-56805237D01*
X85938632Y-56801694D01*
X85770992Y-56701361D01*
X85660362Y-56546621D01*
X85619126Y-56355017D01*
X85619091Y-56349000D01*
X85635625Y-56264685D01*
X86075660Y-56264685D01*
X86107016Y-56388599D01*
X86122632Y-56414573D01*
X86221927Y-56501271D01*
X86344401Y-56517634D01*
X86466782Y-56464114D01*
X86524261Y-56406791D01*
X86591470Y-56271608D01*
X86612000Y-56147381D01*
X86612000Y-55999512D01*
X86440818Y-56026886D01*
X86246320Y-56079248D01*
X86123348Y-56160041D01*
X86075660Y-56264685D01*
X85635625Y-56264685D01*
X85657766Y-56151782D01*
X85769189Y-55988858D01*
X85946458Y-55865813D01*
X86182670Y-55788231D01*
X86338774Y-55766674D01*
X86486437Y-55752301D01*
X86568528Y-55733517D01*
X86604045Y-55701839D01*
X86611986Y-55648788D01*
X86612000Y-55644704D01*
X86582563Y-55543051D01*
X86511718Y-55445376D01*
X86425660Y-55383266D01*
X86388586Y-55375334D01*
X86302051Y-55402506D01*
X86212554Y-55466143D01*
X86153782Y-55539419D01*
X86146333Y-55568234D01*
X86123318Y-55605185D01*
X86044511Y-55624286D01*
X85908911Y-55629334D01*
X85671488Y-55629334D01*
X85700542Y-55512917D01*
X85781392Y-55351032D01*
X85923331Y-55227977D01*
X86110071Y-55148210D01*
X86325325Y-55116190D01*
X86552806Y-55136377D01*
G37*
X86552806Y-55136377D02*
X86776226Y-55213229D01*
X86782947Y-55216584D01*
X86882951Y-55275590D01*
X86957283Y-55346095D01*
X87009706Y-55440925D01*
X87043978Y-55572909D01*
X87063861Y-55754874D01*
X87073115Y-55999648D01*
X87075277Y-56213736D01*
X87077667Y-56819306D01*
X86878287Y-56806403D01*
X86753007Y-56791990D01*
X86687700Y-56761534D01*
X86657744Y-56702474D01*
X86655300Y-56692631D01*
X86633279Y-56623144D01*
X86602280Y-56629710D01*
X86568930Y-56667439D01*
X86470066Y-56746468D01*
X86331517Y-56814689D01*
X86196673Y-56852326D01*
X86158276Y-56854611D01*
X86067717Y-56839293D01*
X85948910Y-56805237D01*
X85938632Y-56801694D01*
X85770992Y-56701361D01*
X85660362Y-56546621D01*
X85619126Y-56355017D01*
X85619091Y-56349000D01*
X85635625Y-56264685D01*
X86075660Y-56264685D01*
X86107016Y-56388599D01*
X86122632Y-56414573D01*
X86221927Y-56501271D01*
X86344401Y-56517634D01*
X86466782Y-56464114D01*
X86524261Y-56406791D01*
X86591470Y-56271608D01*
X86612000Y-56147381D01*
X86612000Y-55999512D01*
X86440818Y-56026886D01*
X86246320Y-56079248D01*
X86123348Y-56160041D01*
X86075660Y-56264685D01*
X85635625Y-56264685D01*
X85657766Y-56151782D01*
X85769189Y-55988858D01*
X85946458Y-55865813D01*
X86182670Y-55788231D01*
X86338774Y-55766674D01*
X86486437Y-55752301D01*
X86568528Y-55733517D01*
X86604045Y-55701839D01*
X86611986Y-55648788D01*
X86612000Y-55644704D01*
X86582563Y-55543051D01*
X86511718Y-55445376D01*
X86425660Y-55383266D01*
X86388586Y-55375334D01*
X86302051Y-55402506D01*
X86212554Y-55466143D01*
X86153782Y-55539419D01*
X86146333Y-55568234D01*
X86123318Y-55605185D01*
X86044511Y-55624286D01*
X85908911Y-55629334D01*
X85671488Y-55629334D01*
X85700542Y-55512917D01*
X85781392Y-55351032D01*
X85923331Y-55227977D01*
X86110071Y-55148210D01*
X86325325Y-55116190D01*
X86552806Y-55136377D01*
G36*
X90171233Y-55148484D02*
G01*
X90351972Y-55211450D01*
X90487767Y-55316545D01*
X90529460Y-55378479D01*
X90579686Y-55493126D01*
X90573464Y-55556225D01*
X90500914Y-55582531D01*
X90389850Y-55587000D01*
X90251370Y-55577383D01*
X90170146Y-55542802D01*
X90135491Y-55502334D01*
X90044060Y-55432083D01*
X89943274Y-55417667D01*
X89799315Y-55443588D01*
X89718067Y-55517873D01*
X89702333Y-55590331D01*
X89719659Y-55638945D01*
X89779673Y-55684744D01*
X89894435Y-55733710D01*
X90076002Y-55791826D01*
X90154090Y-55814446D01*
X90345663Y-55875547D01*
X90472843Y-55936153D01*
X90554885Y-56008883D01*
X90611041Y-56106360D01*
X90615552Y-56116942D01*
X90653259Y-56299348D01*
X90617951Y-56468076D01*
X90521059Y-56615594D01*
X90374012Y-56734375D01*
X90188237Y-56816889D01*
X89975165Y-56855605D01*
X89746224Y-56842996D01*
X89580498Y-56798825D01*
X89445830Y-56724992D01*
X89329289Y-56618134D01*
X89253456Y-56502390D01*
X89236667Y-56431306D01*
X89249510Y-56380327D01*
X89302105Y-56355859D01*
X89415553Y-56349051D01*
X89432895Y-56349000D01*
X89576426Y-56361072D01*
X89674522Y-56406133D01*
X89727207Y-56454834D01*
X89852979Y-56540231D01*
X89991760Y-56556528D01*
X90118203Y-56502602D01*
X90149076Y-56473522D01*
X90197518Y-56393798D01*
X90183656Y-56322199D01*
X90101599Y-56252743D01*
X89945453Y-56179449D01*
X89810805Y-56130127D01*
X89583673Y-56042740D01*
X89428637Y-55957131D01*
X89334058Y-55862570D01*
X89288296Y-55748326D01*
X89279000Y-55639864D01*
X89293632Y-55495922D01*
X89349197Y-55388599D01*
X89398753Y-55333735D01*
X89559310Y-55220273D01*
X89754906Y-55152104D01*
X89965546Y-55128439D01*
X90171233Y-55148484D01*
G37*
X90171233Y-55148484D02*
X90351972Y-55211450D01*
X90487767Y-55316545D01*
X90529460Y-55378479D01*
X90579686Y-55493126D01*
X90573464Y-55556225D01*
X90500914Y-55582531D01*
X90389850Y-55587000D01*
X90251370Y-55577383D01*
X90170146Y-55542802D01*
X90135491Y-55502334D01*
X90044060Y-55432083D01*
X89943274Y-55417667D01*
X89799315Y-55443588D01*
X89718067Y-55517873D01*
X89702333Y-55590331D01*
X89719659Y-55638945D01*
X89779673Y-55684744D01*
X89894435Y-55733710D01*
X90076002Y-55791826D01*
X90154090Y-55814446D01*
X90345663Y-55875547D01*
X90472843Y-55936153D01*
X90554885Y-56008883D01*
X90611041Y-56106360D01*
X90615552Y-56116942D01*
X90653259Y-56299348D01*
X90617951Y-56468076D01*
X90521059Y-56615594D01*
X90374012Y-56734375D01*
X90188237Y-56816889D01*
X89975165Y-56855605D01*
X89746224Y-56842996D01*
X89580498Y-56798825D01*
X89445830Y-56724992D01*
X89329289Y-56618134D01*
X89253456Y-56502390D01*
X89236667Y-56431306D01*
X89249510Y-56380327D01*
X89302105Y-56355859D01*
X89415553Y-56349051D01*
X89432895Y-56349000D01*
X89576426Y-56361072D01*
X89674522Y-56406133D01*
X89727207Y-56454834D01*
X89852979Y-56540231D01*
X89991760Y-56556528D01*
X90118203Y-56502602D01*
X90149076Y-56473522D01*
X90197518Y-56393798D01*
X90183656Y-56322199D01*
X90101599Y-56252743D01*
X89945453Y-56179449D01*
X89810805Y-56130127D01*
X89583673Y-56042740D01*
X89428637Y-55957131D01*
X89334058Y-55862570D01*
X89288296Y-55748326D01*
X89279000Y-55639864D01*
X89293632Y-55495922D01*
X89349197Y-55388599D01*
X89398753Y-55333735D01*
X89559310Y-55220273D01*
X89754906Y-55152104D01*
X89965546Y-55128439D01*
X90171233Y-55148484D01*
G36*
X91869675Y-55162572D02*
G01*
X92049324Y-55233022D01*
X92194511Y-55349525D01*
X92289885Y-55511247D01*
X92313049Y-55602096D01*
X92338078Y-55756334D01*
X92104997Y-55756334D01*
X91970996Y-55753611D01*
X91898439Y-55737786D01*
X91864121Y-55697371D01*
X91846306Y-55628283D01*
X91790480Y-55515664D01*
X91693544Y-55452566D01*
X91581906Y-55454071D01*
X91558869Y-55464109D01*
X91478644Y-55547451D01*
X91426848Y-55684778D01*
X91402283Y-55855928D01*
X91403753Y-56040738D01*
X91430059Y-56219047D01*
X91480005Y-56370691D01*
X91552392Y-56475510D01*
X91621066Y-56511336D01*
X91717512Y-56492370D01*
X91807430Y-56421251D01*
X91858434Y-56326451D01*
X91861333Y-56300106D01*
X91873303Y-56255086D01*
X91922117Y-56231402D01*
X92027134Y-56222710D01*
X92099705Y-56222000D01*
X92338078Y-56222000D01*
X92312961Y-56376775D01*
X92243576Y-56563250D01*
X92111788Y-56708158D01*
X91932333Y-56804836D01*
X91719945Y-56846621D01*
X91489359Y-56826853D01*
X91384682Y-56796493D01*
X91230116Y-56729277D01*
X91123387Y-56644113D01*
X91033776Y-56513691D01*
X91003558Y-56457666D01*
X90939275Y-56266664D01*
X90911786Y-56034214D01*
X90921535Y-55795334D01*
X90968965Y-55585042D01*
X90991787Y-55530306D01*
X91113479Y-55357981D01*
X91277466Y-55235879D01*
X91468394Y-55163166D01*
X91670915Y-55139008D01*
X91869675Y-55162572D01*
G37*
X91869675Y-55162572D02*
X92049324Y-55233022D01*
X92194511Y-55349525D01*
X92289885Y-55511247D01*
X92313049Y-55602096D01*
X92338078Y-55756334D01*
X92104997Y-55756334D01*
X91970996Y-55753611D01*
X91898439Y-55737786D01*
X91864121Y-55697371D01*
X91846306Y-55628283D01*
X91790480Y-55515664D01*
X91693544Y-55452566D01*
X91581906Y-55454071D01*
X91558869Y-55464109D01*
X91478644Y-55547451D01*
X91426848Y-55684778D01*
X91402283Y-55855928D01*
X91403753Y-56040738D01*
X91430059Y-56219047D01*
X91480005Y-56370691D01*
X91552392Y-56475510D01*
X91621066Y-56511336D01*
X91717512Y-56492370D01*
X91807430Y-56421251D01*
X91858434Y-56326451D01*
X91861333Y-56300106D01*
X91873303Y-56255086D01*
X91922117Y-56231402D01*
X92027134Y-56222710D01*
X92099705Y-56222000D01*
X92338078Y-56222000D01*
X92312961Y-56376775D01*
X92243576Y-56563250D01*
X92111788Y-56708158D01*
X91932333Y-56804836D01*
X91719945Y-56846621D01*
X91489359Y-56826853D01*
X91384682Y-56796493D01*
X91230116Y-56729277D01*
X91123387Y-56644113D01*
X91033776Y-56513691D01*
X91003558Y-56457666D01*
X90939275Y-56266664D01*
X90911786Y-56034214D01*
X90921535Y-55795334D01*
X90968965Y-55585042D01*
X90991787Y-55530306D01*
X91113479Y-55357981D01*
X91277466Y-55235879D01*
X91468394Y-55163166D01*
X91670915Y-55139008D01*
X91869675Y-55162572D01*
G36*
X95431117Y-55128521D02*
G01*
X95688476Y-55179774D01*
X95891282Y-55294644D01*
X96035660Y-55468924D01*
X96117735Y-55698409D01*
X96136070Y-55893917D01*
X96137000Y-56095000D01*
X95025750Y-56095000D01*
X95052163Y-56232584D01*
X95107289Y-56364686D01*
X95204922Y-56478626D01*
X95319944Y-56549314D01*
X95380617Y-56560667D01*
X95463200Y-56532042D01*
X95564211Y-56460675D01*
X95593179Y-56433667D01*
X95700662Y-56346683D01*
X95816140Y-56311118D01*
X95907423Y-56306667D01*
X96033167Y-56317574D01*
X96089918Y-56358709D01*
X96083559Y-56442696D01*
X96028359Y-56566096D01*
X95924240Y-56684107D01*
X95760557Y-56776051D01*
X95559885Y-56836391D01*
X95344799Y-56859587D01*
X95137874Y-56840104D01*
X95036355Y-56809441D01*
X94837459Y-56688092D01*
X94697913Y-56506532D01*
X94617931Y-56265141D01*
X94596995Y-56031500D01*
X94622899Y-55734740D01*
X94630946Y-55712076D01*
X95078667Y-55712076D01*
X95086092Y-55757259D01*
X95120394Y-55783281D01*
X95199616Y-55795334D01*
X95341797Y-55798608D01*
X95379589Y-55798667D01*
X95680512Y-55798667D01*
X95652951Y-55682250D01*
X95591000Y-55553471D01*
X95487923Y-55456823D01*
X95371022Y-55417689D01*
X95368386Y-55417667D01*
X95271306Y-55452062D01*
X95171741Y-55535620D01*
X95098664Y-55638898D01*
X95078667Y-55712076D01*
X94630946Y-55712076D01*
X94707457Y-55496609D01*
X94852704Y-55312782D01*
X94978298Y-55221726D01*
X95101443Y-55158366D01*
X95214062Y-55128653D01*
X95355067Y-55124578D01*
X95431117Y-55128521D01*
G37*
X95431117Y-55128521D02*
X95688476Y-55179774D01*
X95891282Y-55294644D01*
X96035660Y-55468924D01*
X96117735Y-55698409D01*
X96136070Y-55893917D01*
X96137000Y-56095000D01*
X95025750Y-56095000D01*
X95052163Y-56232584D01*
X95107289Y-56364686D01*
X95204922Y-56478626D01*
X95319944Y-56549314D01*
X95380617Y-56560667D01*
X95463200Y-56532042D01*
X95564211Y-56460675D01*
X95593179Y-56433667D01*
X95700662Y-56346683D01*
X95816140Y-56311118D01*
X95907423Y-56306667D01*
X96033167Y-56317574D01*
X96089918Y-56358709D01*
X96083559Y-56442696D01*
X96028359Y-56566096D01*
X95924240Y-56684107D01*
X95760557Y-56776051D01*
X95559885Y-56836391D01*
X95344799Y-56859587D01*
X95137874Y-56840104D01*
X95036355Y-56809441D01*
X94837459Y-56688092D01*
X94697913Y-56506532D01*
X94617931Y-56265141D01*
X94596995Y-56031500D01*
X94622899Y-55734740D01*
X94630946Y-55712076D01*
X95078667Y-55712076D01*
X95086092Y-55757259D01*
X95120394Y-55783281D01*
X95199616Y-55795334D01*
X95341797Y-55798608D01*
X95379589Y-55798667D01*
X95680512Y-55798667D01*
X95652951Y-55682250D01*
X95591000Y-55553471D01*
X95487923Y-55456823D01*
X95371022Y-55417689D01*
X95368386Y-55417667D01*
X95271306Y-55452062D01*
X95171741Y-55535620D01*
X95098664Y-55638898D01*
X95078667Y-55712076D01*
X94630946Y-55712076D01*
X94707457Y-55496609D01*
X94852704Y-55312782D01*
X94978298Y-55221726D01*
X95101443Y-55158366D01*
X95214062Y-55128653D01*
X95355067Y-55124578D01*
X95431117Y-55128521D01*
G36*
X78441404Y-55193578D02*
G01*
X78515846Y-55509983D01*
X78573108Y-55752787D01*
X78615707Y-55930729D01*
X78646161Y-56052551D01*
X78666990Y-56126994D01*
X78680710Y-56162798D01*
X78689839Y-56168705D01*
X78696897Y-56153456D01*
X78704400Y-56125791D01*
X78707178Y-56116167D01*
X78724200Y-56048096D01*
X78755264Y-55912656D01*
X78796919Y-55725318D01*
X78845718Y-55501555D01*
X78886489Y-55311834D01*
X78938122Y-55071403D01*
X78984875Y-54856272D01*
X79023404Y-54681628D01*
X79050363Y-54562659D01*
X79061265Y-54518084D01*
X79092223Y-54473356D01*
X79165673Y-54450655D01*
X79301818Y-54444018D01*
X79312353Y-54444000D01*
X79438992Y-54448833D01*
X79522522Y-54461285D01*
X79542333Y-54473044D01*
X79532326Y-54518774D01*
X79504499Y-54633537D01*
X79462143Y-54804375D01*
X79408551Y-55018329D01*
X79347013Y-55262441D01*
X79280822Y-55523751D01*
X79213268Y-55789302D01*
X79147644Y-56046134D01*
X79087242Y-56281289D01*
X79035352Y-56481808D01*
X78995266Y-56634732D01*
X78970277Y-56727103D01*
X78966363Y-56740584D01*
X78938525Y-56781987D01*
X78873839Y-56804797D01*
X78753102Y-56813821D01*
X78670318Y-56814667D01*
X78492693Y-56806156D01*
X78396957Y-56780714D01*
X78380049Y-56761750D01*
X78365626Y-56706052D01*
X78334971Y-56581148D01*
X78291272Y-56400243D01*
X78237712Y-56176543D01*
X78177479Y-55923251D01*
X78163010Y-55862167D01*
X77962597Y-55015500D01*
X77729771Y-55915084D01*
X77496945Y-56814667D01*
X76926825Y-56814667D01*
X76646661Y-55661084D01*
X76573984Y-55360684D01*
X76508347Y-55087176D01*
X76452295Y-54851339D01*
X76408370Y-54663953D01*
X76379118Y-54535796D01*
X76367082Y-54477649D01*
X76366915Y-54475750D01*
X76405586Y-54458899D01*
X76505553Y-54447387D01*
X76617825Y-54444000D01*
X76868317Y-54444000D01*
X76910650Y-54645084D01*
X76934050Y-54756946D01*
X76970433Y-54931725D01*
X77015644Y-55149421D01*
X77065528Y-55390037D01*
X77090898Y-55512566D01*
X77138263Y-55735629D01*
X77180739Y-55924841D01*
X77215131Y-56066797D01*
X77238240Y-56148095D01*
X77245811Y-56161966D01*
X77261141Y-56117701D01*
X77294152Y-56003900D01*
X77341413Y-55833016D01*
X77399493Y-55617507D01*
X77464960Y-55369827D01*
X77481889Y-55305068D01*
X77700969Y-54465167D01*
X77982485Y-54452744D01*
X78264002Y-54440322D01*
X78441404Y-55193578D01*
G37*
X78441404Y-55193578D02*
X78515846Y-55509983D01*
X78573108Y-55752787D01*
X78615707Y-55930729D01*
X78646161Y-56052551D01*
X78666990Y-56126994D01*
X78680710Y-56162798D01*
X78689839Y-56168705D01*
X78696897Y-56153456D01*
X78704400Y-56125791D01*
X78707178Y-56116167D01*
X78724200Y-56048096D01*
X78755264Y-55912656D01*
X78796919Y-55725318D01*
X78845718Y-55501555D01*
X78886489Y-55311834D01*
X78938122Y-55071403D01*
X78984875Y-54856272D01*
X79023404Y-54681628D01*
X79050363Y-54562659D01*
X79061265Y-54518084D01*
X79092223Y-54473356D01*
X79165673Y-54450655D01*
X79301818Y-54444018D01*
X79312353Y-54444000D01*
X79438992Y-54448833D01*
X79522522Y-54461285D01*
X79542333Y-54473044D01*
X79532326Y-54518774D01*
X79504499Y-54633537D01*
X79462143Y-54804375D01*
X79408551Y-55018329D01*
X79347013Y-55262441D01*
X79280822Y-55523751D01*
X79213268Y-55789302D01*
X79147644Y-56046134D01*
X79087242Y-56281289D01*
X79035352Y-56481808D01*
X78995266Y-56634732D01*
X78970277Y-56727103D01*
X78966363Y-56740584D01*
X78938525Y-56781987D01*
X78873839Y-56804797D01*
X78753102Y-56813821D01*
X78670318Y-56814667D01*
X78492693Y-56806156D01*
X78396957Y-56780714D01*
X78380049Y-56761750D01*
X78365626Y-56706052D01*
X78334971Y-56581148D01*
X78291272Y-56400243D01*
X78237712Y-56176543D01*
X78177479Y-55923251D01*
X78163010Y-55862167D01*
X77962597Y-55015500D01*
X77729771Y-55915084D01*
X77496945Y-56814667D01*
X76926825Y-56814667D01*
X76646661Y-55661084D01*
X76573984Y-55360684D01*
X76508347Y-55087176D01*
X76452295Y-54851339D01*
X76408370Y-54663953D01*
X76379118Y-54535796D01*
X76367082Y-54477649D01*
X76366915Y-54475750D01*
X76405586Y-54458899D01*
X76505553Y-54447387D01*
X76617825Y-54444000D01*
X76868317Y-54444000D01*
X76910650Y-54645084D01*
X76934050Y-54756946D01*
X76970433Y-54931725D01*
X77015644Y-55149421D01*
X77065528Y-55390037D01*
X77090898Y-55512566D01*
X77138263Y-55735629D01*
X77180739Y-55924841D01*
X77215131Y-56066797D01*
X77238240Y-56148095D01*
X77245811Y-56161966D01*
X77261141Y-56117701D01*
X77294152Y-56003900D01*
X77341413Y-55833016D01*
X77399493Y-55617507D01*
X77464960Y-55369827D01*
X77481889Y-55305068D01*
X77700969Y-54465167D01*
X77982485Y-54452744D01*
X78264002Y-54440322D01*
X78441404Y-55193578D01*
G36*
X83802263Y-54736286D02*
G01*
X83814901Y-54835044D01*
X83818000Y-54930834D01*
X83818000Y-55163667D01*
X84008500Y-55163667D01*
X84125554Y-55166884D01*
X84180983Y-55188284D01*
X84197828Y-55245494D01*
X84199000Y-55309399D01*
X84193653Y-55401163D01*
X84161856Y-55445476D01*
X84079972Y-55463194D01*
X84019083Y-55468149D01*
X83839167Y-55481167D01*
X83827054Y-55919486D01*
X83824372Y-56146860D01*
X83834718Y-56302943D01*
X83863515Y-56400768D01*
X83916183Y-56453367D01*
X83998146Y-56473775D01*
X84058572Y-56476000D01*
X84153224Y-56481153D01*
X84191376Y-56513292D01*
X84193895Y-56597435D01*
X84190972Y-56634750D01*
X84177833Y-56793500D01*
X83877727Y-56805801D01*
X83706082Y-56808185D01*
X83593006Y-56795218D01*
X83513107Y-56762467D01*
X83475560Y-56735596D01*
X83434669Y-56698020D01*
X83405681Y-56652466D01*
X83385813Y-56583840D01*
X83372284Y-56477051D01*
X83362311Y-56317006D01*
X83353112Y-56088613D01*
X83352333Y-56067129D01*
X83331167Y-55481167D01*
X83172417Y-55468028D01*
X83068353Y-55453214D01*
X83023831Y-55415582D01*
X83013758Y-55330038D01*
X83013667Y-55309278D01*
X83018948Y-55216040D01*
X83051061Y-55174603D01*
X83134404Y-55163985D01*
X83183000Y-55163667D01*
X83291388Y-55159522D01*
X83339550Y-55131177D01*
X83351927Y-55054766D01*
X83352333Y-54998313D01*
X83357511Y-54897832D01*
X83387096Y-54839026D01*
X83462165Y-54797117D01*
X83550374Y-54765480D01*
X83672228Y-54726191D01*
X83760292Y-54701864D01*
X83783208Y-54698000D01*
X83802263Y-54736286D01*
G37*
X83802263Y-54736286D02*
X83814901Y-54835044D01*
X83818000Y-54930834D01*
X83818000Y-55163667D01*
X84008500Y-55163667D01*
X84125554Y-55166884D01*
X84180983Y-55188284D01*
X84197828Y-55245494D01*
X84199000Y-55309399D01*
X84193653Y-55401163D01*
X84161856Y-55445476D01*
X84079972Y-55463194D01*
X84019083Y-55468149D01*
X83839167Y-55481167D01*
X83827054Y-55919486D01*
X83824372Y-56146860D01*
X83834718Y-56302943D01*
X83863515Y-56400768D01*
X83916183Y-56453367D01*
X83998146Y-56473775D01*
X84058572Y-56476000D01*
X84153224Y-56481153D01*
X84191376Y-56513292D01*
X84193895Y-56597435D01*
X84190972Y-56634750D01*
X84177833Y-56793500D01*
X83877727Y-56805801D01*
X83706082Y-56808185D01*
X83593006Y-56795218D01*
X83513107Y-56762467D01*
X83475560Y-56735596D01*
X83434669Y-56698020D01*
X83405681Y-56652466D01*
X83385813Y-56583840D01*
X83372284Y-56477051D01*
X83362311Y-56317006D01*
X83353112Y-56088613D01*
X83352333Y-56067129D01*
X83331167Y-55481167D01*
X83172417Y-55468028D01*
X83068353Y-55453214D01*
X83023831Y-55415582D01*
X83013758Y-55330038D01*
X83013667Y-55309278D01*
X83018948Y-55216040D01*
X83051061Y-55174603D01*
X83134404Y-55163985D01*
X83183000Y-55163667D01*
X83291388Y-55159522D01*
X83339550Y-55131177D01*
X83351927Y-55054766D01*
X83352333Y-54998313D01*
X83357511Y-54897832D01*
X83387096Y-54839026D01*
X83462165Y-54797117D01*
X83550374Y-54765480D01*
X83672228Y-54726191D01*
X83760292Y-54701864D01*
X83783208Y-54698000D01*
X83802263Y-54736286D01*
G36*
X85361168Y-54418549D02*
G01*
X85436043Y-54452548D01*
X85465495Y-54522284D01*
X85469000Y-54592973D01*
X85460521Y-54693319D01*
X85424320Y-54734136D01*
X85371258Y-54740334D01*
X85231526Y-54775033D01*
X85143949Y-54874169D01*
X85116351Y-54996251D01*
X85117817Y-55092474D01*
X85151005Y-55136405D01*
X85239834Y-55153197D01*
X85267917Y-55155639D01*
X85370177Y-55169456D01*
X85415171Y-55205686D01*
X85426380Y-55290939D01*
X85426667Y-55335556D01*
X85422484Y-55442307D01*
X85393644Y-55489742D01*
X85315705Y-55501933D01*
X85257333Y-55502334D01*
X85088000Y-55502334D01*
X85088000Y-56814667D01*
X84622333Y-56814667D01*
X84622333Y-55507957D01*
X84505917Y-55494562D01*
X84427320Y-55473835D01*
X84390289Y-55418239D01*
X84376361Y-55322417D01*
X84372824Y-55218675D01*
X84397815Y-55174096D01*
X84469578Y-55163801D01*
X84492778Y-55163667D01*
X84575592Y-55157291D01*
X84612572Y-55122029D01*
X84622088Y-55033676D01*
X84622333Y-54992974D01*
X84643356Y-54810985D01*
X84699243Y-54646569D01*
X84779220Y-54526387D01*
X84825114Y-54491089D01*
X84958922Y-54443831D01*
X85128464Y-54414388D01*
X85289596Y-54408734D01*
X85361168Y-54418549D01*
G37*
X85361168Y-54418549D02*
X85436043Y-54452548D01*
X85465495Y-54522284D01*
X85469000Y-54592973D01*
X85460521Y-54693319D01*
X85424320Y-54734136D01*
X85371258Y-54740334D01*
X85231526Y-54775033D01*
X85143949Y-54874169D01*
X85116351Y-54996251D01*
X85117817Y-55092474D01*
X85151005Y-55136405D01*
X85239834Y-55153197D01*
X85267917Y-55155639D01*
X85370177Y-55169456D01*
X85415171Y-55205686D01*
X85426380Y-55290939D01*
X85426667Y-55335556D01*
X85422484Y-55442307D01*
X85393644Y-55489742D01*
X85315705Y-55501933D01*
X85257333Y-55502334D01*
X85088000Y-55502334D01*
X85088000Y-56814667D01*
X84622333Y-56814667D01*
X84622333Y-55507957D01*
X84505917Y-55494562D01*
X84427320Y-55473835D01*
X84390289Y-55418239D01*
X84376361Y-55322417D01*
X84372824Y-55218675D01*
X84397815Y-55174096D01*
X84469578Y-55163801D01*
X84492778Y-55163667D01*
X84575592Y-55157291D01*
X84612572Y-55122029D01*
X84622088Y-55033676D01*
X84622333Y-54992974D01*
X84643356Y-54810985D01*
X84699243Y-54646569D01*
X84779220Y-54526387D01*
X84825114Y-54491089D01*
X84958922Y-54443831D01*
X85128464Y-54414388D01*
X85289596Y-54408734D01*
X85361168Y-54418549D01*
G36*
X87966667Y-56814667D02*
G01*
X87501000Y-56814667D01*
X87501000Y-54444000D01*
X87966667Y-54444000D01*
X87966667Y-56814667D01*
G37*
X87966667Y-56814667D02*
X87501000Y-56814667D01*
X87501000Y-54444000D01*
X87966667Y-54444000D01*
X87966667Y-56814667D01*
G36*
X88898000Y-56814667D02*
G01*
X88432333Y-56814667D01*
X88432333Y-55163667D01*
X88898000Y-55163667D01*
X88898000Y-56814667D01*
G37*
X88898000Y-56814667D02*
X88432333Y-56814667D01*
X88432333Y-55163667D01*
X88898000Y-55163667D01*
X88898000Y-56814667D01*
G36*
X93173667Y-55335535D02*
G01*
X93300830Y-55241518D01*
X93451035Y-55174123D01*
X93637570Y-55149499D01*
X93823126Y-55168708D01*
X93956208Y-55222864D01*
X94046709Y-55289765D01*
X94113340Y-55363849D01*
X94160105Y-55459167D01*
X94191005Y-55589770D01*
X94210045Y-55769707D01*
X94221226Y-56013031D01*
X94225216Y-56167088D01*
X94239599Y-56814667D01*
X93774452Y-56814667D01*
X93759809Y-56226378D01*
X93752392Y-55985089D01*
X93742728Y-55813470D01*
X93728707Y-55696526D01*
X93708221Y-55619261D01*
X93679159Y-55566678D01*
X93664522Y-55549045D01*
X93546743Y-55475514D01*
X93407423Y-55467820D01*
X93278684Y-55526307D01*
X93258333Y-55544667D01*
X93224426Y-55585829D01*
X93200942Y-55639836D01*
X93186004Y-55721705D01*
X93177735Y-55846450D01*
X93174259Y-56029090D01*
X93173667Y-56222000D01*
X93173667Y-56814667D01*
X92947889Y-56814667D01*
X92816142Y-56809759D01*
X92721642Y-56797168D01*
X92693889Y-56786445D01*
X92686477Y-56738291D01*
X92679794Y-56616668D01*
X92674104Y-56432771D01*
X92669676Y-56197795D01*
X92666776Y-55922937D01*
X92665670Y-55619392D01*
X92665667Y-55601111D01*
X92665667Y-54444000D01*
X93173667Y-54444000D01*
X93173667Y-55335535D01*
G37*
X93173667Y-55335535D02*
X93300830Y-55241518D01*
X93451035Y-55174123D01*
X93637570Y-55149499D01*
X93823126Y-55168708D01*
X93956208Y-55222864D01*
X94046709Y-55289765D01*
X94113340Y-55363849D01*
X94160105Y-55459167D01*
X94191005Y-55589770D01*
X94210045Y-55769707D01*
X94221226Y-56013031D01*
X94225216Y-56167088D01*
X94239599Y-56814667D01*
X93774452Y-56814667D01*
X93759809Y-56226378D01*
X93752392Y-55985089D01*
X93742728Y-55813470D01*
X93728707Y-55696526D01*
X93708221Y-55619261D01*
X93679159Y-55566678D01*
X93664522Y-55549045D01*
X93546743Y-55475514D01*
X93407423Y-55467820D01*
X93278684Y-55526307D01*
X93258333Y-55544667D01*
X93224426Y-55585829D01*
X93200942Y-55639836D01*
X93186004Y-55721705D01*
X93177735Y-55846450D01*
X93174259Y-56029090D01*
X93173667Y-56222000D01*
X93173667Y-56814667D01*
X92947889Y-56814667D01*
X92816142Y-56809759D01*
X92721642Y-56797168D01*
X92693889Y-56786445D01*
X92686477Y-56738291D01*
X92679794Y-56616668D01*
X92674104Y-56432771D01*
X92669676Y-56197795D01*
X92666776Y-55922937D01*
X92665670Y-55619392D01*
X92665667Y-55601111D01*
X92665667Y-54444000D01*
X93173667Y-54444000D01*
X93173667Y-55335535D01*
G36*
X86265184Y-54666250D02*
G01*
X86252362Y-54779527D01*
X86220696Y-54833678D01*
X86147537Y-54854158D01*
X86093417Y-54859306D01*
X85934667Y-54872444D01*
X85934667Y-54486334D01*
X86278201Y-54486334D01*
X86265184Y-54666250D01*
G37*
X86265184Y-54666250D02*
X86252362Y-54779527D01*
X86220696Y-54833678D01*
X86147537Y-54854158D01*
X86093417Y-54859306D01*
X85934667Y-54872444D01*
X85934667Y-54486334D01*
X86278201Y-54486334D01*
X86265184Y-54666250D01*
G36*
X86815517Y-54666250D02*
G01*
X86802696Y-54779527D01*
X86771029Y-54833678D01*
X86697870Y-54854158D01*
X86643750Y-54859306D01*
X86485000Y-54872444D01*
X86485000Y-54486334D01*
X86828535Y-54486334D01*
X86815517Y-54666250D01*
G37*
X86815517Y-54666250D02*
X86802696Y-54779527D01*
X86771029Y-54833678D01*
X86697870Y-54854158D01*
X86643750Y-54859306D01*
X86485000Y-54872444D01*
X86485000Y-54486334D01*
X86828535Y-54486334D01*
X86815517Y-54666250D01*
G36*
X88898000Y-54867334D02*
G01*
X88390000Y-54867334D01*
X88390000Y-54444000D01*
X88898000Y-54444000D01*
X88898000Y-54867334D01*
G37*
X88898000Y-54867334D02*
X88390000Y-54867334D01*
X88390000Y-54444000D01*
X88898000Y-54444000D01*
X88898000Y-54867334D01*
%TO.C,ARTWORK2*%
G36*
X68917667Y-145704667D02*
G01*
X63753000Y-145704667D01*
X63753000Y-141302000D01*
X64472667Y-141302000D01*
X64472667Y-144985000D01*
X68155667Y-144985000D01*
X68155667Y-141302000D01*
X64472667Y-141302000D01*
X63753000Y-141302000D01*
X63753000Y-140540000D01*
X68917667Y-140540000D01*
X68917667Y-145704667D01*
G37*
X68917667Y-145704667D02*
X63753000Y-145704667D01*
X63753000Y-141302000D01*
X64472667Y-141302000D01*
X64472667Y-144985000D01*
X68155667Y-144985000D01*
X68155667Y-141302000D01*
X64472667Y-141302000D01*
X63753000Y-141302000D01*
X63753000Y-140540000D01*
X68917667Y-140540000D01*
X68917667Y-145704667D01*
G36*
X78485000Y-145704667D02*
G01*
X77723000Y-145704667D01*
X77723000Y-144985000D01*
X78485000Y-144985000D01*
X78485000Y-145704667D01*
G37*
X78485000Y-145704667D02*
X77723000Y-145704667D01*
X77723000Y-144985000D01*
X78485000Y-144985000D01*
X78485000Y-145704667D01*
G36*
X74802000Y-136857000D02*
G01*
X74802000Y-136137334D01*
X75521667Y-136137334D01*
X75521667Y-136857000D01*
X74802000Y-136857000D01*
G37*
X74802000Y-136857000D02*
X74802000Y-136137334D01*
X75521667Y-136137334D01*
X75521667Y-136857000D01*
X74802000Y-136857000D01*
G36*
X77003334Y-142783667D02*
G01*
X78485000Y-142783667D01*
X78485000Y-143503334D01*
X77723000Y-143503334D01*
X77723000Y-144985000D01*
X77003334Y-144985000D01*
X77003334Y-142783667D01*
G37*
X77003334Y-142783667D02*
X78485000Y-142783667D01*
X78485000Y-143503334D01*
X77723000Y-143503334D01*
X77723000Y-144985000D01*
X77003334Y-144985000D01*
X77003334Y-142783667D01*
G36*
X78485000Y-139100667D02*
G01*
X79204667Y-139100667D01*
X79204667Y-140540000D01*
X78485000Y-140540000D01*
X78485000Y-139100667D01*
G37*
X78485000Y-139100667D02*
X79204667Y-139100667D01*
X79204667Y-140540000D01*
X78485000Y-140540000D01*
X78485000Y-139100667D01*
G36*
X78485000Y-142021667D02*
G01*
X77003334Y-142021667D01*
X77003334Y-142783667D01*
X76283667Y-142783667D01*
X76283667Y-143503334D01*
X75521667Y-143503334D01*
X75521667Y-144223000D01*
X76283667Y-144223000D01*
X76283667Y-144985000D01*
X77003334Y-144985000D01*
X77003334Y-145704667D01*
X72600667Y-145704667D01*
X72600667Y-144223000D01*
X74040000Y-144223000D01*
X74040000Y-144985000D01*
X74802000Y-144985000D01*
X74802000Y-144223000D01*
X74040000Y-144223000D01*
X72600667Y-144223000D01*
X71838667Y-144223000D01*
X71838667Y-144985000D01*
X71119000Y-144985000D01*
X71119000Y-145704667D01*
X69637334Y-145704667D01*
X69637334Y-144223000D01*
X70357000Y-144223000D01*
X70357000Y-144985000D01*
X71119000Y-144985000D01*
X71119000Y-144223000D01*
X70357000Y-144223000D01*
X69637334Y-144223000D01*
X69637334Y-142783667D01*
X70357000Y-142783667D01*
X70357000Y-143503334D01*
X71119000Y-143503334D01*
X71119000Y-144223000D01*
X71838667Y-144223000D01*
X71838667Y-143503334D01*
X73320334Y-143503334D01*
X73320334Y-142783667D01*
X74040000Y-142783667D01*
X74040000Y-142021667D01*
X72600667Y-142021667D01*
X72600667Y-141302000D01*
X71838667Y-141302000D01*
X71838667Y-142021667D01*
X71119000Y-142021667D01*
X71119000Y-142783667D01*
X70357000Y-142783667D01*
X69637334Y-142783667D01*
X69637334Y-142021667D01*
X70357000Y-142021667D01*
X70357000Y-141302000D01*
X69637334Y-141302000D01*
X69637334Y-139820334D01*
X68155667Y-139820334D01*
X68155667Y-139100667D01*
X70357000Y-139100667D01*
X70357000Y-140540000D01*
X71119000Y-140540000D01*
X71119000Y-141302000D01*
X71838667Y-141302000D01*
X71838667Y-140540000D01*
X73320334Y-140540000D01*
X74040000Y-140540000D01*
X74040000Y-142021667D01*
X74802000Y-142021667D01*
X74802000Y-142783667D01*
X75521667Y-142783667D01*
X75521667Y-141302000D01*
X74802000Y-141302000D01*
X74802000Y-140540000D01*
X75521667Y-140540000D01*
X75521667Y-141302000D01*
X77003334Y-141302000D01*
X77003334Y-140540000D01*
X75521667Y-140540000D01*
X74802000Y-140540000D01*
X74040000Y-140540000D01*
X73320334Y-140540000D01*
X73320334Y-139820334D01*
X72600667Y-139820334D01*
X72600667Y-139100667D01*
X73320334Y-139100667D01*
X73320334Y-139820334D01*
X74040000Y-139820334D01*
X74040000Y-139100667D01*
X73320334Y-139100667D01*
X72600667Y-139100667D01*
X71838667Y-139100667D01*
X71838667Y-139820334D01*
X71119000Y-139820334D01*
X71119000Y-139100667D01*
X70357000Y-139100667D01*
X70357000Y-138338667D01*
X71119000Y-138338667D01*
X71119000Y-139100667D01*
X71838667Y-139100667D01*
X71838667Y-138338667D01*
X72600667Y-138338667D01*
X72600667Y-137619000D01*
X74802000Y-137619000D01*
X74802000Y-138338667D01*
X74040000Y-138338667D01*
X74040000Y-139100667D01*
X74802000Y-139100667D01*
X74802000Y-139820334D01*
X75521667Y-139820334D01*
X75521667Y-138338667D01*
X77003334Y-138338667D01*
X77003334Y-137619000D01*
X75521667Y-137619000D01*
X75521667Y-136857000D01*
X76283667Y-136857000D01*
X76283667Y-136137334D01*
X77003334Y-136137334D01*
X77003334Y-136857000D01*
X77723000Y-136857000D01*
X77723000Y-136137334D01*
X78485000Y-136137334D01*
X78485000Y-136857000D01*
X79204667Y-136857000D01*
X79204667Y-137619000D01*
X78485000Y-137619000D01*
X78485000Y-138338667D01*
X77723000Y-138338667D01*
X77723000Y-139100667D01*
X77003334Y-139100667D01*
X77003334Y-139820334D01*
X77723000Y-139820334D01*
X77723000Y-140540000D01*
X78485000Y-140540000D01*
X78485000Y-142021667D01*
G37*
X78485000Y-142021667D02*
X77003334Y-142021667D01*
X77003334Y-142783667D01*
X76283667Y-142783667D01*
X76283667Y-143503334D01*
X75521667Y-143503334D01*
X75521667Y-144223000D01*
X76283667Y-144223000D01*
X76283667Y-144985000D01*
X77003334Y-144985000D01*
X77003334Y-145704667D01*
X72600667Y-145704667D01*
X72600667Y-144223000D01*
X74040000Y-144223000D01*
X74040000Y-144985000D01*
X74802000Y-144985000D01*
X74802000Y-144223000D01*
X74040000Y-144223000D01*
X72600667Y-144223000D01*
X71838667Y-144223000D01*
X71838667Y-144985000D01*
X71119000Y-144985000D01*
X71119000Y-145704667D01*
X69637334Y-145704667D01*
X69637334Y-144223000D01*
X70357000Y-144223000D01*
X70357000Y-144985000D01*
X71119000Y-144985000D01*
X71119000Y-144223000D01*
X70357000Y-144223000D01*
X69637334Y-144223000D01*
X69637334Y-142783667D01*
X70357000Y-142783667D01*
X70357000Y-143503334D01*
X71119000Y-143503334D01*
X71119000Y-144223000D01*
X71838667Y-144223000D01*
X71838667Y-143503334D01*
X73320334Y-143503334D01*
X73320334Y-142783667D01*
X74040000Y-142783667D01*
X74040000Y-142021667D01*
X72600667Y-142021667D01*
X72600667Y-141302000D01*
X71838667Y-141302000D01*
X71838667Y-142021667D01*
X71119000Y-142021667D01*
X71119000Y-142783667D01*
X70357000Y-142783667D01*
X69637334Y-142783667D01*
X69637334Y-142021667D01*
X70357000Y-142021667D01*
X70357000Y-141302000D01*
X69637334Y-141302000D01*
X69637334Y-139820334D01*
X68155667Y-139820334D01*
X68155667Y-139100667D01*
X70357000Y-139100667D01*
X70357000Y-140540000D01*
X71119000Y-140540000D01*
X71119000Y-141302000D01*
X71838667Y-141302000D01*
X71838667Y-140540000D01*
X73320334Y-140540000D01*
X74040000Y-140540000D01*
X74040000Y-142021667D01*
X74802000Y-142021667D01*
X74802000Y-142783667D01*
X75521667Y-142783667D01*
X75521667Y-141302000D01*
X74802000Y-141302000D01*
X74802000Y-140540000D01*
X75521667Y-140540000D01*
X75521667Y-141302000D01*
X77003334Y-141302000D01*
X77003334Y-140540000D01*
X75521667Y-140540000D01*
X74802000Y-140540000D01*
X74040000Y-140540000D01*
X73320334Y-140540000D01*
X73320334Y-139820334D01*
X72600667Y-139820334D01*
X72600667Y-139100667D01*
X73320334Y-139100667D01*
X73320334Y-139820334D01*
X74040000Y-139820334D01*
X74040000Y-139100667D01*
X73320334Y-139100667D01*
X72600667Y-139100667D01*
X71838667Y-139100667D01*
X71838667Y-139820334D01*
X71119000Y-139820334D01*
X71119000Y-139100667D01*
X70357000Y-139100667D01*
X70357000Y-138338667D01*
X71119000Y-138338667D01*
X71119000Y-139100667D01*
X71838667Y-139100667D01*
X71838667Y-138338667D01*
X72600667Y-138338667D01*
X72600667Y-137619000D01*
X74802000Y-137619000D01*
X74802000Y-138338667D01*
X74040000Y-138338667D01*
X74040000Y-139100667D01*
X74802000Y-139100667D01*
X74802000Y-139820334D01*
X75521667Y-139820334D01*
X75521667Y-138338667D01*
X77003334Y-138338667D01*
X77003334Y-137619000D01*
X75521667Y-137619000D01*
X75521667Y-136857000D01*
X76283667Y-136857000D01*
X76283667Y-136137334D01*
X77003334Y-136137334D01*
X77003334Y-136857000D01*
X77723000Y-136857000D01*
X77723000Y-136137334D01*
X78485000Y-136137334D01*
X78485000Y-136857000D01*
X79204667Y-136857000D01*
X79204667Y-137619000D01*
X78485000Y-137619000D01*
X78485000Y-138338667D01*
X77723000Y-138338667D01*
X77723000Y-139100667D01*
X77003334Y-139100667D01*
X77003334Y-139820334D01*
X77723000Y-139820334D01*
X77723000Y-140540000D01*
X78485000Y-140540000D01*
X78485000Y-142021667D01*
G36*
X67436000Y-139820334D02*
G01*
X65954334Y-139820334D01*
X65954334Y-139100667D01*
X67436000Y-139100667D01*
X67436000Y-139820334D01*
G37*
X67436000Y-139820334D02*
X65954334Y-139820334D01*
X65954334Y-139100667D01*
X67436000Y-139100667D01*
X67436000Y-139820334D01*
G36*
X69637334Y-135417667D02*
G01*
X69637334Y-133936000D01*
X70357000Y-133936000D01*
X70357000Y-135417667D01*
X69637334Y-135417667D01*
G37*
X69637334Y-135417667D02*
X69637334Y-133936000D01*
X70357000Y-133936000D01*
X70357000Y-135417667D01*
X69637334Y-135417667D01*
G36*
X69637334Y-131734667D02*
G01*
X69637334Y-130972667D01*
X70357000Y-130972667D01*
X70357000Y-131734667D01*
X69637334Y-131734667D01*
G37*
X69637334Y-131734667D02*
X69637334Y-130972667D01*
X70357000Y-130972667D01*
X70357000Y-131734667D01*
X69637334Y-131734667D01*
G36*
X71119000Y-133174000D02*
G01*
X69637334Y-133174000D01*
X69637334Y-132454334D01*
X70357000Y-132454334D01*
X70357000Y-131734667D01*
X71119000Y-131734667D01*
X71119000Y-132454334D01*
X72600667Y-132454334D01*
X72600667Y-131734667D01*
X71838667Y-131734667D01*
X71838667Y-130972667D01*
X73320334Y-130972667D01*
X73320334Y-133174000D01*
X71838667Y-133174000D01*
X71838667Y-133936000D01*
X73320334Y-133936000D01*
X73320334Y-135417667D01*
X72600667Y-135417667D01*
X72600667Y-134655667D01*
X71838667Y-134655667D01*
X71838667Y-135417667D01*
X71119000Y-135417667D01*
X71119000Y-133174000D01*
G37*
X71119000Y-133174000D02*
X69637334Y-133174000D01*
X69637334Y-132454334D01*
X70357000Y-132454334D01*
X70357000Y-131734667D01*
X71119000Y-131734667D01*
X71119000Y-132454334D01*
X72600667Y-132454334D01*
X72600667Y-131734667D01*
X71838667Y-131734667D01*
X71838667Y-130972667D01*
X73320334Y-130972667D01*
X73320334Y-133174000D01*
X71838667Y-133174000D01*
X71838667Y-133936000D01*
X73320334Y-133936000D01*
X73320334Y-135417667D01*
X72600667Y-135417667D01*
X72600667Y-134655667D01*
X71838667Y-134655667D01*
X71838667Y-135417667D01*
X71119000Y-135417667D01*
X71119000Y-133174000D01*
G36*
X65234667Y-139100667D02*
G01*
X63753000Y-139100667D01*
X63753000Y-137619000D01*
X65234667Y-137619000D01*
X65234667Y-139100667D01*
G37*
X65234667Y-139100667D02*
X63753000Y-139100667D01*
X63753000Y-137619000D01*
X65234667Y-137619000D01*
X65234667Y-139100667D01*
G36*
X71838667Y-136137334D02*
G01*
X72600667Y-136137334D01*
X72600667Y-136857000D01*
X71838667Y-136857000D01*
X71838667Y-136137334D01*
G37*
X71838667Y-136137334D02*
X72600667Y-136137334D01*
X72600667Y-136857000D01*
X71838667Y-136857000D01*
X71838667Y-136137334D01*
G36*
X65234667Y-136857000D02*
G01*
X63753000Y-136857000D01*
X63753000Y-136137334D01*
X67436000Y-136137334D01*
X67436000Y-136857000D01*
X65954334Y-136857000D01*
X65954334Y-137619000D01*
X65234667Y-137619000D01*
X65234667Y-136857000D01*
G37*
X65234667Y-136857000D02*
X63753000Y-136857000D01*
X63753000Y-136137334D01*
X67436000Y-136137334D01*
X67436000Y-136857000D01*
X65954334Y-136857000D01*
X65954334Y-137619000D01*
X65234667Y-137619000D01*
X65234667Y-136857000D01*
G36*
X71838667Y-137619000D02*
G01*
X69637334Y-137619000D01*
X69637334Y-138338667D01*
X67436000Y-138338667D01*
X67436000Y-136857000D01*
X68155667Y-136857000D01*
X68155667Y-137619000D01*
X68917667Y-137619000D01*
X68917667Y-136857000D01*
X68155667Y-136857000D01*
X68155667Y-136137334D01*
X70357000Y-136137334D01*
X70357000Y-135417667D01*
X71119000Y-135417667D01*
X71119000Y-136857000D01*
X71838667Y-136857000D01*
X71838667Y-137619000D01*
G37*
X71838667Y-137619000D02*
X69637334Y-137619000D01*
X69637334Y-138338667D01*
X67436000Y-138338667D01*
X67436000Y-136857000D01*
X68155667Y-136857000D01*
X68155667Y-137619000D01*
X68917667Y-137619000D01*
X68917667Y-136857000D01*
X68155667Y-136857000D01*
X68155667Y-136137334D01*
X70357000Y-136137334D01*
X70357000Y-135417667D01*
X71119000Y-135417667D01*
X71119000Y-136857000D01*
X71838667Y-136857000D01*
X71838667Y-137619000D01*
G36*
X74040000Y-136857000D02*
G01*
X73320334Y-136857000D01*
X73320334Y-136137334D01*
X74040000Y-136137334D01*
X74040000Y-136857000D01*
G37*
X74040000Y-136857000D02*
X73320334Y-136857000D01*
X73320334Y-136137334D01*
X74040000Y-136137334D01*
X74040000Y-136857000D01*
G36*
X68917667Y-135417667D02*
G01*
X63753000Y-135417667D01*
X63753000Y-130972667D01*
X64472667Y-130972667D01*
X64472667Y-134655667D01*
X68155667Y-134655667D01*
X68155667Y-130972667D01*
X64472667Y-130972667D01*
X63753000Y-130972667D01*
X63753000Y-130253000D01*
X68917667Y-130253000D01*
X68917667Y-135417667D01*
G37*
X68917667Y-135417667D02*
X63753000Y-135417667D01*
X63753000Y-130972667D01*
X64472667Y-130972667D01*
X64472667Y-134655667D01*
X68155667Y-134655667D01*
X68155667Y-130972667D01*
X64472667Y-130972667D01*
X63753000Y-130972667D01*
X63753000Y-130253000D01*
X68917667Y-130253000D01*
X68917667Y-135417667D01*
G36*
X79204667Y-135417667D02*
G01*
X74040000Y-135417667D01*
X74040000Y-130972667D01*
X74802000Y-130972667D01*
X74802000Y-134655667D01*
X78485000Y-134655667D01*
X78485000Y-130972667D01*
X74802000Y-130972667D01*
X74040000Y-130972667D01*
X74040000Y-130253000D01*
X79204667Y-130253000D01*
X79204667Y-135417667D01*
G37*
X79204667Y-135417667D02*
X74040000Y-135417667D01*
X74040000Y-130972667D01*
X74802000Y-130972667D01*
X74802000Y-134655667D01*
X78485000Y-134655667D01*
X78485000Y-130972667D01*
X74802000Y-130972667D01*
X74040000Y-130972667D01*
X74040000Y-130253000D01*
X79204667Y-130253000D01*
X79204667Y-135417667D01*
G36*
X67436000Y-144223000D02*
G01*
X65234667Y-144223000D01*
X65234667Y-142021667D01*
X67436000Y-142021667D01*
X67436000Y-144223000D01*
G37*
X67436000Y-144223000D02*
X65234667Y-144223000D01*
X65234667Y-142021667D01*
X67436000Y-142021667D01*
X67436000Y-144223000D01*
G36*
X72600667Y-142783667D02*
G01*
X71838667Y-142783667D01*
X71838667Y-142021667D01*
X72600667Y-142021667D01*
X72600667Y-142783667D01*
G37*
X72600667Y-142783667D02*
X71838667Y-142783667D01*
X71838667Y-142021667D01*
X72600667Y-142021667D01*
X72600667Y-142783667D01*
G36*
X67436000Y-133936000D02*
G01*
X65234667Y-133936000D01*
X65234667Y-131734667D01*
X67436000Y-131734667D01*
X67436000Y-133936000D01*
G37*
X67436000Y-133936000D02*
X65234667Y-133936000D01*
X65234667Y-131734667D01*
X67436000Y-131734667D01*
X67436000Y-133936000D01*
G36*
X77723000Y-133936000D02*
G01*
X75521667Y-133936000D01*
X75521667Y-131734667D01*
X77723000Y-131734667D01*
X77723000Y-133936000D01*
G37*
X77723000Y-133936000D02*
X75521667Y-133936000D01*
X75521667Y-131734667D01*
X77723000Y-131734667D01*
X77723000Y-133936000D01*
%TO.C,D1*%
D15*
X56198380Y-88809523D02*
X55198380Y-88809523D01*
X55198380Y-88428571D01*
X55246000Y-88333333D01*
X55293619Y-88285714D01*
X55388857Y-88238095D01*
X55531714Y-88238095D01*
X55626952Y-88285714D01*
X55674571Y-88333333D01*
X55722190Y-88428571D01*
X55722190Y-88809523D01*
X55198380Y-87619047D02*
X55198380Y-87428571D01*
X55246000Y-87333333D01*
X55341238Y-87238095D01*
X55531714Y-87190476D01*
X55865047Y-87190476D01*
X56055523Y-87238095D01*
X56150761Y-87333333D01*
X56198380Y-87428571D01*
X56198380Y-87619047D01*
X56150761Y-87714285D01*
X56055523Y-87809523D01*
X55865047Y-87857142D01*
X55531714Y-87857142D01*
X55341238Y-87809523D01*
X55246000Y-87714285D01*
X55198380Y-87619047D01*
X55198380Y-86857142D02*
X56198380Y-86619047D01*
X55484095Y-86428571D01*
X56198380Y-86238095D01*
X55198380Y-86000000D01*
X55674571Y-85619047D02*
X55674571Y-85285714D01*
X56198380Y-85142857D02*
X56198380Y-85619047D01*
X55198380Y-85619047D01*
X55198380Y-85142857D01*
X56198380Y-84142857D02*
X55722190Y-84476190D01*
X56198380Y-84714285D02*
X55198380Y-84714285D01*
X55198380Y-84333333D01*
X55246000Y-84238095D01*
X55293619Y-84190476D01*
X55388857Y-84142857D01*
X55531714Y-84142857D01*
X55626952Y-84190476D01*
X55674571Y-84238095D01*
X55722190Y-84333333D01*
X55722190Y-84714285D01*
%TO.C,J4*%
D10*
X137857142Y-104750000D02*
X137714285Y-104630952D01*
X137500000Y-104630952D01*
X137285714Y-104750000D01*
X137142857Y-104988095D01*
X137071428Y-105226190D01*
X137000000Y-105702380D01*
X137000000Y-106059523D01*
X137071428Y-106535714D01*
X137142857Y-106773809D01*
X137285714Y-107011904D01*
X137500000Y-107130952D01*
X137642857Y-107130952D01*
X137857142Y-107011904D01*
X137928571Y-106892857D01*
X137928571Y-106059523D01*
X137642857Y-106059523D01*
X138571428Y-107130952D02*
X138571428Y-104630952D01*
X139428571Y-107130952D01*
X139428571Y-104630952D01*
X140142857Y-107130952D02*
X140142857Y-104630952D01*
X140500000Y-104630952D01*
X140714285Y-104750000D01*
X140857142Y-104988095D01*
X140928571Y-105226190D01*
X141000000Y-105702380D01*
X141000000Y-106059523D01*
X140928571Y-106535714D01*
X140857142Y-106773809D01*
X140714285Y-107011904D01*
X140500000Y-107130952D01*
X140142857Y-107130952D01*
%TO.C,J3*%
X137321428Y-80630952D02*
X137321428Y-78130952D01*
X137892857Y-78130952D01*
X138035714Y-78250000D01*
X138107142Y-78369047D01*
X138178571Y-78607142D01*
X138178571Y-78964285D01*
X138107142Y-79202380D01*
X138035714Y-79321428D01*
X137892857Y-79440476D01*
X137321428Y-79440476D01*
X138607142Y-78130952D02*
X139464285Y-78130952D01*
X139035714Y-80630952D02*
X139035714Y-78130952D01*
X139821428Y-78130952D02*
X140750000Y-78130952D01*
X140250000Y-79083333D01*
X140464285Y-79083333D01*
X140607142Y-79202380D01*
X140678571Y-79321428D01*
X140750000Y-79559523D01*
X140750000Y-80154761D01*
X140678571Y-80392857D01*
X140607142Y-80511904D01*
X140464285Y-80630952D01*
X140035714Y-80630952D01*
X139892857Y-80511904D01*
X139821428Y-80392857D01*
%TO.C,J2*%
X111321428Y-80630952D02*
X111321428Y-78130952D01*
X111892857Y-78130952D01*
X112035714Y-78250000D01*
X112107142Y-78369047D01*
X112178571Y-78607142D01*
X112178571Y-78964285D01*
X112107142Y-79202380D01*
X112035714Y-79321428D01*
X111892857Y-79440476D01*
X111321428Y-79440476D01*
X112607142Y-78130952D02*
X113464285Y-78130952D01*
X113035714Y-80630952D02*
X113035714Y-78130952D01*
X113892857Y-78369047D02*
X113964285Y-78250000D01*
X114107142Y-78130952D01*
X114464285Y-78130952D01*
X114607142Y-78250000D01*
X114678571Y-78369047D01*
X114750000Y-78607142D01*
X114750000Y-78845238D01*
X114678571Y-79202380D01*
X113821428Y-80630952D01*
X114750000Y-80630952D01*
%TO.C,J1*%
X85321428Y-80630952D02*
X85321428Y-78130952D01*
X85892857Y-78130952D01*
X86035714Y-78250000D01*
X86107142Y-78369047D01*
X86178571Y-78607142D01*
X86178571Y-78964285D01*
X86107142Y-79202380D01*
X86035714Y-79321428D01*
X85892857Y-79440476D01*
X85321428Y-79440476D01*
X86607142Y-78130952D02*
X87464285Y-78130952D01*
X87035714Y-80630952D02*
X87035714Y-78130952D01*
X88750000Y-80630952D02*
X87892857Y-80630952D01*
X88321428Y-80630952D02*
X88321428Y-78130952D01*
X88178571Y-78488095D01*
X88035714Y-78726190D01*
X87892857Y-78845238D01*
%TO.C,SW1*%
X55285714Y-80630952D02*
X54571428Y-80630952D01*
X54571428Y-78130952D01*
X56071428Y-78130952D02*
X56357142Y-78130952D01*
X56500000Y-78250000D01*
X56642857Y-78488095D01*
X56714285Y-78964285D01*
X56714285Y-79797619D01*
X56642857Y-80273809D01*
X56500000Y-80511904D01*
X56357142Y-80630952D01*
X56071428Y-80630952D01*
X55928571Y-80511904D01*
X55785714Y-80273809D01*
X55714285Y-79797619D01*
X55714285Y-78964285D01*
X55785714Y-78488095D01*
X55928571Y-78250000D01*
X56071428Y-78130952D01*
X57285714Y-79916666D02*
X58000000Y-79916666D01*
X57142857Y-80630952D02*
X57642857Y-78130952D01*
X58142857Y-80630952D01*
X58642857Y-80630952D02*
X58642857Y-78130952D01*
X59000000Y-78130952D01*
X59214285Y-78250000D01*
X59357142Y-78488095D01*
X59428571Y-78726190D01*
X59500000Y-79202380D01*
X59500000Y-79559523D01*
X59428571Y-80035714D01*
X59357142Y-80273809D01*
X59214285Y-80511904D01*
X59000000Y-80630952D01*
X58642857Y-80630952D01*
%TD*%
M02*
